<svg xmlns="http://www.w3.org/2000/svg" xmlns:xlink="http://www.w3.org/1999/xlink" width="40" zoomAndPan="magnify" viewBox="0 0 30 30.000001" height="40" preserveAspectRatio="xMidYMid meet" version="1.0"><defs><clipPath id="7569201017"><path d="M 7.34375 0 L 26.941406 0 L 26.941406 29.03125 L 7.34375 29.03125 Z M 7.34375 0 " clip-rule="nonzero"/></clipPath></defs><g clip-path="url(#7569201017)"><path fill="#8e7dbe" d="M 26.167969 11.152344 C 23.542969 9.105469 20.097656 9.296875 17.582031 9.433594 C 17.53125 9.4375 17.480469 9.4375 17.429688 9.441406 C 17.253906 9.535156 17.0625 9.609375 16.859375 9.664062 C 16.640625 9.722656 16.414062 9.75 16.191406 9.75 C 15.234375 9.75 14.375 9.234375 13.910156 8.433594 C 13.296875 7.664062 12.90625 6.574219 12.476562 5.378906 C 11.824219 3.554688 11.085938 1.492188 9.269531 0.261719 C 8.878906 0 8.351562 0.101562 8.085938 0.492188 C 7.824219 0.882812 7.925781 1.410156 8.316406 1.671875 C 9.671875 2.589844 10.253906 4.222656 10.875 5.953125 C 11.3125 7.171875 11.757812 8.421875 12.503906 9.40625 C 12.476562 9.4375 12.449219 9.46875 12.425781 9.503906 C 12.214844 9.777344 7.339844 16.367188 11.53125 28.148438 C 11.726562 28.691406 12.238281 29.03125 12.785156 29.03125 C 12.933594 29.03125 13.085938 29.007812 13.230469 28.953125 C 13.925781 28.707031 14.285156 27.949219 14.039062 27.253906 C 12.785156 23.730469 12.449219 20.765625 12.515625 18.4375 C 12.980469 18.414062 13.417969 18.371094 13.769531 18.308594 C 15.1875 20.632812 18.523438 21.9375 23.703125 22.191406 C 23.726562 22.191406 23.746094 22.191406 23.765625 22.191406 C 24.445312 22.191406 25.007812 21.660156 25.042969 20.976562 C 25.074219 20.273438 24.53125 19.671875 23.828125 19.636719 C 19.339844 19.417969 16.5625 18.398438 15.796875 16.6875 C 14.964844 14.824219 16.621094 12.148438 17.328125 11.273438 C 17.363281 11.234375 17.390625 11.191406 17.417969 11.148438 C 17.503906 11.140625 17.589844 11.136719 17.675781 11.132812 C 19.921875 11.011719 23 10.839844 25.121094 12.496094 C 25.273438 12.617188 25.460938 12.675781 25.640625 12.675781 C 25.894531 12.675781 26.144531 12.5625 26.3125 12.347656 C 26.605469 11.976562 26.539062 11.441406 26.167969 11.152344 Z M 26.167969 11.152344 " fill-opacity="1" fill-rule="nonzero"/></g><path fill="#8e7dbe" d="M 16.796875 9.425781 C 18.078125 9.089844 18.84375 7.78125 18.507812 6.503906 C 18.171875 5.222656 16.863281 4.457031 15.585938 4.792969 C 14.304688 5.128906 13.539062 6.4375 13.875 7.71875 C 14.210938 8.996094 15.519531 9.761719 16.796875 9.425781 Z M 18.058594 7.070312 C 18.058594 7.070312 17.8125 9.246094 15.898438 8.148438 C 15.898438 8.148438 17.382812 7.925781 18.058594 7.070312 Z M 18.058594 7.070312 " fill-opacity="1" fill-rule="nonzero"/><path fill="#8e7dbe" d="M 10.277344 11.539062 L 10.070312 11.484375 C 9.960938 11.707031 9.84375 11.960938 9.726562 12.242188 L 9.933594 12.296875 C 10.050781 12.011719 10.167969 11.761719 10.277344 11.539062 Z M 10.277344 11.539062 " fill-opacity="1" fill-rule="nonzero"/><path fill="#8e7dbe" d="M 9.128906 14.828125 C 9.277344 14.167969 9.457031 13.582031 9.636719 13.0625 L 9.433594 13.007812 C 9.25 13.527344 9.074219 14.113281 8.925781 14.769531 C 8.304688 17.46875 8.003906 21.910156 10.078125 27.738281 L 10.277344 27.664062 C 8.226562 21.894531 8.519531 17.5 9.128906 14.828125 Z M 9.128906 14.828125 " fill-opacity="1" fill-rule="nonzero"/><path fill="#8e7dbe" d="M 10.960938 10.375 L 10.789062 10.246094 C 10.785156 10.25 10.660156 10.417969 10.46875 10.746094 L 10.683594 10.800781 C 10.847656 10.523438 10.957031 10.378906 10.960938 10.375 Z M 10.960938 10.375 " fill-opacity="1" fill-rule="nonzero"/></svg>