<svg xmlns="http://www.w3.org/2000/svg" xmlns:xlink="http://www.w3.org/1999/xlink" width="40" zoomAndPan="magnify" viewBox="0 0 30 30.000001" height="40" preserveAspectRatio="xMidYMid meet" version="1.0"><defs><clipPath id="f1af973ebf"><path d="M 1 0.507812 L 29 0.507812 L 29 28.816406 L 1 28.816406 Z M 1 0.507812 " clip-rule="nonzero"/></clipPath></defs><g clip-path="url(#f1af973ebf)"><path fill="#8e7dbe" d="M 1.617188 17.515625 L 4.492188 18.007812 C 4.652344 18.503906 4.851562 18.988281 5.089844 19.457031 L 3.410156 21.828125 C 3.335938 21.9375 3.335938 22.046875 3.410156 22.15625 C 4.453125 23.738281 5.761719 25.054688 7.339844 26.101562 C 7.449219 26.175781 7.558594 26.175781 7.667969 26.101562 L 10.046875 24.410156 C 10.515625 24.648438 10.996094 24.851562 11.496094 25.011719 L 11.984375 27.886719 C 12.003906 28.015625 12.078125 28.09375 12.207031 28.121094 C 14.066406 28.507812 15.921875 28.507812 17.777344 28.121094 C 17.90625 28.09375 17.980469 28.015625 18 27.886719 L 18.492188 25.011719 C 18.988281 24.847656 19.472656 24.648438 19.941406 24.410156 L 22.328125 26.085938 C 22.4375 26.160156 22.546875 26.160156 22.65625 26.085938 C 24.238281 25.042969 25.554688 23.734375 26.601562 22.15625 C 26.675781 22.046875 26.675781 21.9375 26.601562 21.828125 L 24.914062 19.457031 C 25.148438 18.992188 25.347656 18.507812 25.511719 18.011719 L 28.386719 17.519531 C 28.515625 17.496094 28.59375 17.421875 28.621094 17.292969 C 29.003906 15.433594 29.003906 13.574219 28.621094 11.714844 C 28.59375 11.589844 28.515625 11.515625 28.386719 11.492188 L 25.511719 11.023438 C 25.347656 10.519531 25.148438 10.03125 24.90625 9.558594 L 26.585938 7.167969 C 26.65625 7.058594 26.65625 6.953125 26.585938 6.84375 C 25.546875 5.261719 24.238281 3.945312 22.664062 2.894531 C 22.554688 2.820312 22.445312 2.820312 22.339844 2.894531 L 19.953125 4.597656 C 19.480469 4.363281 19 4.164062 18.503906 3.996094 L 18.007812 1.117188 C 17.984375 0.988281 17.910156 0.914062 17.785156 0.882812 C 15.925781 0.5 14.070312 0.5 12.214844 0.882812 C 12.085938 0.914062 12.011719 0.992188 11.992188 1.121094 L 11.5 4 C 11 4.164062 10.519531 4.367188 10.050781 4.601562 L 7.660156 2.914062 C 7.550781 2.835938 7.441406 2.835938 7.328125 2.914062 C 5.757812 3.957031 4.449219 5.269531 3.410156 6.84375 C 3.335938 6.953125 3.335938 7.058594 3.410156 7.167969 L 5.089844 9.546875 C 4.851562 10.023438 4.648438 10.515625 4.484375 11.023438 L 1.617188 11.503906 C 1.488281 11.523438 1.410156 11.597656 1.378906 11.726562 C 1 13.582031 1 15.4375 1.382812 17.292969 C 1.410156 17.417969 1.488281 17.492188 1.617188 17.515625 Z M 14.996094 6.679688 C 15.511719 6.679688 16.019531 6.726562 16.523438 6.828125 C 17.027344 6.929688 17.515625 7.078125 17.992188 7.273438 C 18.464844 7.46875 18.914062 7.710938 19.34375 7.996094 C 19.769531 8.28125 20.164062 8.605469 20.527344 8.96875 C 20.890625 9.332031 21.214844 9.726562 21.5 10.152344 C 21.785156 10.582031 22.027344 11.03125 22.222656 11.507812 C 22.421875 11.980469 22.570312 12.46875 22.667969 12.972656 C 22.769531 13.476562 22.820312 13.984375 22.820312 14.5 C 22.820312 15.011719 22.769531 15.523438 22.667969 16.023438 C 22.570312 16.527344 22.421875 17.019531 22.222656 17.492188 C 22.027344 17.96875 21.785156 18.417969 21.5 18.84375 C 21.214844 19.273438 20.890625 19.667969 20.527344 20.03125 C 20.164062 20.394531 19.769531 20.71875 19.34375 21.003906 C 18.914062 21.289062 18.464844 21.527344 17.992188 21.726562 C 17.515625 21.921875 17.027344 22.070312 16.523438 22.171875 C 16.019531 22.269531 15.511719 22.320312 14.996094 22.320312 C 14.484375 22.320312 13.976562 22.269531 13.472656 22.171875 C 12.96875 22.070312 12.480469 21.921875 12.003906 21.726562 C 11.53125 21.527344 11.078125 21.289062 10.652344 21.003906 C 10.226562 20.71875 9.832031 20.394531 9.46875 20.03125 C 9.105469 19.667969 8.78125 19.273438 8.496094 18.84375 C 8.210938 18.417969 7.96875 17.96875 7.773438 17.492188 C 7.574219 17.019531 7.425781 16.527344 7.328125 16.023438 C 7.226562 15.523438 7.175781 15.011719 7.175781 14.5 C 7.175781 13.984375 7.226562 13.476562 7.328125 12.972656 C 7.425781 12.46875 7.574219 11.980469 7.773438 11.507812 C 7.96875 11.03125 8.210938 10.582031 8.496094 10.152344 C 8.78125 9.726562 9.105469 9.332031 9.46875 8.96875 C 9.832031 8.605469 10.226562 8.28125 10.652344 7.996094 C 11.078125 7.710938 11.53125 7.46875 12.003906 7.273438 C 12.480469 7.078125 12.96875 6.929688 13.472656 6.828125 C 13.976562 6.726562 14.484375 6.679688 14.996094 6.679688 Z M 9.785156 17.226562 C 9.851562 17.230469 9.917969 17.230469 9.984375 17.226562 C 10.046875 17.230469 10.109375 17.230469 10.175781 17.226562 C 10.214844 17.222656 10.25 17.214844 10.289062 17.199219 C 10.3125 17.1875 10.332031 17.171875 10.347656 17.152344 C 10.363281 17.132812 10.375 17.113281 10.378906 17.089844 L 10.828125 15.785156 L 13.085938 15.785156 L 13.550781 17.105469 C 13.558594 17.128906 13.570312 17.148438 13.585938 17.171875 C 13.601562 17.1875 13.621094 17.203125 13.644531 17.210938 C 13.683594 17.222656 13.722656 17.230469 13.761719 17.230469 L 13.96875 17.230469 C 14.039062 17.234375 14.105469 17.234375 14.175781 17.230469 C 14.214844 17.230469 14.253906 17.21875 14.285156 17.195312 C 14.3125 17.171875 14.324219 17.144531 14.316406 17.109375 C 14.3125 17.058594 14.300781 17.007812 14.28125 16.957031 L 12.46875 11.917969 C 12.457031 11.890625 12.441406 11.867188 12.421875 11.84375 C 12.398438 11.820312 12.371094 11.800781 12.339844 11.792969 C 12.292969 11.78125 12.246094 11.773438 12.195312 11.769531 L 11.765625 11.769531 C 11.71875 11.773438 11.675781 11.78125 11.632812 11.792969 C 11.601562 11.800781 11.574219 11.816406 11.554688 11.839844 C 11.53125 11.863281 11.515625 11.886719 11.507812 11.914062 L 9.691406 16.949219 C 9.671875 16.996094 9.660156 17.046875 9.65625 17.097656 C 9.652344 17.132812 9.660156 17.160156 9.683594 17.183594 C 9.714844 17.207031 9.746094 17.222656 9.785156 17.226562 Z M 11.9375 12.507812 L 12.882812 15.210938 L 11 15.210938 Z M 15.265625 17.199219 L 15.378906 17.226562 C 15.492188 17.238281 15.609375 17.238281 15.726562 17.226562 L 15.832031 17.199219 C 15.855469 17.191406 15.875 17.179688 15.894531 17.160156 C 15.90625 17.140625 15.910156 17.121094 15.910156 17.101562 L 15.910156 15.148438 L 16.527344 15.148438 C 16.824219 15.15625 17.113281 15.113281 17.394531 15.023438 C 17.625 14.949219 17.828125 14.828125 18.007812 14.667969 C 18.179688 14.511719 18.308594 14.324219 18.394531 14.109375 C 18.484375 13.871094 18.527344 13.628906 18.527344 13.375 C 18.527344 13.183594 18.5 12.996094 18.4375 12.816406 C 18.378906 12.652344 18.296875 12.503906 18.183594 12.371094 C 18.074219 12.238281 17.945312 12.132812 17.796875 12.046875 C 17.65625 11.964844 17.503906 11.902344 17.347656 11.867188 C 17.222656 11.835938 17.09375 11.816406 16.96875 11.804688 C 16.855469 11.792969 16.742188 11.789062 16.628906 11.789062 L 15.46875 11.789062 C 15.394531 11.789062 15.332031 11.8125 15.273438 11.859375 C 15.203125 11.925781 15.175781 12.003906 15.183594 12.097656 L 15.183594 17.105469 C 15.183594 17.128906 15.1875 17.148438 15.199219 17.164062 C 15.21875 17.183594 15.238281 17.195312 15.265625 17.199219 Z M 15.910156 12.382812 L 16.578125 12.382812 C 16.703125 12.382812 16.832031 12.394531 16.957031 12.414062 C 17.089844 12.433594 17.214844 12.480469 17.332031 12.554688 C 17.457031 12.636719 17.554688 12.746094 17.621094 12.882812 C 17.710938 13.054688 17.753906 13.242188 17.746094 13.4375 C 17.746094 13.589844 17.722656 13.738281 17.671875 13.886719 C 17.625 14.019531 17.550781 14.140625 17.453125 14.242188 C 17.347656 14.34375 17.226562 14.421875 17.085938 14.472656 C 16.910156 14.535156 16.730469 14.5625 16.542969 14.558594 L 15.910156 14.558594 Z M 19.632812 17.160156 C 19.628906 17.140625 19.628906 17.125 19.632812 17.105469 L 19.632812 11.890625 C 19.632812 11.871094 19.636719 11.851562 19.652344 11.835938 C 19.667969 11.8125 19.6875 11.800781 19.714844 11.792969 L 19.828125 11.769531 C 19.882812 11.765625 19.9375 11.765625 19.992188 11.769531 C 20.050781 11.765625 20.109375 11.765625 20.164062 11.769531 L 20.277344 11.792969 C 20.300781 11.800781 20.320312 11.8125 20.335938 11.835938 C 20.347656 11.851562 20.355469 11.871094 20.355469 11.890625 L 20.355469 17.105469 C 20.355469 17.128906 20.347656 17.148438 20.335938 17.164062 C 20.320312 17.183594 20.300781 17.199219 20.277344 17.203125 L 20.164062 17.230469 C 20.109375 17.234375 20.050781 17.234375 19.992188 17.230469 C 19.933594 17.234375 19.878906 17.234375 19.820312 17.230469 L 19.707031 17.203125 C 19.675781 17.203125 19.648438 17.1875 19.632812 17.160156 Z M 19.632812 17.160156 " fill-opacity="1" fill-rule="nonzero"/></g></svg>