<svg xmlns="http://www.w3.org/2000/svg" xmlns:xlink="http://www.w3.org/1999/xlink" width="40" zoomAndPan="magnify" viewBox="0 0 30 30.000001" height="40" preserveAspectRatio="xMidYMid meet" version="1.0"><defs><clipPath id="1148a3a723"><path d="M 0.484375 0 L 25.886719 0 L 25.886719 29 L 0.484375 29 Z M 0.484375 0 " clip-rule="nonzero"/></clipPath></defs><g clip-path="url(#1148a3a723)"><path fill="#8e7dbe" d="M 2.816406 26.019531 L 0.507812 0.136719 L 25.863281 0.136719 L 23.554688 26.015625 L 13.167969 28.894531 Z M 2.816406 26.019531 " fill-opacity="1" fill-rule="nonzero"/></g><path fill="#ffffff" d="M 13.183594 26.695312 L 21.578125 24.371094 L 23.550781 2.253906 L 13.183594 2.253906 Z M 13.183594 26.695312 " fill-opacity="1" fill-rule="nonzero"/><path fill="#ffffff" d="M 13.183594 11.855469 L 8.984375 11.855469 L 8.695312 8.601562 L 13.183594 8.601562 L 13.183594 5.429688 L 5.226562 5.429688 L 5.300781 6.277344 L 6.082031 15.027344 L 13.183594 15.027344 Z M 13.183594 20.097656 L 13.171875 20.101562 L 9.636719 19.144531 L 9.410156 16.613281 L 6.222656 16.613281 L 6.667969 21.597656 L 13.171875 23.402344 L 13.183594 23.398438 Z M 13.183594 20.097656 " fill-opacity="1" fill-rule="nonzero"/><path fill="#aeb2d5" d="M 13.175781 11.855469 L 13.175781 15.027344 L 17.082031 15.027344 L 16.714844 19.144531 L 13.171875 20.101562 L 13.171875 23.402344 L 19.679688 21.597656 L 19.730469 21.0625 L 20.476562 12.703125 L 20.554688 11.851562 L 19.699219 11.851562 Z M 13.175781 5.429688 L 13.175781 8.601562 L 20.84375 8.601562 L 20.90625 7.886719 L 21.050781 6.277344 L 21.125 5.425781 Z M 13.175781 5.429688 " fill-opacity="1" fill-rule="nonzero"/></svg>