<svg xmlns="http://www.w3.org/2000/svg" xmlns:xlink="http://www.w3.org/1999/xlink" width="40" zoomAndPan="magnify" viewBox="0 0 30 30.000001" height="40" preserveAspectRatio="xMidYMid meet" version="1.0"><defs><clipPath id="c36e72de6c"><path d="M 11 7 L 28.53125 7 L 28.53125 24 L 11 24 Z M 11 7 " clip-rule="nonzero"/></clipPath><clipPath id="4f33de3dbb"><path d="M 2 1.507812 L 22 1.507812 L 22 27.636719 L 2 27.636719 Z M 2 1.507812 " clip-rule="nonzero"/></clipPath><clipPath id="43a73406eb"><path d="M 1.675781 8 L 3 8 L 3 19 L 1.675781 19 Z M 1.675781 8 " clip-rule="nonzero"/></clipPath><clipPath id="2c8fe48a60"><path d="M 1.675781 19 L 3 19 L 3 22 L 1.675781 22 Z M 1.675781 19 " clip-rule="nonzero"/></clipPath><clipPath id="60c370ebfd"><path d="M 4 1.507812 L 6 1.507812 L 6 3 L 4 3 Z M 4 1.507812 " clip-rule="nonzero"/></clipPath></defs><g clip-path="url(#c36e72de6c)"><path fill="#99c1b9" d="M 28.125 10.648438 C 28.324219 10.03125 27.800781 9.539062 27.425781 9.117188 C 26.933594 8.570312 26.378906 8.089844 25.792969 7.644531 C 25.667969 7.550781 25.472656 7.605469 25.367188 7.699219 C 23.746094 9.167969 22.289062 10.832031 20.804688 12.429688 C 18.878906 14.496094 16.945312 16.558594 15.042969 18.640625 C 14.382812 19.363281 13.777344 20.125 13.15625 20.875 C 13.023438 20.867188 12.878906 20.929688 12.839844 21.082031 C 12.730469 21.480469 12.660156 21.875 12.519531 22.265625 C 12.390625 22.648438 12.21875 23.011719 12.023438 23.359375 C 11.898438 23.59375 12.109375 23.859375 12.363281 23.800781 C 12.902344 23.667969 13.445312 23.550781 13.984375 23.410156 C 14.253906 23.339844 14.519531 23.25 14.78125 23.175781 C 14.988281 23.117188 15.304688 23.042969 15.378906 22.816406 C 15.378906 22.8125 15.378906 22.800781 15.378906 22.796875 C 16.125 22.453125 16.734375 21.808594 17.347656 21.273438 C 18.507812 20.261719 19.625 19.195312 20.75 18.144531 C 22.410156 16.59375 24.074219 15.035156 25.675781 13.421875 C 25.691406 13.4375 25.707031 13.457031 25.730469 13.464844 C 25.894531 13.625 26.058594 13.78125 26.210938 13.953125 C 26.230469 13.972656 26.246094 14 26.269531 14.019531 C 26.28125 14.03125 26.316406 14.085938 26.320312 14.089844 C 26.371094 14.164062 26.410156 14.230469 26.453125 14.304688 C 26.484375 14.363281 26.511719 14.433594 26.542969 14.496094 C 26.507812 14.539062 26.46875 14.589844 26.445312 14.632812 C 26.242188 14.882812 26.03125 15.121094 25.808594 15.351562 C 25.382812 15.800781 24.933594 16.230469 24.464844 16.640625 C 23.984375 17.066406 23.445312 17.453125 23.039062 17.941406 C 23.011719 17.972656 23.039062 18.027344 23.082031 18.015625 C 23.773438 17.847656 24.398438 17.410156 24.984375 17.019531 C 25.601562 16.601562 26.199219 16.152344 26.769531 15.667969 C 27.046875 15.441406 27.410156 15.238281 27.589844 14.917969 C 27.796875 14.554688 27.617188 14.195312 27.453125 13.855469 C 27.214844 13.375 26.855469 13.015625 26.46875 12.644531 C 26.464844 12.640625 26.453125 12.636719 26.445312 12.628906 C 26.695312 12.367188 26.957031 12.105469 27.210938 11.835938 C 27.527344 11.503906 27.976562 11.101562 28.125 10.648438 Z M 23.800781 14.296875 C 21.601562 16.460938 19.386719 18.613281 17.175781 20.769531 C 16.554688 21.378906 15.925781 21.96875 15.378906 22.640625 C 15.371094 22.625 15.363281 22.609375 15.347656 22.597656 C 15.28125 22.542969 15.210938 22.476562 15.144531 22.417969 C 15.125 22.410156 15.109375 22.394531 15.09375 22.382812 C 15.089844 22.378906 15.078125 22.371094 15.074219 22.367188 C 15.074219 22.367188 15.0625 22.355469 15.058594 22.355469 C 15.054688 22.351562 15.046875 22.351562 15.046875 22.347656 C 15.035156 22.339844 15.03125 22.328125 15.019531 22.324219 C 15.003906 22.3125 14.988281 22.296875 14.972656 22.289062 C 14.910156 22.234375 14.847656 22.183594 14.789062 22.128906 C 14.757812 22.097656 14.71875 22.070312 14.683594 22.042969 C 14.644531 22.019531 14.609375 21.988281 14.566406 21.96875 C 14.492188 21.949219 14.441406 22.019531 14.449219 22.085938 C 14.460938 22.128906 14.488281 22.167969 14.511719 22.203125 C 14.535156 22.238281 14.566406 22.277344 14.59375 22.3125 C 14.644531 22.378906 14.699219 22.441406 14.75 22.503906 C 14.792969 22.558594 14.839844 22.605469 14.890625 22.652344 C 14.804688 22.664062 14.726562 22.683594 14.65625 22.695312 C 14.382812 22.746094 14.105469 22.789062 13.832031 22.847656 C 13.5 22.917969 13.171875 23 12.84375 23.082031 C 12.933594 22.878906 13.019531 22.667969 13.089844 22.460938 C 13.21875 22.097656 13.339844 21.710938 13.394531 21.332031 C 13.503906 21.429688 13.613281 21.527344 13.738281 21.609375 C 13.816406 21.664062 13.894531 21.722656 13.980469 21.773438 C 14.027344 21.808594 14.074219 21.84375 14.128906 21.859375 C 14.175781 21.875 14.222656 21.886719 14.269531 21.902344 C 14.34375 21.921875 14.421875 21.832031 14.375 21.765625 C 14.351562 21.726562 14.324219 21.683594 14.296875 21.648438 C 14.265625 21.605469 14.222656 21.574219 14.179688 21.535156 C 14.105469 21.46875 14.03125 21.40625 13.957031 21.335938 C 13.820312 21.203125 13.667969 21.085938 13.523438 20.960938 C 15.121094 19.648438 16.484375 18.101562 17.890625 16.589844 C 18.230469 16.226562 18.5625 15.867188 18.902344 15.5 C 18.917969 15.515625 18.933594 15.53125 18.949219 15.546875 C 19.082031 15.679688 19.210938 15.816406 19.34375 15.949219 C 19.476562 16.078125 19.605469 16.210938 19.734375 16.335938 C 19.804688 16.40625 19.878906 16.457031 19.953125 16.519531 C 20.03125 16.585938 20.09375 16.648438 20.195312 16.675781 C 20.257812 16.691406 20.3125 16.632812 20.300781 16.570312 C 20.28125 16.472656 20.222656 16.410156 20.164062 16.335938 C 20.105469 16.261719 20.046875 16.183594 19.988281 16.113281 C 19.863281 15.972656 19.734375 15.832031 19.609375 15.695312 C 19.488281 15.558594 19.367188 15.425781 19.238281 15.289062 C 19.21875 15.261719 19.195312 15.242188 19.175781 15.214844 C 20.40625 13.882812 21.648438 12.554688 22.898438 11.242188 C 22.929688 11.265625 22.960938 11.292969 22.992188 11.320312 C 23.140625 11.457031 23.289062 11.59375 23.429688 11.738281 C 23.574219 11.878906 23.710938 12.027344 23.847656 12.175781 C 23.917969 12.253906 23.992188 12.324219 24.066406 12.398438 C 24.140625 12.472656 24.195312 12.523438 24.304688 12.546875 C 24.335938 12.550781 24.367188 12.53125 24.367188 12.5 C 24.367188 12.304688 24.207031 12.128906 24.085938 11.984375 C 23.949219 11.820312 23.804688 11.664062 23.664062 11.511719 C 23.519531 11.355469 23.378906 11.207031 23.222656 11.066406 C 23.199219 11.039062 23.167969 11.011719 23.140625 10.980469 C 23.1875 10.933594 23.234375 10.882812 23.277344 10.832031 C 23.695312 11.175781 24.105469 11.527344 24.5 11.894531 C 24.714844 12.101562 24.921875 12.320312 25.136719 12.519531 C 25.160156 12.539062 25.257812 12.640625 25.371094 12.734375 C 24.84375 13.257812 24.320312 13.777344 23.800781 14.296875 Z M 25.929688 12.148438 C 25.925781 12.058594 25.914062 11.96875 25.90625 11.886719 C 25.882812 11.664062 25.847656 11.441406 25.796875 11.222656 C 25.699219 10.773438 25.523438 10.367188 25.292969 9.972656 C 25.257812 9.925781 25.167969 9.957031 25.191406 10.015625 C 25.347656 10.414062 25.464844 10.84375 25.550781 11.273438 C 25.59375 11.488281 25.617188 11.710938 25.636719 11.933594 C 25.644531 12.101562 25.636719 12.277344 25.644531 12.445312 C 25.625 12.464844 25.601562 12.488281 25.582031 12.507812 C 25.523438 12.402344 25.464844 12.296875 25.402344 12.195312 C 25.238281 11.9375 25.042969 11.699219 24.851562 11.460938 C 24.519531 11.042969 24.160156 10.660156 23.769531 10.300781 C 24.359375 9.679688 24.957031 9.058594 25.582031 8.472656 C 26.085938 9.476562 26.347656 10.59375 26.347656 11.722656 C 26.210938 11.863281 26.066406 12.007812 25.929688 12.148438 Z M 25.96875 8.703125 C 26.300781 8.988281 26.625 9.289062 26.917969 9.617188 C 27.066406 9.78125 27.367188 10.035156 27.425781 10.242188 C 27.480469 10.449219 27.375 10.570312 27.261719 10.71875 C 27.320312 10.636719 27.242188 10.738281 27.230469 10.753906 C 27.039062 10.992188 26.828125 11.214844 26.617188 11.4375 C 26.585938 10.488281 26.363281 9.566406 25.96875 8.703125 Z M 25.96875 8.703125 " fill-opacity="1" fill-rule="nonzero"/></g><g clip-path="url(#4f33de3dbb)"><path fill="#99c1b9" d="M 21.511719 20.800781 C 21.492188 20.179688 21.515625 19.535156 21.34375 18.929688 C 21.332031 18.898438 21.285156 18.898438 21.273438 18.929688 C 21.105469 19.535156 21.140625 20.179688 21.125 20.800781 C 21.109375 21.453125 21.105469 22.109375 21.101562 22.757812 C 21.082031 23.996094 21.066406 25.230469 21.058594 26.46875 C 18.980469 26.523438 16.902344 26.480469 14.824219 26.46875 C 11.949219 26.453125 9.074219 26.496094 6.199219 26.503906 C 5.617188 26.503906 5.035156 26.511719 4.453125 26.511719 C 4.207031 26.511719 3.957031 26.511719 3.714844 26.53125 C 3.71875 26.214844 3.671875 25.867188 3.671875 25.628906 C 3.671875 25.019531 3.667969 24.40625 3.667969 23.800781 C 3.660156 22.257812 3.628906 20.710938 3.609375 19.175781 C 3.5625 15.902344 3.519531 12.625 3.445312 9.351562 C 3.429688 8.617188 3.414062 7.890625 3.382812 7.15625 C 3.375 7.039062 3.371094 6.917969 3.367188 6.796875 C 3.410156 6.816406 3.457031 6.832031 3.507812 6.835938 C 4.644531 6.917969 5.78125 6.996094 6.914062 7.074219 C 7.085938 7.085938 7.234375 6.917969 7.230469 6.757812 C 7.222656 6.058594 7.230469 5.363281 7.230469 4.664062 C 7.230469 4.316406 7.21875 3.96875 7.21875 3.617188 C 7.214844 3.300781 7.257812 2.9375 7.125 2.640625 C 7.457031 2.675781 7.796875 2.683594 8.105469 2.683594 C 9.222656 2.699219 10.332031 2.710938 11.449219 2.726562 C 13.90625 2.757812 16.359375 2.792969 18.816406 2.804688 C 19.488281 2.804688 20.152344 2.808594 20.824219 2.804688 C 20.847656 4.003906 20.882812 5.203125 20.9375 6.398438 C 20.960938 7.058594 20.988281 7.714844 21.03125 8.371094 C 21.074219 9.03125 21.035156 9.75 21.214844 10.390625 C 21.253906 10.511719 21.433594 10.511719 21.464844 10.390625 C 21.644531 9.75 21.601562 9.03125 21.621094 8.371094 C 21.644531 7.714844 21.640625 7.054688 21.640625 6.398438 C 21.640625 5.066406 21.621094 3.734375 21.628906 2.398438 C 21.628906 2.175781 21.441406 1.996094 21.226562 1.996094 C 16.976562 1.953125 12.726562 1.859375 8.476562 1.816406 C 7.742188 1.8125 6.828125 1.726562 6.171875 2.105469 C 6.128906 2.132812 6.109375 2.175781 6.109375 2.21875 C 5.992188 2.277344 5.890625 2.332031 5.78125 2.425781 C 5.628906 2.546875 5.492188 2.671875 5.351562 2.804688 C 5.058594 3.085938 4.761719 3.359375 4.472656 3.648438 C 4.191406 3.929688 3.910156 4.210938 3.628906 4.496094 C 3.492188 4.636719 3.351562 4.78125 3.222656 4.941406 C 3.105469 5.082031 3.039062 5.226562 2.992188 5.40625 C 2.984375 5.414062 2.96875 5.425781 2.96875 5.4375 C 2.777344 6.5 2.878906 7.652344 2.886719 8.730469 C 2.890625 10.289062 2.886719 11.855469 2.878906 13.414062 C 2.867188 16.675781 2.828125 19.929688 2.820312 23.191406 C 2.820312 23.90625 2.828125 24.625 2.832031 25.335938 C 2.835938 25.839844 2.695312 26.636719 2.933594 27.085938 C 2.996094 27.207031 3.132812 27.273438 3.269531 27.273438 C 4.015625 27.511719 4.957031 27.367188 5.730469 27.363281 C 7.066406 27.351562 8.402344 27.347656 9.746094 27.335938 C 12.625 27.3125 15.511719 27.273438 18.394531 27.183594 C 19.375 27.152344 20.363281 27.128906 21.347656 27.066406 C 21.507812 27.054688 21.65625 26.9375 21.648438 26.765625 C 21.617188 25.425781 21.589844 24.09375 21.558594 22.757812 C 21.542969 22.109375 21.53125 21.453125 21.511719 20.800781 Z M 6.253906 2.390625 C 6.292969 2.414062 6.332031 2.433594 6.375 2.457031 C 6.410156 2.519531 6.449219 2.585938 6.484375 2.65625 C 6.503906 2.695312 6.523438 2.734375 6.542969 2.773438 C 6.554688 2.792969 6.5625 2.816406 6.574219 2.839844 C 6.585938 2.863281 6.585938 2.863281 6.578125 2.851562 C 6.585938 2.863281 6.589844 2.875 6.59375 2.882812 C 6.621094 2.941406 6.644531 3.003906 6.664062 3.070312 C 6.660156 3.121094 6.660156 3.179688 6.652344 3.234375 C 6.554688 3.019531 6.457031 2.816406 6.359375 2.605469 C 6.332031 2.546875 6.257812 2.523438 6.199219 2.539062 C 6.214844 2.488281 6.230469 2.441406 6.253906 2.390625 Z M 6.089844 2.695312 C 6.09375 2.710938 6.09375 2.726562 6.105469 2.742188 C 6.210938 2.980469 6.316406 3.210938 6.421875 3.449219 C 6.472656 3.566406 6.523438 3.6875 6.578125 3.804688 C 6.59375 3.828125 6.613281 3.855469 6.632812 3.882812 C 6.628906 3.992188 6.628906 4.105469 6.621094 4.222656 C 6.574219 4.148438 6.53125 4.074219 6.484375 4.003906 C 6.363281 3.820312 6.234375 3.640625 6.097656 3.464844 C 6.023438 3.375 5.957031 3.28125 5.882812 3.191406 C 5.851562 3.148438 5.8125 3.117188 5.777344 3.078125 C 5.890625 2.957031 6 2.832031 6.089844 2.695312 Z M 5.621094 3.253906 C 5.640625 3.28125 5.648438 3.304688 5.664062 3.332031 C 5.730469 3.421875 5.785156 3.519531 5.84375 3.609375 C 5.964844 3.796875 6.09375 3.988281 6.210938 4.183594 C 6.324219 4.367188 6.441406 4.558594 6.546875 4.753906 C 6.570312 4.785156 6.585938 4.824219 6.605469 4.859375 C 6.601562 5.230469 6.601562 5.605469 6.601562 5.976562 C 6.433594 5.644531 6.257812 5.308594 6.078125 4.980469 C 5.820312 4.523438 5.550781 4.082031 5.246094 3.648438 C 5.371094 3.523438 5.496094 3.390625 5.621094 3.253906 Z M 4.867188 4.050781 C 4.945312 3.972656 5.015625 3.894531 5.09375 3.8125 C 5.511719 4.628906 5.933594 5.4375 6.359375 6.25 C 6.378906 6.289062 6.398438 6.339844 6.421875 6.398438 C 6.195312 6.382812 5.964844 6.363281 5.734375 6.347656 C 5.640625 6.035156 5.511719 5.738281 5.378906 5.441406 C 5.195312 5.03125 5.011719 4.566406 4.714844 4.214844 C 4.765625 4.15625 4.820312 4.105469 4.867188 4.050781 Z M 4.554688 4.375 C 4.613281 4.546875 4.6875 4.71875 4.761719 4.882812 C 4.867188 5.109375 4.972656 5.332031 5.074219 5.558594 C 5.179688 5.8125 5.273438 6.066406 5.386719 6.3125 C 5.261719 6.304688 5.140625 6.296875 5.019531 6.289062 C 4.984375 6.28125 4.953125 6.28125 4.914062 6.277344 C 4.882812 6.160156 4.835938 6.050781 4.792969 5.933594 C 4.742188 5.796875 4.683594 5.660156 4.628906 5.519531 C 4.511719 5.234375 4.402344 4.945312 4.285156 4.660156 C 4.285156 4.65625 4.28125 4.65625 4.28125 4.648438 C 4.363281 4.558594 4.460938 4.464844 4.554688 4.375 Z M 4.011719 4.925781 C 4.019531 4.914062 4.039062 4.898438 4.046875 4.886719 C 4.136719 5.128906 4.234375 5.375 4.324219 5.609375 C 4.375 5.75 4.429688 5.886719 4.480469 6.027344 C 4.507812 6.101562 4.535156 6.183594 4.5625 6.261719 C 4.402344 6.25 4.242188 6.234375 4.085938 6.222656 C 4.070312 6.222656 4.054688 6.21875 4.039062 6.21875 C 4.003906 6.128906 3.96875 6.035156 3.9375 5.945312 C 3.894531 5.824219 3.847656 5.707031 3.804688 5.585938 C 3.785156 5.527344 3.761719 5.464844 3.742188 5.40625 C 3.71875 5.351562 3.695312 5.308594 3.660156 5.261719 C 3.785156 5.152344 3.898438 5.035156 4.011719 4.925781 Z M 3.246094 5.542969 C 3.320312 5.511719 3.390625 5.472656 3.457031 5.429688 C 3.457031 5.449219 3.457031 5.464844 3.460938 5.480469 C 3.480469 5.542969 3.5 5.609375 3.519531 5.675781 C 3.554688 5.796875 3.59375 5.917969 3.636719 6.039062 C 3.652344 6.085938 3.667969 6.128906 3.683594 6.175781 C 3.554688 6.171875 3.433594 6.175781 3.339844 6.234375 C 3.320312 6.003906 3.292969 5.769531 3.246094 5.542969 Z M 3.246094 5.542969 " fill-opacity="1" fill-rule="nonzero"/></g><path fill="#99c1b9" d="M 6.34375 12.535156 C 5.820312 12.519531 5.304688 12.484375 4.796875 12.640625 C 4.613281 12.699219 4.613281 12.957031 4.796875 13.011719 C 5.289062 13.160156 5.777344 13.132812 6.285156 13.117188 C 6.824219 13.101562 7.363281 13.085938 7.894531 13.070312 C 8.414062 13.054688 8.933594 13.03125 9.449219 13.015625 C 9.707031 13.007812 9.96875 13 10.226562 12.988281 C 10.476562 12.980469 10.734375 12.996094 10.96875 12.910156 C 11.046875 12.878906 11.046875 12.777344 10.96875 12.746094 C 10.539062 12.582031 9.96875 12.65625 9.507812 12.640625 C 8.96875 12.625 8.429688 12.605469 7.894531 12.589844 C 7.378906 12.566406 6.859375 12.550781 6.34375 12.535156 Z M 6.34375 12.535156 " fill-opacity="1" fill-rule="nonzero"/><path fill="#99c1b9" d="M 14.503906 14.707031 C 13.773438 14.542969 12.960938 14.617188 12.214844 14.601562 C 11.363281 14.585938 10.511719 14.566406 9.667969 14.550781 C 8.847656 14.535156 8.027344 14.519531 7.214844 14.5 C 6.398438 14.484375 5.605469 14.453125 4.804688 14.609375 C 4.617188 14.644531 4.617188 14.945312 4.804688 14.976562 C 5.574219 15.121094 6.34375 15.097656 7.117188 15.082031 C 7.96875 15.066406 8.820312 15.050781 9.667969 15.035156 C 10.484375 15.019531 11.304688 15 12.121094 14.984375 C 12.890625 14.96875 13.746094 15.050781 14.503906 14.878906 C 14.582031 14.855469 14.582031 14.730469 14.503906 14.707031 Z M 14.503906 14.707031 " fill-opacity="1" fill-rule="nonzero"/><path fill="#99c1b9" d="M 14.503906 16.839844 C 14.582031 16.816406 14.582031 16.695312 14.503906 16.675781 C 13.773438 16.503906 12.960938 16.585938 12.214844 16.570312 C 11.363281 16.550781 10.511719 16.53125 9.667969 16.515625 C 8.847656 16.5 8.027344 16.484375 7.214844 16.46875 C 6.398438 16.453125 5.605469 16.421875 4.804688 16.574219 C 4.617188 16.609375 4.617188 16.910156 4.804688 16.945312 C 5.574219 17.085938 6.34375 17.066406 7.117188 17.050781 C 7.96875 17.035156 8.820312 17.019531 9.667969 17 C 10.484375 16.984375 11.304688 16.964844 12.121094 16.949219 C 12.890625 16.929688 13.746094 17.011719 14.503906 16.839844 Z M 14.503906 16.839844 " fill-opacity="1" fill-rule="nonzero"/><path fill="#99c1b9" d="M 5.824219 19.011719 C 6.1875 18.996094 6.554688 18.980469 6.921875 18.964844 C 7.289062 18.945312 7.652344 18.925781 8.023438 18.910156 C 8.214844 18.898438 8.402344 18.890625 8.59375 18.882812 C 8.746094 18.878906 8.90625 18.882812 9.042969 18.800781 C 9.097656 18.765625 9.097656 18.6875 9.042969 18.652344 C 8.90625 18.566406 8.746094 18.578125 8.59375 18.566406 C 8.402344 18.554688 8.214844 18.546875 8.023438 18.539062 C 7.65625 18.523438 7.292969 18.503906 6.921875 18.488281 C 6.558594 18.472656 6.195312 18.449219 5.824219 18.441406 C 5.449219 18.421875 5.105469 18.398438 4.75 18.566406 C 4.625 18.625 4.625 18.835938 4.75 18.898438 C 5.105469 19.054688 5.449219 19.03125 5.824219 19.011719 Z M 5.824219 19.011719 " fill-opacity="1" fill-rule="nonzero"/><path fill="#99c1b9" d="M 16.5 7.222656 C 16.777344 7.371094 17.082031 7.414062 17.390625 7.367188 C 17.992188 7.269531 18.445312 6.730469 18.476562 6.128906 C 18.503906 5.605469 18.203125 5.152344 17.757812 4.941406 C 17.722656 4.90625 17.691406 4.875 17.652344 4.851562 C 17.488281 4.734375 17.324219 4.675781 17.128906 4.65625 C 16.800781 4.613281 16.46875 4.675781 16.195312 4.875 C 15.945312 5.054688 15.75 5.320312 15.675781 5.617188 C 15.59375 5.9375 15.6875 6.257812 15.851562 6.535156 C 16.007812 6.800781 16.226562 7.070312 16.5 7.222656 Z M 16.382812 5.464844 C 16.484375 5.398438 16.558594 5.367188 16.6875 5.347656 C 16.691406 5.347656 16.703125 5.347656 16.710938 5.347656 C 16.75 5.347656 16.785156 5.339844 16.824219 5.335938 C 16.882812 5.332031 16.941406 5.335938 16.996094 5.339844 C 17.007812 5.347656 17.066406 5.351562 17.066406 5.351562 C 17.105469 5.359375 17.140625 5.375 17.175781 5.378906 C 17.257812 5.394531 17.324219 5.394531 17.367188 5.398438 C 17.488281 5.414062 17.636719 5.449219 17.757812 5.414062 C 17.898438 5.5625 17.992188 5.753906 18.007812 5.953125 C 18.035156 6.339844 17.800781 6.753906 17.425781 6.878906 C 16.996094 7.023438 16.605469 6.835938 16.34375 6.488281 C 16.210938 6.3125 16.066406 6.101562 16.097656 5.871094 C 16.140625 5.699219 16.253906 5.554688 16.382812 5.464844 Z M 16.382812 5.464844 " fill-opacity="1" fill-rule="nonzero"/><path fill="#99c1b9" d="M 18.921875 9.273438 C 18.820312 8.945312 18.65625 8.628906 18.425781 8.371094 C 17.976562 7.867188 17.1875 7.640625 16.542969 7.839844 C 15.824219 8.0625 15.46875 8.730469 15.34375 9.425781 C 15.28125 9.777344 15.117188 10.359375 15.507812 10.570312 C 15.65625 10.648438 15.839844 10.636719 16 10.644531 C 16.15625 10.648438 16.316406 10.652344 16.480469 10.652344 C 16.871094 10.664062 17.257812 10.667969 17.648438 10.679688 C 17.84375 10.683594 18.035156 10.691406 18.230469 10.691406 C 18.410156 10.695312 18.609375 10.726562 18.777344 10.660156 C 19.007812 10.570312 19.058594 10.332031 18.941406 10.167969 C 19.085938 9.902344 19.011719 9.570312 18.921875 9.273438 Z M 18.039062 9.992188 C 17.769531 9.984375 17.503906 9.976562 17.234375 9.964844 C 16.964844 9.957031 16.695312 9.949219 16.425781 9.941406 C 16.304688 9.933594 16.183594 9.929688 16.0625 9.929688 C 16.03125 9.929688 16 9.929688 15.96875 9.929688 C 15.972656 9.886719 15.972656 9.84375 15.976562 9.800781 C 15.988281 9.691406 16 9.582031 16.019531 9.46875 C 16.058594 9.257812 16.113281 9.042969 16.226562 8.855469 C 16.4375 8.496094 16.824219 8.34375 17.230469 8.386719 C 17.652344 8.429688 18.019531 8.6875 18.273438 9.027344 C 18.410156 9.210938 18.515625 9.417969 18.589844 9.632812 C 18.625 9.746094 18.664062 9.855469 18.699219 9.964844 C 18.710938 10.003906 18.726562 10.03125 18.742188 10.054688 C 18.53125 9.976562 18.265625 10.003906 18.039062 9.992188 Z M 18.039062 9.992188 " fill-opacity="1" fill-rule="nonzero"/><path fill="#99c1b9" d="M 9.324219 6.304688 C 9.460938 6.132812 9.652344 5.976562 9.878906 5.964844 C 10.105469 5.949219 10.296875 6.050781 10.492188 6.148438 C 10.558594 6.1875 10.65625 6.140625 10.65625 6.054688 C 10.648438 5.5 9.910156 5.347656 9.488281 5.496094 C 8.925781 5.691406 8.605469 6.21875 8.460938 6.769531 C 8.296875 7.390625 8.195312 8.136719 8.375 8.765625 C 8.53125 9.296875 8.921875 9.808594 9.476562 9.941406 C 9.761719 10.007812 10.074219 9.972656 10.335938 9.839844 C 10.589844 9.710938 10.871094 9.453125 10.859375 9.148438 C 10.855469 8.910156 10.550781 8.761719 10.375 8.945312 C 10.226562 9.101562 10.175781 9.257812 9.957031 9.320312 C 9.765625 9.378906 9.582031 9.34375 9.417969 9.238281 C 8.96875 8.941406 8.890625 8.347656 8.914062 7.859375 C 8.9375 7.351562 8.988281 6.714844 9.324219 6.304688 Z M 9.324219 6.304688 " fill-opacity="1" fill-rule="nonzero"/><path fill="#99c1b9" d="M 12.769531 9.738281 C 13.039062 9.0625 13.277344 8.375 13.472656 7.671875 C 13.566406 7.335938 13.65625 6.996094 13.738281 6.652344 C 13.773438 6.484375 13.816406 6.308594 13.847656 6.140625 C 13.882812 5.929688 13.875 5.808594 13.742188 5.636719 C 13.703125 5.589844 13.640625 5.558594 13.582031 5.59375 C 13.429688 5.683594 13.34375 5.773438 13.304688 5.949219 C 13.253906 6.128906 13.222656 6.320312 13.179688 6.5 C 13.101562 6.84375 13.011719 7.179688 12.917969 7.519531 C 12.800781 7.925781 12.667969 8.328125 12.53125 8.722656 C 12.261719 7.746094 11.980469 6.773438 11.628906 5.824219 C 11.554688 5.617188 11.261719 5.695312 11.300781 5.914062 C 11.527344 7.207031 11.871094 8.464844 12.214844 9.734375 C 12.292969 10.035156 12.667969 9.988281 12.769531 9.738281 Z M 12.769531 9.738281 " fill-opacity="1" fill-rule="nonzero"/><path fill="#99c1b9" d="M 4.914062 23.382812 C 5.214844 23.5625 5.554688 23.578125 5.898438 23.613281 C 6.277344 23.660156 6.664062 23.699219 7.042969 23.734375 C 7.367188 23.761719 7.695312 23.808594 8.023438 23.769531 C 8.355469 23.726562 8.589844 23.550781 8.882812 23.425781 C 9.382812 23.207031 9.921875 23.894531 10.40625 24.003906 C 10.878906 24.117188 11.425781 23.988281 11.722656 23.597656 C 11.777344 23.53125 11.675781 23.457031 11.613281 23.488281 C 11.335938 23.621094 11.058594 23.742188 10.746094 23.703125 C 10.417969 23.667969 10.183594 23.476562 9.9375 23.28125 C 9.566406 22.992188 9.191406 22.746094 8.695312 22.84375 C 8.417969 22.894531 8.195312 23.066406 7.910156 23.082031 C 7.59375 23.097656 7.265625 23.011719 6.953125 22.964844 C 6.621094 22.910156 6.292969 22.867188 5.960938 22.832031 C 5.628906 22.789062 5.3125 22.726562 4.988281 22.828125 C 4.734375 22.894531 4.683594 23.246094 4.914062 23.382812 Z M 4.914062 23.382812 " fill-opacity="1" fill-rule="nonzero"/><path fill="#99c1b9" d="M 18.5 25.679688 C 18.398438 25.703125 18.417969 25.835938 18.5 25.859375 C 18.820312 25.980469 19.144531 26.015625 19.480469 26.035156 C 19.820312 26.0625 20.160156 26.082031 20.503906 26.109375 C 20.597656 26.113281 20.683594 26.019531 20.683594 25.929688 C 20.675781 24.9375 20.617188 23.953125 20.464844 22.96875 C 20.445312 22.84375 20.226562 22.867188 20.238281 23 C 20.296875 23.910156 20.332031 24.824219 20.324219 25.734375 C 20.042969 25.707031 19.761719 25.679688 19.488281 25.660156 C 19.144531 25.628906 18.832031 25.613281 18.5 25.679688 Z M 18.5 25.679688 " fill-opacity="1" fill-rule="nonzero"/><path fill="#99c1b9" d="M 19.554688 3.570312 C 19.75 3.585938 19.949219 3.601562 20.144531 3.609375 C 20.148438 3.722656 20.148438 3.839844 20.148438 3.957031 C 20.152344 4.140625 20.152344 4.332031 20.160156 4.515625 C 20.164062 4.695312 20.164062 4.875 20.167969 5.054688 C 20.175781 5.234375 20.210938 5.410156 20.238281 5.589844 C 20.25 5.648438 20.347656 5.648438 20.359375 5.589844 C 20.390625 5.421875 20.433594 5.25 20.445312 5.082031 C 20.449219 4.902344 20.460938 4.722656 20.464844 4.542969 C 20.46875 4.363281 20.480469 4.183594 20.488281 4.003906 C 20.492188 3.828125 20.488281 3.644531 20.507812 3.46875 C 20.519531 3.375 20.488281 3.257812 20.375 3.238281 C 20.121094 3.183594 19.859375 3.179688 19.597656 3.160156 C 19.472656 3.148438 19.351562 3.136719 19.222656 3.148438 C 19.097656 3.164062 18.976562 3.195312 18.847656 3.234375 C 18.785156 3.25 18.761719 3.347656 18.828125 3.378906 C 18.933594 3.429688 19.03125 3.484375 19.148438 3.511719 C 19.285156 3.550781 19.417969 3.558594 19.554688 3.570312 Z M 19.554688 3.570312 " fill-opacity="1" fill-rule="nonzero"/><g clip-path="url(#43a73406eb)"><path fill="#99c1b9" d="M 2.109375 10.605469 C 2.082031 9.824219 2.113281 9.003906 1.988281 8.226562 C 1.976562 8.175781 1.890625 8.175781 1.878906 8.226562 C 1.769531 8.972656 1.808594 9.753906 1.796875 10.511719 C 1.78125 11.363281 1.78125 12.214844 1.773438 13.0625 C 1.765625 14.71875 1.675781 16.421875 1.800781 18.070312 C 1.824219 18.332031 2.203125 18.339844 2.21875 18.070312 C 2.320312 16.414062 2.203125 14.71875 2.167969 13.0625 C 2.148438 12.246094 2.132812 11.425781 2.109375 10.605469 Z M 2.109375 10.605469 " fill-opacity="1" fill-rule="nonzero"/></g><g clip-path="url(#2c8fe48a60)"><path fill="#99c1b9" d="M 2.050781 20.558594 C 2.042969 20.304688 2.027344 20.050781 2.019531 19.796875 C 2.007812 19.566406 2.019531 19.296875 1.949219 19.070312 C 1.929688 19 1.828125 18.996094 1.808594 19.070312 C 1.742188 19.296875 1.765625 19.558594 1.765625 19.796875 C 1.765625 20.050781 1.757812 20.304688 1.765625 20.558594 C 1.769531 20.8125 1.773438 21.066406 1.78125 21.320312 C 1.785156 21.503906 1.734375 21.789062 1.90625 21.90625 C 1.921875 21.917969 1.945312 21.917969 1.960938 21.90625 C 2.132812 21.78125 2.070312 21.503906 2.066406 21.320312 C 2.058594 21.066406 2.054688 20.8125 2.050781 20.558594 Z M 2.050781 20.558594 " fill-opacity="1" fill-rule="nonzero"/></g><path fill="#99c1b9" d="M 3.027344 4.316406 C 3.089844 4.261719 3.15625 4.199219 3.210938 4.140625 C 3.335938 4.027344 3.449219 3.910156 3.566406 3.789062 C 3.679688 3.671875 3.792969 3.554688 3.90625 3.4375 C 3.964844 3.375 4.015625 3.304688 4.070312 3.238281 C 4.117188 3.179688 4.164062 3.121094 4.179688 3.046875 C 4.183594 3.03125 4.167969 3.015625 4.152344 3.019531 C 4.078125 3.035156 4.019531 3.074219 3.957031 3.121094 C 3.890625 3.167969 3.820312 3.222656 3.75 3.273438 C 3.621094 3.378906 3.5 3.492188 3.371094 3.601562 C 3.25 3.707031 3.128906 3.8125 3.007812 3.929688 C 2.941406 3.988281 2.878906 4.046875 2.820312 4.105469 C 2.757812 4.167969 2.742188 4.230469 2.742188 4.320312 C 2.742188 4.359375 2.769531 4.386719 2.804688 4.386719 C 2.894531 4.390625 2.953125 4.375 3.027344 4.316406 Z M 3.027344 4.316406 " fill-opacity="1" fill-rule="nonzero"/><g clip-path="url(#60c370ebfd)"><path fill="#99c1b9" d="M 4.414062 2.777344 C 4.445312 2.773438 4.476562 2.773438 4.507812 2.765625 C 4.542969 2.757812 4.570312 2.734375 4.601562 2.714844 C 4.660156 2.675781 4.714844 2.636719 4.765625 2.597656 C 4.882812 2.515625 4.992188 2.417969 5.105469 2.324219 C 5.320312 2.144531 5.53125 1.957031 5.753906 1.789062 C 5.753906 1.789062 5.753906 1.789062 5.753906 1.785156 C 5.765625 1.777344 5.777344 1.773438 5.785156 1.769531 C 5.839844 1.722656 5.835938 1.632812 5.785156 1.578125 C 5.730469 1.519531 5.65625 1.53125 5.597656 1.578125 C 5.375 1.753906 5.15625 1.941406 4.945312 2.132812 C 4.839844 2.222656 4.734375 2.3125 4.632812 2.40625 C 4.585938 2.457031 4.535156 2.503906 4.488281 2.550781 C 4.460938 2.578125 4.429688 2.597656 4.40625 2.628906 C 4.386719 2.65625 4.378906 2.699219 4.363281 2.730469 C 4.355469 2.746094 4.386719 2.785156 4.414062 2.777344 Z M 4.414062 2.777344 " fill-opacity="1" fill-rule="nonzero"/></g></svg>