<svg xmlns="http://www.w3.org/2000/svg" xmlns:xlink="http://www.w3.org/1999/xlink" width="40" zoomAndPan="magnify" viewBox="0 0 30 30.000001" height="40" preserveAspectRatio="xMidYMid meet" version="1.0"><defs><clipPath id="8a9debb48f"><path d="M 2.226562 0 L 27.628906 0 L 27.628906 29.03125 L 2.226562 29.03125 Z M 2.226562 0 " clip-rule="nonzero"/></clipPath></defs><g clip-path="url(#8a9debb48f)"><path fill="#99c1b9" d="M 25.257812 0 L 9.238281 0 C 7.859375 0 6.734375 1.121094 6.734375 2.503906 L 6.734375 14.015625 L 2.730469 14.015625 C 2.457031 14.015625 2.230469 14.242188 2.230469 14.515625 L 2.230469 26.277344 C 2.230469 27.796875 3.46875 29.03125 4.984375 29.03125 L 25.257812 29.03125 C 26.636719 29.03125 27.757812 27.910156 27.757812 26.53125 L 27.757812 2.503906 C 27.757812 1.121094 26.636719 0 25.257812 0 Z M 6.734375 26.277344 C 6.734375 27.246094 5.949219 28.03125 4.984375 28.03125 C 4.019531 28.03125 3.230469 27.246094 3.230469 26.277344 L 3.230469 15.015625 L 6.734375 15.015625 Z M 17.769531 3.632812 L 20.339844 3.632812 C 20.617188 3.632812 20.84375 3.859375 20.84375 4.132812 C 20.84375 4.410156 20.617188 4.636719 20.339844 4.636719 L 17.769531 4.636719 C 17.492188 4.636719 17.269531 4.410156 17.269531 4.132812 C 17.269531 3.859375 17.488281 3.632812 17.769531 3.632812 Z M 17.769531 6.488281 L 24.742188 6.488281 C 25.015625 6.488281 25.242188 6.710938 25.242188 6.988281 C 25.242188 7.261719 25.015625 7.488281 24.742188 7.488281 L 17.769531 7.488281 C 17.492188 7.488281 17.269531 7.261719 17.269531 6.988281 C 17.269531 6.710938 17.488281 6.488281 17.769531 6.488281 Z M 9.070312 7.742188 C 9.328125 6.722656 10.023438 5.917969 10.929688 5.484375 C 10.605469 5.128906 10.398438 4.660156 10.398438 4.140625 C 10.398438 3.035156 11.300781 2.132812 12.40625 2.132812 C 13.515625 2.132812 14.414062 3.035156 14.414062 4.140625 C 14.414062 4.660156 14.210938 5.128906 13.882812 5.484375 C 14.800781 5.921875 15.507812 6.738281 15.757812 7.777344 C 15.78125 7.878906 15.769531 7.984375 15.734375 8.082031 C 15.714844 8.140625 15.6875 8.1875 15.644531 8.230469 C 14.824219 9.15625 13.648438 9.6875 12.40625 9.6875 C 11.175781 9.6875 10.003906 9.164062 9.1875 8.25 C 9.144531 8.203125 9.105469 8.144531 9.078125 8.082031 C 9.039062 7.972656 9.035156 7.855469 9.070312 7.742188 Z M 24.847656 25.242188 L 9.648438 25.242188 C 9.375 25.242188 9.148438 25.019531 9.148438 24.742188 C 9.148438 24.46875 9.375 24.242188 9.648438 24.242188 L 24.839844 24.242188 C 25.117188 24.242188 25.34375 24.46875 25.34375 24.742188 C 25.34375 25.019531 25.121094 25.242188 24.847656 25.242188 Z M 24.847656 22.023438 L 9.648438 22.023438 C 9.375 22.023438 9.148438 21.800781 9.148438 21.523438 C 9.148438 21.25 9.375 21.023438 9.648438 21.023438 L 24.839844 21.023438 C 25.117188 21.023438 25.34375 21.25 25.34375 21.523438 C 25.34375 21.800781 25.121094 22.023438 24.847656 22.023438 Z M 24.847656 18.804688 L 9.648438 18.804688 C 9.375 18.804688 9.148438 18.582031 9.148438 18.304688 C 9.148438 18.03125 9.375 17.804688 9.648438 17.804688 L 24.839844 17.804688 C 25.117188 17.804688 25.34375 18.03125 25.34375 18.304688 C 25.34375 18.582031 25.121094 18.804688 24.847656 18.804688 Z M 24.847656 15.585938 L 9.648438 15.585938 C 9.375 15.585938 9.148438 15.363281 9.148438 15.085938 C 9.148438 14.8125 9.375 14.585938 9.648438 14.585938 L 24.839844 14.585938 C 25.117188 14.585938 25.34375 14.8125 25.34375 15.085938 C 25.34375 15.363281 25.121094 15.585938 24.847656 15.585938 Z M 24.847656 12.367188 L 9.648438 12.367188 C 9.375 12.367188 9.148438 12.144531 9.148438 11.867188 C 9.148438 11.59375 9.375 11.367188 9.648438 11.367188 L 24.839844 11.367188 C 25.117188 11.367188 25.34375 11.59375 25.34375 11.867188 C 25.34375 12.144531 25.121094 12.367188 24.847656 12.367188 Z M 24.847656 12.367188 " fill-opacity="1" fill-rule="nonzero"/></g></svg>