<svg xmlns="http://www.w3.org/2000/svg" xmlns:xlink="http://www.w3.org/1999/xlink" width="40" zoomAndPan="magnify" viewBox="0 0 30 30.000001" height="40" preserveAspectRatio="xMidYMid meet" version="1.0"><defs><clipPath id="03096ca41e"><path d="M 0.484375 8 L 29.515625 8 L 29.515625 24.570312 L 0.484375 24.570312 Z M 0.484375 8 " clip-rule="nonzero"/></clipPath><clipPath id="9e2da971ef"><path d="M 13 4.246094 L 17 4.246094 L 17 8 L 13 8 Z M 13 4.246094 " clip-rule="nonzero"/></clipPath></defs><path fill="#8e7dbe" d="M 2.957031 13.613281 L 5.929688 13.613281 L 5.929688 10.910156 L 2.957031 10.910156 Z M 2.957031 13.613281 " fill-opacity="1" fill-rule="nonzero"/><g clip-path="url(#03096ca41e)"><path fill="#8e7dbe" d="M 29.132812 13.359375 C 29.203125 13.246094 29.429688 12.761719 29.515625 12.582031 L 28.917969 12.175781 L 28.917969 12.179688 C 28.269531 11.738281 26.777344 11.578125 25.628906 11.796875 C 25.480469 10.703125 24.878906 9.75 23.78125 8.894531 L 23.152344 8.472656 L 22.734375 9.109375 C 21.90625 10.375 21.679688 12.457031 22.566406 13.832031 C 22.175781 14.046875 21.40625 14.339844 20.390625 14.320312 L 0.835938 14.320312 C 0.445312 16.632812 1.097656 19.636719 2.816406 21.699219 C 4.480469 23.699219 6.984375 24.710938 10.253906 24.710938 C 17.335938 24.710938 22.574219 21.414062 25.027344 15.417969 C 25.988281 15.4375 28.066406 15.421875 29.132812 13.359375 Z M 29.132812 13.359375 " fill-opacity="1" fill-rule="nonzero"/></g><path fill="#8e7dbe" d="M 6.464844 10.910156 L 9.441406 10.910156 L 9.441406 13.613281 L 6.464844 13.613281 Z M 6.464844 10.910156 " fill-opacity="1" fill-rule="nonzero"/><path fill="#8e7dbe" d="M 9.980469 10.910156 L 12.953125 10.910156 L 12.953125 13.613281 L 9.980469 13.613281 Z M 9.980469 10.910156 " fill-opacity="1" fill-rule="nonzero"/><path fill="#8e7dbe" d="M 17.011719 10.910156 L 19.984375 10.910156 L 19.984375 13.613281 L 17.011719 13.613281 Z M 17.011719 10.910156 " fill-opacity="1" fill-rule="nonzero"/><path fill="#8e7dbe" d="M 6.464844 7.625 L 9.441406 7.625 L 9.441406 10.363281 L 6.464844 10.363281 Z M 6.464844 7.625 " fill-opacity="1" fill-rule="nonzero"/><path fill="#8e7dbe" d="M 13.492188 10.914062 L 16.464844 10.914062 L 16.464844 13.617188 L 13.492188 13.617188 Z M 13.492188 10.914062 " fill-opacity="1" fill-rule="nonzero"/><path fill="#8e7dbe" d="M 13.492188 7.625 L 16.464844 7.625 L 16.464844 10.363281 L 13.492188 10.363281 Z M 13.492188 7.625 " fill-opacity="1" fill-rule="nonzero"/><g clip-path="url(#9e2da971ef)"><path fill="#8e7dbe" d="M 13.492188 4.316406 L 16.464844 4.316406 L 16.464844 7.082031 L 13.492188 7.082031 Z M 13.492188 4.316406 " fill-opacity="1" fill-rule="nonzero"/></g><path fill="#8e7dbe" d="M 9.980469 7.625 L 12.953125 7.625 L 12.953125 10.363281 L 9.980469 10.363281 Z M 9.980469 7.625 " fill-opacity="1" fill-rule="nonzero"/></svg>