<svg xmlns="http://www.w3.org/2000/svg" xmlns:xlink="http://www.w3.org/1999/xlink" width="40" zoomAndPan="magnify" viewBox="0 0 30 30.000001" height="40" preserveAspectRatio="xMidYMid meet" version="1.0"><defs><clipPath id="3be76de5b1"><path d="M 5.289062 0 L 24.886719 0 L 24.886719 13 L 5.289062 13 Z M 5.289062 0 " clip-rule="nonzero"/></clipPath><clipPath id="f132acebc0"><path d="M 5.289062 16 L 24.886719 16 L 24.886719 29.03125 L 5.289062 29.03125 Z M 5.289062 16 " clip-rule="nonzero"/></clipPath><clipPath id="041a2ce884"><path d="M 5.289062 8 L 24.886719 8 L 24.886719 21 L 5.289062 21 Z M 5.289062 8 " clip-rule="nonzero"/></clipPath></defs><g clip-path="url(#3be76de5b1)"><path fill="#8e7dbe" d="M 15.003906 5.796875 C 11.8125 7.871094 8.664062 9.914062 5.339844 12.074219 C 5.339844 11.128906 5.339844 10.371094 5.339844 9.617188 C 5.339844 8.707031 5.367188 7.800781 5.335938 6.890625 C 5.316406 6.429688 5.480469 6.15625 5.863281 5.90625 C 8.890625 3.960938 11.902344 1.992188 14.96875 0 C 15.183594 0.121094 15.417969 0.234375 15.636719 0.375 C 18.429688 2.191406 21.210938 4.023438 24.015625 5.816406 C 24.492188 6.125 24.707031 6.441406 24.691406 7.027344 C 24.648438 8.636719 24.675781 10.25 24.675781 12.035156 C 21.367188 9.988281 18.269531 7.867188 15.003906 5.796875 Z M 15.003906 5.796875 " fill-opacity="1" fill-rule="nonzero"/></g><g clip-path="url(#f132acebc0)"><path fill="#8e7dbe" d="M 24.679688 29.03125 C 21.359375 26.871094 18.210938 24.824219 15.011719 22.742188 C 11.835938 24.804688 8.6875 26.855469 5.390625 28.996094 C 5.292969 27.945312 5.363281 27.027344 5.347656 26.113281 C 5.332031 25.171875 5.34375 24.230469 5.34375 23.214844 C 8.542969 21.128906 11.753906 19.039062 15.003906 16.921875 C 15.984375 17.558594 16.9375 18.179688 17.894531 18.800781 C 19.953125 20.140625 22.003906 21.496094 24.078125 22.808594 C 24.535156 23.097656 24.703125 23.421875 24.691406 23.953125 C 24.660156 25.570312 24.679688 27.183594 24.679688 29.03125 Z M 24.679688 29.03125 " fill-opacity="1" fill-rule="nonzero"/></g><g clip-path="url(#041a2ce884)"><path fill="#8e7dbe" d="M 14.90625 14.332031 C 11.785156 16.363281 8.660156 18.394531 5.390625 20.519531 C 5.300781 19.464844 5.351562 18.546875 5.347656 17.632812 C 5.339844 16.691406 5.34375 15.75 5.34375 14.738281 C 8.546875 12.65625 11.753906 10.566406 15.007812 8.445312 C 18.234375 10.546875 21.445312 12.636719 24.652344 14.722656 C 24.652344 16.617188 24.652344 18.464844 24.652344 20.296875 C 24.605469 20.328125 24.585938 20.347656 24.558594 20.359375 C 24.527344 20.371094 24.488281 20.382812 24.460938 20.375 C 24.398438 20.355469 24.332031 20.332031 24.277344 20.292969 C 21.226562 18.320312 18.175781 16.34375 15.125 14.371094 C 15.101562 14.355469 15.0625 14.359375 14.90625 14.332031 Z M 14.90625 14.332031 " fill-opacity="1" fill-rule="nonzero"/></g></svg>