<svg xmlns="http://www.w3.org/2000/svg" xmlns:xlink="http://www.w3.org/1999/xlink" width="40" zoomAndPan="magnify" viewBox="0 0 30 30.000001" height="40" preserveAspectRatio="xMidYMid meet" version="1.0"><defs><clipPath id="13403bd28f"><path d="M 1 1.050781 L 28.984375 1.050781 L 28.984375 27.90625 L 1 27.90625 Z M 1 1.050781 " clip-rule="nonzero"/></clipPath></defs><g clip-path="url(#13403bd28f)"><path fill="#99c1b9" d="M 13.226562 1.828125 C 7.15625 2.503906 2.207031 7.402344 1.472656 13.464844 C 1.378906 14.230469 1.347656 14.996094 1.386719 15.761719 C 1.421875 16.53125 1.523438 17.289062 1.691406 18.039062 C 1.859375 18.792969 2.089844 19.523438 2.382812 20.234375 C 2.671875 20.945312 3.023438 21.625 3.433594 22.277344 C 3.84375 22.925781 4.304688 23.539062 4.820312 24.109375 C 5.335938 24.679688 5.894531 25.203125 6.5 25.679688 C 7.105469 26.15625 7.746094 26.574219 8.421875 26.941406 C 9.097656 27.304688 9.800781 27.609375 10.53125 27.855469 C 11.199219 27.960938 11.414062 27.546875 11.414062 27.1875 L 11.414062 24.921875 C 7.707031 25.726562 6.917969 23.128906 6.917969 23.128906 C 6.300781 21.574219 5.429688 21.160156 5.429688 21.160156 C 4.210938 20.328125 5.523438 20.355469 5.523438 20.355469 C 6.863281 20.453125 7.574219 21.734375 7.574219 21.734375 C 8.738281 23.769531 10.707031 23.167969 11.46875 22.847656 C 11.589844 21.976562 11.941406 21.386719 12.3125 21.050781 C 9.335938 20.71875 6.21875 19.566406 6.21875 14.464844 C 6.21875 12.976562 6.726562 11.785156 7.597656 10.835938 C 7.464844 10.5 6.996094 9.109375 7.730469 7.300781 C 7.730469 7.300781 8.859375 6.9375 11.414062 8.667969 C 13.648438 8.066406 15.878906 8.066406 18.109375 8.667969 C 20.667969 6.9375 21.792969 7.300781 21.792969 7.300781 C 22.527344 9.109375 22.058594 10.5 21.925781 10.835938 C 22.796875 11.785156 23.304688 12.976562 23.304688 14.464844 C 23.304688 19.578125 20.171875 20.703125 17.1875 21.039062 C 17.667969 21.453125 18.109375 22.273438 18.109375 23.515625 L 18.109375 27.1875 C 18.109375 27.546875 18.324219 27.976562 19.007812 27.855469 C 19.785156 27.59375 20.535156 27.265625 21.253906 26.867188 C 21.96875 26.46875 22.644531 26.007812 23.277344 25.484375 C 23.914062 24.960938 24.492188 24.386719 25.019531 23.757812 C 25.546875 23.128906 26.011719 22.457031 26.417969 21.742188 C 26.820312 21.027344 27.15625 20.28125 27.425781 19.503906 C 27.691406 18.730469 27.886719 17.933594 28.007812 17.121094 C 28.128906 16.308594 28.171875 15.492188 28.144531 14.671875 C 28.117188 13.851562 28.011719 13.042969 27.832031 12.242188 C 27.65625 11.4375 27.40625 10.660156 27.085938 9.90625 C 26.765625 9.148438 26.378906 8.429688 25.921875 7.746094 C 25.46875 7.058594 24.957031 6.421875 24.386719 5.832031 C 23.816406 5.242188 23.199219 4.707031 22.527344 4.230469 C 21.859375 3.753906 21.152344 3.34375 20.410156 2.996094 C 19.664062 2.648438 18.894531 2.375 18.101562 2.167969 C 17.304688 1.964844 16.5 1.832031 15.679688 1.773438 C 14.859375 1.71875 14.042969 1.734375 13.226562 1.828125 Z M 13.226562 1.828125 " fill-opacity="1" fill-rule="nonzero"/></g></svg>