<svg xmlns="http://www.w3.org/2000/svg" xmlns:xlink="http://www.w3.org/1999/xlink" width="40" zoomAndPan="magnify" viewBox="0 0 30 30.000001" height="40" preserveAspectRatio="xMidYMid meet" version="1.0"><defs><clipPath id="9a5a909c41"><path d="M 0.484375 0 L 26.613281 0 L 26.613281 29.03125 L 0.484375 29.03125 Z M 0.484375 0 " clip-rule="nonzero"/></clipPath></defs><g clip-path="url(#9a5a909c41)"><path fill="#8e7dbe" d="M 26.460938 0 L 0.488281 0 L 2.777344 25.976562 L 13.476562 29.03125 L 24.171875 25.976562 Z M 26.460938 0 " fill-opacity="1" fill-rule="nonzero"/></g><path fill="#ffffff" d="M 13.476562 2.292969 L 13.476562 26.664062 L 22.03125 24.21875 L 23.941406 2.292969 Z M 13.476562 2.292969 " fill-opacity="1" fill-rule="nonzero"/><path fill="#aeb2d5" d="M 20.425781 6.113281 L 13.476562 6.113281 L 13.476562 9.167969 L 17.21875 9.167969 L 16.988281 12.222656 L 13.476562 12.222656 L 13.476562 15.28125 L 16.835938 15.28125 L 16.605469 18.71875 L 13.476562 19.789062 L 13.476562 22.996094 L 19.511719 21.011719 L 20.046875 12.222656 Z M 20.425781 6.113281 " fill-opacity="1" fill-rule="nonzero"/><path fill="#ffffff" d="M 13.476562 6.113281 L 13.476562 9.167969 L 6.675781 9.167969 L 6.445312 6.113281 Z M 9.960938 12.222656 L 10.113281 15.28125 L 13.476562 15.28125 L 13.476562 12.222656 Z M 10.265625 16.808594 L 7.210938 16.808594 L 7.4375 21.011719 L 13.476562 22.996094 L 13.476562 19.789062 L 10.34375 18.71875 Z M 10.265625 16.808594 " fill-opacity="1" fill-rule="nonzero"/></svg>