<svg xmlns="http://www.w3.org/2000/svg" xmlns:xlink="http://www.w3.org/1999/xlink" width="40" zoomAndPan="magnify" viewBox="0 0 30 30.000001" height="40" preserveAspectRatio="xMidYMid meet" version="1.0"><defs><clipPath id="4bf9b8444d"><path d="M 17 22 L 29.515625 22 L 29.515625 29 L 17 29 Z M 17 22 " clip-rule="nonzero"/></clipPath><clipPath id="73ccb38786"><path d="M 19 1 L 29.515625 1 L 29.515625 18 L 19 18 Z M 19 1 " clip-rule="nonzero"/></clipPath><clipPath id="ca5d3e4cf5"><path d="M 0.484375 11 L 29.515625 11 L 29.515625 20 L 0.484375 20 Z M 0.484375 11 " clip-rule="nonzero"/></clipPath><clipPath id="1a5c5f52d0"><path d="M 0.484375 5 L 15 5 L 15 29 L 0.484375 29 Z M 0.484375 5 " clip-rule="nonzero"/></clipPath><clipPath id="d5c229c727"><path d="M 0.484375 0 L 29.515625 0 L 29.515625 29 L 0.484375 29 Z M 0.484375 0 " clip-rule="nonzero"/></clipPath></defs><g clip-path="url(#4bf9b8444d)"><path fill="#8e7dbe" d="M 18 28.914062 C 17.640625 28.914062 17.300781 28.695312 17.164062 28.34375 C 16.980469 27.878906 17.207031 27.359375 17.667969 27.175781 L 28.167969 23.023438 C 28.625 22.839844 29.152344 23.066406 29.332031 23.53125 C 29.515625 23.992188 29.289062 24.515625 28.828125 24.699219 L 18.332031 28.847656 C 18.222656 28.890625 18.109375 28.914062 18 28.914062 Z M 18 28.914062 " fill-opacity="1" fill-rule="nonzero"/></g><g clip-path="url(#73ccb38786)"><path fill="#8e7dbe" d="M 28.496094 17.167969 C 28.21875 17.167969 27.941406 17.035156 27.765625 16.789062 L 19.292969 4.839844 C 19.113281 4.585938 19.078125 4.261719 19.195312 3.976562 C 19.308594 3.691406 19.566406 3.488281 19.867188 3.433594 L 28.132812 1.933594 C 28.503906 1.871094 28.859375 2.03125 29.058594 2.339844 L 29.238281 2.628906 C 29.5 3.050781 29.371094 3.605469 28.953125 3.871094 C 28.617188 4.082031 28.195312 4.042969 27.90625 3.804688 L 21.578125 4.953125 L 29.230469 15.746094 C 29.519531 16.148438 29.425781 16.710938 29.019531 17 C 28.859375 17.113281 28.675781 17.167969 28.496094 17.167969 Z M 28.496094 17.167969 " fill-opacity="1" fill-rule="nonzero"/></g><g clip-path="url(#ca5d3e4cf5)"><path fill="#8e7dbe" d="M 1.503906 19.746094 C 1.101562 19.746094 0.734375 19.472656 0.628906 19.066406 C 0.507812 18.585938 0.804688 18.09375 1.285156 17.976562 L 7.402344 16.4375 L 28.277344 11.039062 C 28.753906 10.917969 29.25 11.214844 29.367188 11.695312 C 29.488281 12.175781 29.195312 12.667969 28.714844 12.785156 L 26.074219 13.445312 L 1.722656 19.71875 C 1.648438 19.738281 1.574219 19.746094 1.503906 19.746094 Z M 1.503906 19.746094 " fill-opacity="1" fill-rule="nonzero"/></g><g clip-path="url(#1a5c5f52d0)"><path fill="#8e7dbe" d="M 13.789062 28.914062 C 13.476562 28.914062 13.175781 28.75 13.007812 28.460938 L 0.726562 7.144531 C 0.476562 6.714844 0.625 6.164062 1.054688 5.914062 C 1.480469 5.664062 2.035156 5.816406 2.28125 6.246094 L 14.566406 27.5625 C 14.816406 27.992188 14.667969 28.542969 14.238281 28.792969 C 14.097656 28.875 13.941406 28.914062 13.789062 28.914062 Z M 13.789062 28.914062 " fill-opacity="1" fill-rule="nonzero"/></g><g clip-path="url(#d5c229c727)"><path fill="#8e7dbe" d="M 26.097656 28.914062 L 3.902344 28.914062 C 2.082031 28.914062 0.605469 27.433594 0.605469 25.613281 L 0.605469 3.417969 C 0.605469 1.597656 2.082031 0.121094 3.902344 0.121094 L 26.097656 0.121094 C 27.742188 0.121094 29.148438 1.351562 29.363281 2.988281 C 29.382812 3.128906 29.394531 3.273438 29.394531 3.417969 L 29.394531 25.613281 C 29.394531 27.433594 27.917969 28.914062 26.097656 28.914062 Z M 3.902344 1.917969 C 3.078125 1.917969 2.402344 2.59375 2.402344 3.417969 L 2.402344 25.613281 C 2.402344 26.441406 3.078125 27.113281 3.902344 27.113281 L 26.097656 27.113281 C 26.921875 27.113281 27.597656 26.441406 27.597656 25.613281 L 27.597656 3.417969 C 27.597656 3.347656 27.585938 3.277344 27.578125 3.214844 C 27.480469 2.480469 26.84375 1.917969 26.097656 1.917969 Z M 3.902344 1.917969 " fill-opacity="1" fill-rule="nonzero"/></g></svg>