<svg xmlns="http://www.w3.org/2000/svg" xmlns:xlink="http://www.w3.org/1999/xlink" width="40" zoomAndPan="magnify" viewBox="0 0 30 30.000001" height="40" preserveAspectRatio="xMidYMid meet" version="1.0"><defs><clipPath id="1dce84a49d"><path d="M 1.933594 1.453125 L 28.066406 1.453125 L 28.066406 27.582031 L 1.933594 27.582031 Z M 1.933594 1.453125 " clip-rule="nonzero"/></clipPath></defs><g clip-path="url(#1dce84a49d)"><path fill="#e0aaff" d="M 25.882812 1.453125 L 4.132812 1.453125 C 2.929688 1.453125 1.960938 2.433594 1.960938 3.621094 L 1.960938 25.410156 C 1.960938 26.613281 2.941406 27.582031 4.132812 27.582031 L 25.867188 27.582031 C 27.070312 27.582031 28.039062 26.601562 28.039062 25.410156 L 28.039062 3.621094 C 28.050781 2.433594 27.085938 1.453125 25.882812 1.453125 Z M 9.6875 23.003906 L 5.832031 23.003906 L 5.832031 11.425781 L 9.6875 11.425781 Z M 7.753906 10.027344 C 6.535156 10.027344 5.554688 9.046875 5.554688 7.832031 C 5.554688 6.613281 6.535156 5.632812 7.753906 5.632812 C 8.96875 5.632812 9.949219 6.613281 9.949219 7.832031 C 9.949219 9.046875 8.96875 10.027344 7.753906 10.027344 Z M 24.195312 23.003906 L 20.328125 23.003906 L 20.234375 16.128906 C 20.234375 16.128906 20.328125 14.300781 18.328125 14.3125 C 16.328125 14.328125 16.050781 16.128906 16.050781 16.128906 L 16.050781 23.003906 L 12.15625 23.003906 L 12.15625 11.425781 L 15.894531 11.425781 L 15.894531 13.019531 C 15.894531 13.019531 16.050781 12.496094 16.914062 11.882812 C 17.777344 11.269531 19.203125 11.136719 19.816406 11.164062 C 20.429688 11.191406 21.265625 11.085938 22.667969 12.050781 C 24.167969 13.085938 24.207031 15.789062 24.207031 15.789062 Z M 24.195312 23.003906 " fill-opacity="1" fill-rule="nonzero"/></g></svg>