<svg xmlns="http://www.w3.org/2000/svg" xmlns:xlink="http://www.w3.org/1999/xlink" width="40" zoomAndPan="magnify" viewBox="0 0 30 30.000001" height="40" preserveAspectRatio="xMidYMid meet" version="1.0"><defs><clipPath id="7bf190a485"><path d="M 0.484375 5.28125 L 29.515625 5.28125 L 29.515625 23.425781 L 0.484375 23.425781 Z M 0.484375 5.28125 " clip-rule="nonzero"/></clipPath></defs><g clip-path="url(#7bf190a485)"><path fill="#8e7dbe" d="M 4.121094 5.28125 C 2.128906 5.28125 0.492188 6.914062 0.492188 8.90625 L 0.492188 20.117188 C 0.492188 22.109375 2.128906 23.742188 4.121094 23.742188 L 5.136719 23.742188 C 5.269531 23.746094 5.398438 23.722656 5.519531 23.671875 C 5.644531 23.621094 5.75 23.550781 5.847656 23.457031 C 5.941406 23.367188 6.011719 23.257812 6.0625 23.136719 C 6.113281 23.011719 6.140625 22.886719 6.140625 22.753906 C 6.140625 22.621094 6.113281 22.496094 6.0625 22.371094 C 6.011719 22.25 5.941406 22.140625 5.847656 22.050781 C 5.75 21.957031 5.644531 21.886719 5.519531 21.835938 C 5.398438 21.785156 5.269531 21.761719 5.136719 21.765625 L 4.121094 21.765625 C 3.199219 21.765625 2.472656 21.039062 2.472656 20.117188 L 2.472656 8.90625 C 2.472656 7.984375 3.199219 7.257812 4.121094 7.257812 L 18.296875 7.257812 C 18.429688 7.261719 18.558594 7.238281 18.679688 7.1875 C 18.800781 7.136719 18.910156 7.066406 19.003906 6.972656 C 19.101562 6.878906 19.171875 6.773438 19.222656 6.652344 C 19.273438 6.527344 19.300781 6.402344 19.300781 6.269531 C 19.300781 6.136719 19.273438 6.007812 19.222656 5.886719 C 19.171875 5.765625 19.101562 5.65625 19.003906 5.566406 C 18.910156 5.472656 18.800781 5.402344 18.679688 5.351562 C 18.558594 5.300781 18.429688 5.277344 18.296875 5.28125 Z M 23.460938 5.28125 C 23.328125 5.277344 23.199219 5.300781 23.078125 5.351562 C 22.953125 5.402344 22.847656 5.472656 22.75 5.566406 C 22.65625 5.65625 22.585938 5.765625 22.535156 5.886719 C 22.480469 6.007812 22.457031 6.136719 22.457031 6.269531 C 22.457031 6.402344 22.480469 6.527344 22.535156 6.652344 C 22.585938 6.773438 22.65625 6.878906 22.75 6.972656 C 22.847656 7.066406 22.953125 7.136719 23.078125 7.1875 C 23.199219 7.238281 23.328125 7.261719 23.460938 7.257812 L 25.878906 7.257812 C 26.800781 7.257812 27.527344 7.984375 27.527344 8.90625 L 27.527344 20.117188 C 27.527344 21.039062 26.800781 21.765625 25.878906 21.765625 L 9.964844 21.765625 C 9.832031 21.761719 9.703125 21.785156 9.582031 21.835938 C 9.457031 21.886719 9.347656 21.957031 9.253906 22.050781 C 9.160156 22.140625 9.085938 22.25 9.035156 22.371094 C 8.984375 22.496094 8.960938 22.621094 8.960938 22.753906 C 8.960938 22.886719 8.984375 23.011719 9.035156 23.136719 C 9.085938 23.257812 9.160156 23.367188 9.253906 23.457031 C 9.347656 23.550781 9.457031 23.621094 9.582031 23.671875 C 9.703125 23.722656 9.832031 23.746094 9.964844 23.742188 L 25.878906 23.742188 C 27.871094 23.742188 29.507812 22.109375 29.507812 20.117188 L 29.507812 8.90625 C 29.507812 6.914062 27.871094 5.28125 25.878906 5.28125 Z M 15.414062 11.875 C 14.503906 11.875 13.761719 12.613281 13.761719 13.523438 C 13.761719 14.429688 14.503906 15.171875 15.414062 15.171875 L 15.988281 15.171875 C 16.171875 15.171875 16.320312 15.320312 16.320312 15.5 C 16.320312 15.683594 16.171875 15.832031 15.988281 15.832031 L 15.269531 15.832031 C 15.042969 15.832031 14.859375 15.664062 14.808594 15.613281 C 14.550781 15.355469 14.132812 15.355469 13.875 15.613281 C 13.617188 15.871094 13.617188 16.285156 13.875 16.542969 C 14.054688 16.726562 14.554688 17.148438 15.269531 17.148438 L 15.988281 17.148438 C 16.898438 17.148438 17.636719 16.410156 17.636719 15.5 C 17.636719 14.59375 16.898438 13.851562 15.988281 13.851562 L 15.414062 13.851562 C 15.230469 13.851562 15.082031 13.703125 15.082031 13.523438 C 15.082031 13.339844 15.230469 13.191406 15.414062 13.191406 L 15.988281 13.191406 C 16.191406 13.191406 16.347656 13.328125 16.347656 13.328125 C 16.605469 13.585938 17.023438 13.585938 17.28125 13.328125 C 17.539062 13.070312 17.539062 12.65625 17.28125 12.398438 C 17.226562 12.34375 16.734375 11.875 15.988281 11.875 Z M 20.605469 11.875 C 19.332031 11.875 18.296875 13.058594 18.296875 14.511719 C 18.296875 15.964844 19.332031 17.148438 20.605469 17.148438 C 20.992188 17.148438 21.347656 17.03125 21.667969 16.835938 L 21.785156 16.957031 C 21.914062 17.085938 22.085938 17.148438 22.253906 17.148438 C 22.421875 17.148438 22.589844 17.085938 22.71875 16.957031 C 22.976562 16.699219 22.976562 16.28125 22.71875 16.023438 L 22.570312 15.875 C 22.78125 15.476562 22.914062 15.011719 22.914062 14.511719 C 22.914062 13.058594 21.878906 11.875 20.605469 11.875 Z M 24.230469 11.875 C 23.867188 11.875 23.570312 12.167969 23.570312 12.535156 L 23.570312 16.488281 C 23.570312 16.855469 23.867188 17.148438 24.230469 17.148438 L 26.210938 17.148438 C 26.574219 17.148438 26.867188 16.855469 26.867188 16.488281 C 26.867188 16.125 26.574219 15.832031 26.210938 15.832031 L 24.890625 15.832031 L 24.890625 12.535156 C 24.890625 12.167969 24.59375 11.875 24.230469 11.875 Z M 4.425781 11.875 C 4.359375 11.878906 4.292969 11.890625 4.226562 11.914062 C 3.964844 12.007812 3.789062 12.253906 3.789062 12.535156 L 3.789062 16.488281 C 3.789062 16.855469 4.085938 17.148438 4.449219 17.148438 C 4.8125 17.148438 5.109375 16.855469 5.109375 16.488281 L 5.109375 14.355469 L 5.59375 14.933594 C 5.84375 15.234375 6.355469 15.234375 6.605469 14.933594 L 7.085938 14.355469 L 7.085938 16.488281 C 7.085938 16.855469 7.382812 17.148438 7.746094 17.148438 C 8.109375 17.148438 8.40625 16.855469 8.40625 16.488281 L 8.40625 12.535156 C 8.40625 12.253906 8.230469 12.007812 7.972656 11.914062 C 7.710938 11.820312 7.417969 11.898438 7.242188 12.109375 L 6.097656 13.480469 L 4.957031 12.109375 C 4.824219 11.953125 4.625 11.867188 4.425781 11.875 Z M 20.605469 13.191406 C 21.140625 13.191406 21.59375 13.796875 21.59375 14.511719 C 21.59375 15.226562 21.140625 15.832031 20.605469 15.832031 C 20.070312 15.832031 19.617188 15.226562 19.617188 14.511719 C 19.617188 13.796875 20.070312 13.191406 20.605469 13.191406 Z M 9.683594 13.851562 C 9.597656 13.859375 9.511719 13.882812 9.429688 13.921875 C 9.105469 14.085938 8.972656 14.480469 9.136719 14.804688 L 10.304688 17.148438 L 9.792969 18.171875 C 9.632812 18.5 9.761719 18.894531 10.089844 19.058594 C 10.183594 19.105469 10.285156 19.128906 10.382812 19.128906 C 10.625 19.128906 10.859375 18.996094 10.972656 18.761719 L 12.953125 14.804688 C 13.113281 14.480469 12.984375 14.085938 12.65625 13.921875 C 12.332031 13.757812 11.9375 13.890625 11.773438 14.214844 L 11.042969 15.675781 L 10.316406 14.214844 C 10.191406 13.972656 9.9375 13.835938 9.683594 13.851562 Z M 9.683594 13.851562 " fill-opacity="1" fill-rule="nonzero"/></g></svg>