<svg xmlns="http://www.w3.org/2000/svg" xmlns:xlink="http://www.w3.org/1999/xlink" width="1080" zoomAndPan="magnify" viewBox="0 0 810 809.999993" height="1080" preserveAspectRatio="xMidYMid meet" version="1.0"><defs><clipPath id="80a7888631"><path d="M 214.660156 223.65625 L 405 223.65625 L 405 405 L 214.660156 405 Z M 214.660156 223.65625 " clip-rule="nonzero"/></clipPath><clipPath id="2415c5abcb"><path d="M 214.660156 223.65625 L 405 223.65625 L 405 405 L 214.660156 405 Z M 214.660156 223.65625 " clip-rule="nonzero"/></clipPath></defs><g clip-path="url(#80a7888631)"><path fill="#f2d0a9" d="M 404.183594 237.082031 L 402.628906 349.675781 C 402.621094 349.691406 402.613281 349.710938 402.601562 349.726562 L 402.601562 349.847656 C 402.539062 349.988281 400.964844 353.621094 397.789062 354.660156 C 396.792969 354.992188 384.988281 357.960938 369.367188 361.839844 L 368.332031 366.292969 L 368.175781 366.328125 L 355.035156 369.503906 C 360.859375 371.390625 368.15625 374.066406 371.125 376.449219 C 376.386719 380.667969 373.972656 386.542969 373.949219 386.605469 L 373.898438 386.726562 L 373.773438 386.753906 L 301.148438 404.921875 L 301.074219 404.894531 L 249.5 384.472656 L 249.8125 384.191406 C 249.8125 384.191406 250.28125 383.746094 250.640625 382.191406 C 251.042969 380.476562 253.824219 377.636719 253.941406 377.515625 L 254.003906 377.46875 L 259.601562 374.617188 L 255.542969 373.285156 L 255.28125 373.199219 L 255.28125 359.851562 L 240.910156 356.492188 L 223.230469 330.300781 L 223.230469 309.457031 L 214.960938 307.058594 L 214.960938 242.054688 C 214.96875 241.925781 215.246094 239.464844 219.5 237.878906 C 223.613281 236.320312 300.050781 224.378906 303.300781 223.859375 L 303.402344 223.859375 L 337.695312 232.902344 L 376.527344 227.046875 L 376.574219 227.046875 L 402.105469 233.6875 L 402.015625 233.796875 C 402.597656 234.003906 403.113281 234.347656 403.527344 234.804688 C 403.539062 234.820312 403.546875 234.832031 403.558594 234.847656 C 403.605469 234.890625 403.648438 234.929688 403.6875 234.972656 C 404.167969 235.566406 404.347656 236.339844 404.183594 237.082031 Z M 404.183594 237.082031 " fill-opacity="1" fill-rule="nonzero"/></g><path fill="#99c1b9" d="M 376.945312 227.402344 L 339.253906 233.046875 L 338.808594 233.113281 L 338.015625 233.230469 L 338.105469 233.230469 L 338.890625 233.136719 L 339.332031 233.070312 L 354.898438 237.171875 L 354.894531 237.1875 L 339.363281 233.101562 L 338.9375 233.167969 L 338.890625 233.15625 L 338.105469 233.273438 L 337.957031 233.273438 L 321.640625 235.726562 L 321.59375 235.710938 L 259.722656 245.015625 L 259.636719 245.058594 C 258.566406 245.796875 257.644531 246.730469 256.933594 247.816406 L 269.195312 251.085938 L 271.839844 251.792969 L 279.925781 253.949219 C 280.246094 253.417969 280.777344 253.042969 281.382812 252.914062 L 350.6875 241.421875 L 350.71875 241.390625 L 399.609375 233.28125 L 399.664062 233.296875 L 399.738281 233.296875 Z M 354.832031 237.648438 L 354.824219 237.65625 L 354.828125 237.648438 Z M 343.710938 234.410156 L 344.398438 234.582031 L 344.378906 234.589844 L 343.710938 234.417969 L 341.109375 233.738281 Z M 322.109375 235.886719 C 321.976562 235.839844 321.84375 235.796875 321.710938 235.75 L 321.714844 235.75 C 321.851562 235.789062 321.980469 235.835938 322.109375 235.886719 Z M 336.804688 241.039062 C 336.804688 241.039062 333.265625 239.769531 328.460938 238.085938 C 328.210938 237.996094 327.941406 237.902344 327.679688 237.8125 C 327.941406 237.902344 328.210938 237.996094 328.464844 238.085938 C 333.242188 239.757812 336.769531 241.019531 336.804688 241.039062 Z M 343.691406 234.753906 L 343.683594 234.75 L 343.277344 234.839844 L 338.9375 239 L 343.273438 234.832031 L 343.671875 234.75 L 343.433594 234.6875 L 343.425781 234.6875 L 343.445312 234.679688 L 343.722656 234.753906 L 343.742188 234.75 L 354.804688 237.675781 L 348.957031 236.140625 L 354.804688 237.671875 L 343.710938 234.757812 Z M 223.554688 308.976562 L 223.292969 308.894531 L 223.035156 308.820312 L 215.246094 306.574219 L 215.246094 241.917969 C 215.261719 241.804688 215.289062 241.699219 215.332031 241.601562 L 255.210938 252.40625 L 255.210938 256.039062 C 253.230469 255.957031 250.535156 256.886719 250.535156 262.789062 C 250.535156 266.78125 250.5 285.214844 250.5 305.007812 L 250.5 306.203125 C 250.5 309.710938 250.5 313.257812 250.5 316.761719 Z M 260.066406 374.761719 L 282.453125 382.039062 L 282.550781 382.09375 L 260.035156 374.746094 L 259.855469 374.6875 L 259.777344 374.6875 L 259.585938 374.628906 L 255.511719 373.289062 L 255.511719 373.265625 L 259.617188 374.613281 L 259.804688 374.671875 Z M 223.554688 314.195312 L 248.734375 321.707031 L 248.304688 357.675781 L 241.101562 356 L 223.554688 330.082031 Z M 256.210938 247.957031 C 244.769531 245.195312 228.378906 241.234375 218.132812 238.78125 C 218.5625 238.558594 219.007812 238.363281 219.46875 238.191406 C 220.507812 237.792969 226.453125 236.691406 234.726562 235.269531 C 238.222656 237.222656 241.242188 238.808594 242.765625 239.421875 C 246.070312 240.683594 249.617188 241.214844 253.144531 240.980469 C 253.144531 240.980469 297.789062 229.039062 303.5 230.078125 C 306.140625 230.554688 313.429688 232.925781 320.523438 235.34375 L 259.601562 244.503906 L 259.519531 244.527344 C 259.449219 244.570312 257.945312 245.335938 256.210938 247.957031 Z M 279.109375 372.933594 L 279.109375 373.136719 C 279.1875 376.878906 279.945312 379.574219 281.382812 381.167969 L 261.394531 374.648438 L 260.90625 374.488281 L 255.746094 372.804688 L 255.746094 252.28125 L 270.136719 256.464844 L 279.109375 259.0625 L 279.109375 372.585938 C 279.109375 372.707031 279.109375 372.820312 279.109375 372.933594 Z M 318.691406 364.757812 L 318.566406 365.484375 L 318.679688 369.566406 L 318.679688 369.996094 L 307.65625 372.433594 L 307.65625 367.554688 Z M 300.597656 395.410156 L 300.648438 395.410156 L 300.648438 404.152344 L 250.316406 384.296875 C 250.675781 383.6875 250.933594 383.027344 251.066406 382.332031 C 251.414062 380.839844 253.914062 378.234375 254.214844 377.921875 L 254.53125 377.761719 Z M 348.957031 236.136719 L 343.6875 234.753906 L 343.667969 234.742188 Z M 388.238281 261.980469 C 388.238281 267.433594 387.257812 332.820312 387.257812 332.820312 C 387.257812 332.820312 386.761719 336.289062 384.308594 337.277344 C 381.964844 338.234375 310.589844 354.882812 303.726562 356.488281 L 303.609375 356.515625 L 303.191406 356.613281 C 303.09375 356.644531 303 356.664062 302.90625 356.679688 C 302.015625 356.8125 299.273438 356.628906 299.273438 349.175781 L 299.273438 348.285156 C 299.332031 348.59375 299.40625 348.886719 299.488281 349.160156 C 299.492188 349.175781 299.492188 349.191406 299.496094 349.203125 C 299.628906 349.941406 299.800781 350.546875 300.003906 351.042969 C 301.113281 353.75 303.054688 353.015625 303.054688 353.015625 L 306.515625 352.214844 L 307.214844 352.054688 L 307.324219 352.054688 C 323.410156 348.335938 379.59375 335.328125 381.636719 334.511719 C 384.011719 333.558594 384.488281 330.238281 384.488281 330.238281 C 384.488281 330.238281 385.445312 267.527344 385.445312 262.308594 C 385.445312 262.085938 385.433594 261.882812 385.425781 261.679688 C 385.320312 260.019531 384.785156 259.019531 384.152344 258.421875 C 383.824219 258.113281 383.464844 257.90625 383.121094 257.777344 L 383.046875 257.753906 C 382.898438 257.691406 382.742188 257.652344 382.582031 257.621094 C 382.363281 257.578125 382.136719 257.550781 381.910156 257.542969 L 381.796875 257.503906 L 382.832031 257.328125 L 383.503906 257.210938 L 383.609375 257.210938 L 384.34375 257.085938 C 384.34375 257.085938 388.238281 256.53125 388.238281 261.980469 Z M 306.488281 367.699219 L 306.363281 368.429688 L 306.425781 370.613281 L 306.425781 370.8125 L 306.480469 372.941406 L 295.453125 375.382812 L 295.453125 370.507812 Z M 306.488281 367.699219 " fill-opacity="1" fill-rule="nonzero"/><path fill="#99c1b9" d="M 382.476562 258.5 C 381.882812 258.003906 381.109375 257.757812 380.339844 257.824219 L 345.152344 263.875 L 321.144531 267.996094 C 310.292969 269.859375 302.054688 271.269531 301.171875 271.421875 C 300.5625 271.550781 300.039062 271.933594 299.726562 272.472656 C 298.632812 274.125 298.605469 277.152344 298.605469 277.238281 C 298.609375 277.460938 298.679688 281.765625 298.777344 288.136719 C 299.027344 305.613281 299.546875 338.621094 299.546875 344.726562 C 299.546875 349.050781 300.539062 350.648438 301.367188 351.238281 C 301.820312 351.5625 302.394531 351.664062 302.925781 351.511719 L 308.117188 350.308594 L 308.816406 350.148438 L 308.929688 350.117188 C 326.785156 345.976562 378.316406 334.003906 380.21875 333.246094 C 382.398438 332.375 382.871094 329.261719 382.871094 329.226562 C 382.878906 328.640625 383.808594 267.347656 383.808594 262.257812 C 383.808594 260.523438 383.382812 259.289062 382.542969 258.546875 Z M 382.476562 258.5 " fill-opacity="1" fill-rule="nonzero"/><path fill="#dac49d" d="M 320.632812 277.453125 C 320.867188 277.902344 320.699219 278.457031 320.253906 278.695312 C 320.25 278.699219 320.242188 278.699219 320.234375 278.703125 C 319.746094 278.933594 319.242188 279.125 318.722656 279.269531 C 318.648438 279.269531 318.535156 279.195312 318.332031 279.105469 C 318.765625 278.972656 319.082031 278.902344 319.367188 278.785156 C 319.621094 278.695312 319.863281 278.570312 320.082031 278.414062 C 320.347656 278.238281 320.449219 277.898438 320.3125 277.609375 C 320.203125 277.3125 319.898438 277.136719 319.585938 277.191406 C 319.085938 277.257812 318.632812 277.511719 318.316406 277.902344 C 318.222656 277.976562 318.117188 278.039062 318 278.074219 C 317.972656 277.957031 317.949219 277.84375 317.945312 277.726562 C 317.945312 277.316406 317.945312 276.910156 317.984375 276.429688 C 317.726562 276.488281 317.460938 276.527344 317.195312 276.558594 C 317.101562 276.558594 317.003906 276.496094 316.910156 276.453125 C 316.984375 276.386719 317.042969 276.269531 317.128906 276.25 C 317.390625 276.191406 317.65625 276.144531 317.921875 276.109375 C 317.921875 275.855469 317.890625 275.636719 317.875 275.378906 L 318.214844 275.320312 C 318.214844 275.554688 318.214844 275.769531 318.246094 276.082031 C 318.765625 275.921875 319.21875 275.765625 319.6875 275.636719 C 319.828125 275.625 319.96875 275.636719 320.101562 275.664062 C 320.003906 275.757812 319.929688 275.886719 319.8125 275.925781 C 319.441406 276.066406 319.066406 276.179688 318.6875 276.269531 C 318.375 276.347656 318.207031 276.457031 318.28125 276.792969 C 318.300781 276.996094 318.300781 277.203125 318.28125 277.40625 C 318.667969 277.203125 319.066406 277.03125 319.480469 276.886719 C 319.941406 276.71875 320.453125 276.953125 320.625 277.414062 C 320.628906 277.425781 320.632812 277.4375 320.632812 277.453125 Z M 312.175781 278.738281 C 312.035156 279.125 311.859375 279.5 311.65625 279.855469 C 311.5 280.011719 311.285156 280.089844 311.070312 280.070312 C 310.949219 280.070312 310.820312 279.808594 310.753906 279.644531 C 310.703125 279.441406 310.664062 279.234375 310.632812 279.027344 C 310.59375 278.730469 310.316406 278.515625 310.019531 278.554688 C 309.921875 278.5625 309.835938 278.597656 309.761719 278.660156 C 309.546875 278.792969 309.335938 278.9375 309.132812 279.09375 L 309.550781 276.972656 L 309.488281 276.851562 C 309.371094 276.953125 309.1875 277.03125 309.167969 277.152344 C 308.953125 278.277344 308.765625 279.40625 308.585938 280.535156 C 308.585938 280.636719 308.691406 280.75 308.710938 280.785156 C 309.011719 280.183594 309.230469 279.636719 309.566406 279.113281 C 309.710938 278.96875 309.914062 278.898438 310.117188 278.925781 C 310.214844 278.925781 310.292969 279.195312 310.359375 279.355469 C 310.386719 279.488281 310.40625 279.625 310.417969 279.761719 C 310.457031 280.191406 310.84375 280.503906 311.273438 280.464844 C 311.433594 280.449219 311.589844 280.386719 311.714844 280.28125 C 312.105469 279.960938 312.335938 279.484375 312.351562 278.980469 C 312.375 278.925781 312.238281 278.828125 312.175781 278.75 Z M 324.988281 277.253906 C 324.773438 277.113281 324.46875 277.023438 324.371094 276.828125 C 324.242188 276.492188 324.15625 276.144531 324.113281 275.789062 C 324.3125 275.734375 324.507812 275.671875 324.699219 275.589844 C 324.804688 275.539062 324.863281 275.421875 324.949219 275.332031 C 324.835938 275.304688 324.722656 275.296875 324.613281 275.300781 C 324.425781 275.34375 324.242188 275.40625 324.0625 275.46875 C 324.003906 275.117188 323.945312 274.800781 323.890625 274.433594 L 323.527344 274.542969 C 323.582031 274.898438 323.640625 275.21875 323.703125 275.582031 C 323.394531 275.628906 323.117188 275.675781 322.839844 275.730469 C 322.777344 275.730469 322.722656 275.824219 322.660156 275.871094 C 322.742188 275.917969 322.816406 276 322.890625 275.996094 C 323.175781 275.964844 323.457031 275.90625 323.8125 275.847656 L 324.007812 276.980469 C 323.175781 277.121094 322.871094 277.328125 322.886719 277.742188 C 322.902344 278.160156 323.179688 278.3125 323.546875 278.34375 C 324.164062 278.394531 324.398438 278.179688 324.546875 277.417969 L 325.273438 277.738281 C 325.46875 277.363281 325.148438 277.359375 324.984375 277.246094 Z M 332.210938 274.945312 L 333.144531 275.90625 L 330.800781 276.472656 C 330.953125 275.378906 331.09375 274.394531 331.238281 273.359375 L 331.078125 273.253906 C 331.003906 273.378906 330.878906 273.5 330.859375 273.628906 C 330.738281 274.382812 330.652344 275.148438 330.554688 275.910156 C 330.515625 276.246094 330.503906 276.601562 330.035156 276.738281 C 330.128906 276.832031 330.261719 276.882812 330.398438 276.878906 C 331.210938 276.695312 332.023438 276.523438 332.816406 276.285156 C 333.195312 276.171875 333.476562 276.15625 333.742188 276.558594 C 333.808594 276.417969 333.851562 276.277344 333.796875 276.191406 C 333.285156 275.410156 332.5 274.78125 332.199219 274.945312 Z M 340.519531 275.125 C 340.171875 275.316406 339.742188 275.183594 339.554688 274.839844 C 339.519531 274.773438 339.492188 274.710938 339.476562 274.632812 C 339.277344 273.734375 339.152344 272.8125 338.996094 271.882812 L 338.640625 271.941406 C 338.796875 272.863281 338.925781 273.753906 339.109375 274.640625 C 339.203125 275.207031 339.738281 275.585938 340.304688 275.492188 C 340.308594 275.492188 340.308594 275.492188 340.3125 275.492188 C 341.003906 275.421875 341.625 275.039062 342 274.453125 C 342.058594 274.371094 342 274.210938 342 274.152344 C 341.53125 274.515625 341.03125 274.839844 340.507812 275.121094 Z M 328.992188 273.808594 L 328.90625 273.652344 C 328.777344 273.6875 328.652344 273.742188 328.542969 273.820312 C 328.082031 274.339844 327.65625 274.855469 327.175781 275.324219 C 326.699219 275.789062 326.292969 276.085938 325.832031 276.476562 C 325.894531 276.527344 325.964844 276.613281 325.972656 276.601562 C 326.496094 276.246094 327.011719 275.882812 327.5625 275.492188 C 327.671875 276.121094 327.777344 276.738281 327.875 277.351562 C 327.910156 277.566406 327.957031 277.753906 328.265625 277.578125 C 328.152344 276.890625 328.011719 276.214844 327.9375 275.5 C 327.929688 275.246094 328.007812 275 328.152344 274.789062 C 328.410156 274.449219 328.6875 274.121094 328.980469 273.808594 Z M 335.355469 272.324219 L 335.230469 272.292969 C 335.1875 272.453125 335.148438 272.609375 335.097656 272.8125 C 334.753906 273.003906 334.238281 272.84375 333.898438 273.152344 L 333.933594 273.292969 L 335.171875 273.078125 C 335.359375 273.421875 335.171875 273.484375 334.941406 273.542969 C 334.714844 273.605469 334.359375 273.542969 334.066406 273.910156 L 335.261719 273.707031 L 335.339844 273.867188 C 335.101562 274.390625 334.394531 274.179688 333.96875 274.609375 C 334.4375 274.78125 334.789062 274.394531 335.214844 274.488281 L 334.425781 275.136719 L 334.6875 275.28125 C 335.804688 274.449219 335.792969 274.238281 335.347656 272.324219 Z M 336.578125 274.699219 C 336.625 274.550781 336.671875 274.398438 336.714844 274.25 C 336.714844 274.25 336.714844 274.203125 336.816406 274.078125 L 338.050781 273.863281 L 338.019531 273.707031 C 337.800781 273.753906 337.570312 273.777344 337.347656 273.785156 C 337.09375 273.785156 336.703125 274.121094 336.636719 273.6875 C 336.558594 273.257812 337.039062 273.488281 337.253906 273.382812 C 337.410156 273.328125 337.574219 273.289062 337.734375 273.261719 L 337.699219 273.078125 C 337.410156 273.125 337.121094 273.160156 336.832031 273.207031 C 336.539062 273.257812 336.453125 273.144531 336.53125 272.8125 L 337.769531 272.597656 L 337.769531 272.421875 L 336.464844 272.566406 C 336.425781 272.425781 336.382812 272.300781 336.34375 272.171875 L 336.183594 272.140625 C 336.144531 272.257812 336.121094 272.382812 336.121094 272.507812 C 336.210938 273.101562 336.304688 273.699219 336.417969 274.292969 C 336.460938 274.433594 336.515625 274.574219 336.578125 274.703125 Z M 344.207031 273.402344 C 344.199219 273.503906 344.171875 273.609375 344.144531 273.703125 C 344.007812 273.953125 343.863281 274.199219 343.71875 274.441406 C 343.488281 274.222656 343.25 274.015625 343.03125 273.785156 C 342.980469 273.707031 342.953125 273.617188 342.941406 273.527344 C 342.832031 272.929688 342.734375 272.316406 342.609375 271.585938 C 342.5 271.683594 342.332031 271.761719 342.339844 271.832031 C 342.441406 272.667969 342.449219 273.527344 342.929688 274.257812 C 343.15625 274.601562 343.453125 274.875 343.914062 274.730469 C 344.257812 274.464844 344.453125 274.042969 344.433594 273.609375 C 344.4375 273.535156 344.3125 273.488281 344.203125 273.394531 Z M 313.714844 278.546875 L 313.527344 279.210938 L 313.371094 279.210938 C 313.285156 278.269531 313.207031 277.324219 313.109375 276.25 C 313 276.421875 312.84375 276.550781 312.851562 276.667969 C 312.886719 277.386719 312.941406 278.109375 313.027344 278.824219 C 313.089844 279.179688 313.195312 279.53125 313.332031 279.859375 C 313.355469 279.933594 313.472656 279.980469 313.546875 280.035156 C 313.605469 279.964844 313.652344 279.886719 313.6875 279.796875 C 313.75 279.5 313.8125 279.203125 313.851562 278.910156 C 313.863281 278.789062 313.863281 278.667969 313.851562 278.542969 L 313.714844 278.542969 Z M 322.308594 276.953125 L 322.164062 276.953125 L 321.964844 277.609375 L 321.804688 277.609375 C 321.75 276.722656 321.695312 275.835938 321.632812 274.875 C 321.542969 274.960938 321.359375 275.039062 321.359375 275.128906 C 321.300781 276.214844 321.449219 277.300781 321.804688 278.332031 C 321.839844 278.433594 321.980469 278.492188 322.074219 278.574219 L 322.175781 278.507812 C 322 277.972656 322.425781 277.476562 322.308594 276.957031 Z M 305.242188 279.949219 C 305.289062 279.785156 305.359375 279.625 305.4375 279.40625 C 305.292969 279.441406 305.148438 279.445312 305.144531 279.484375 C 305.015625 279.816406 304.960938 280.171875 304.984375 280.519531 C 305.101562 280.796875 305.347656 280.992188 305.644531 281.042969 C 306.390625 280.976562 307.128906 280.871094 307.859375 280.714844 C 307.921875 280.714844 307.960938 280.546875 308.039062 280.394531 C 307.21875 280.535156 306.542969 280.695312 305.859375 280.75 C 305.34375 280.839844 305.101562 280.449219 305.238281 279.957031 Z M 306.214844 278.222656 L 305.691406 278.742188 L 305.792969 278.878906 C 306.257812 278.558594 306.734375 278.238281 307.195312 277.90625 C 307.25 277.867188 307.230469 277.722656 307.25 277.613281 L 304.726562 278.167969 L 304.726562 278.332031 C 305.210938 278.570312 305.691406 278.167969 306.207031 278.222656 Z M 315.4375 279.003906 C 314.871094 279.003906 314.683594 278.699219 314.917969 278.179688 C 314.957031 278.089844 315.007812 278.003906 315.089844 277.847656 C 314.933594 277.847656 314.773438 277.847656 314.761719 277.875 C 314.628906 278.164062 314.558594 278.480469 314.5625 278.800781 C 314.664062 279.0625 314.886719 279.257812 315.164062 279.320312 C 315.644531 279.328125 316.117188 279.289062 316.589844 279.199219 C 316.65625 279.199219 316.710938 279.039062 316.828125 278.867188 C 316.472656 278.929688 316.285156 278.96875 316.089844 278.996094 C 315.875 279.015625 315.660156 279.019531 315.441406 279.007812 Z M 337.105469 275.371094 C 337.105469 275.75 337 275.945312 336.585938 276 C 335.789062 276.101562 335.800781 276.125 335.628906 275.339844 C 335.582031 275.234375 335.523438 275.144531 335.449219 275.058594 L 335.308594 275.136719 C 335.34375 275.445312 335.402344 275.757812 335.480469 276.0625 C 335.550781 276.210938 335.683594 276.316406 335.84375 276.351562 C 336.257812 276.320312 336.675781 276.257812 337.082031 276.152344 C 337.195312 276.121094 337.3125 275.921875 337.335938 275.785156 C 337.359375 275.652344 337.277344 275.503906 337.234375 275.367188 Z M 344.984375 271.511719 C 344.917969 271.511719 344.839844 271.566406 344.761719 271.605469 C 344.804688 271.671875 344.824219 271.777344 344.882812 271.800781 C 345.402344 272.046875 345.8125 272.484375 346.023438 273.019531 C 346.085938 273.082031 346.167969 273.117188 346.261719 273.117188 C 346.304688 273.117188 346.351562 273 346.363281 272.96875 C 346.125 272.316406 345.621094 271.796875 344.980469 271.53125 Z M 316.167969 276.3125 C 315.589844 276.410156 315.019531 276.546875 314.457031 276.71875 C 314.371094 276.71875 314.3125 276.871094 314.242188 276.957031 L 314.332031 277.078125 L 316.21875 276.558594 Z M 337.25 274.890625 L 338.285156 275.882812 C 338.285156 275.722656 338.363281 275.601562 338.320312 275.527344 C 338.105469 275.136719 337.695312 274.890625 337.25 274.890625 Z M 334.699219 276.332031 C 334.824219 276.109375 334.921875 275.882812 334.988281 275.636719 C 335.074219 275.371094 334.957031 275.242188 334.679688 275.28125 C 334.601562 275.652344 334.53125 276.019531 334.449219 276.429688 C 334.492188 276.417969 334.652344 276.40625 334.699219 276.332031 Z M 336.730469 275.148438 C 336.085938 274.628906 335.8125 274.566406 335.570312 274.828125 C 335.96875 274.839844 336.210938 275.296875 336.730469 275.148438 Z M 323.707031 277.648438 C 323.65625 277.632812 323.605469 277.632812 323.554688 277.648438 L 323.746094 277.648438 M 256.210938 247.949219 C 255.898438 248.421875 255.570312 248.953125 255.25 249.5625 L 255.222656 249.613281 L 255.222656 252.417969 L 215.332031 241.601562 C 215.519531 241.039062 216.152344 239.828125 218.132812 238.777344 C 228.378906 241.226562 244.769531 245.183594 256.210938 247.949219 Z M 303.460938 224.179688 C 301.640625 224.464844 258.515625 231.195312 234.726562 235.269531 C 238.222656 237.214844 241.242188 238.804688 242.765625 239.421875 C 246.070312 240.683594 249.617188 241.214844 253.144531 240.980469 C 253.144531 240.980469 297.789062 229.039062 303.5 230.078125 C 306.140625 230.554688 313.429688 232.925781 320.523438 235.34375 L 336.679688 232.917969 Z M 271.832031 251.796875 L 269.1875 251.089844 L 256.921875 247.820312 C 256.867188 247.914062 256.804688 247.992188 256.742188 248.082031 C 256.382812 248.625 256.046875 249.179688 255.742188 249.753906 L 255.742188 252.285156 L 270.125 256.441406 L 279.101562 259.039062 L 279.101562 258.84375 C 279.101562 258.695312 278.800781 255.617188 279.925781 253.933594 Z M 271.832031 251.796875 " fill-opacity="1" fill-rule="nonzero"/><g clip-path="url(#2415c5abcb)"><path fill="#473e2a" d="M 347.925781 367.253906 C 355.34375 365.429688 362.613281 363.621094 369.214844 361.988281 L 368.332031 365.902344 L 354.449219 369.238281 L 354.382812 369.238281 L 353.914062 369.347656 L 353.460938 369.457031 L 293.175781 383.941406 C 292.15625 383.246094 291.273438 382.363281 290.578125 381.34375 C 301.078125 378.746094 324.710938 372.960938 347.164062 367.414062 L 347.339844 367.375 L 347.835938 367.25 Z M 397.894531 252.558594 C 397.894531 259 396.730469 336.3125 396.730469 336.3125 C 396.730469 336.3125 396.152344 340.414062 393.242188 341.589844 C 390.335938 342.757812 299.796875 363.871094 297.425781 364.433594 L 297.375 364.433594 L 297.308594 364.457031 C 297.097656 364.511719 296.882812 364.542969 296.664062 364.542969 C 295.363281 364.542969 292.730469 363.585938 292.730469 355.648438 C 292.730469 348.964844 292.265625 316.867188 291.917969 294.265625 C 291.722656 281.203125 291.5625 271.304688 291.5625 271.304688 C 291.5625 271.304688 291.5625 264.285156 295.050781 263.695312 C 296.492188 263.449219 313.675781 260.480469 333.265625 257.089844 L 391.097656 247.078125 L 391.761719 246.960938 L 391.871094 246.960938 L 393.246094 246.722656 C 393.242188 246.722656 397.894531 246.117188 397.894531 252.558594 Z M 298.769531 288.132812 C 299.019531 305.605469 299.542969 338.617188 299.542969 344.722656 C 299.542969 349.046875 300.53125 350.644531 301.363281 351.234375 C 301.8125 351.558594 302.390625 351.660156 302.921875 351.507812 L 308.109375 350.300781 L 308.8125 350.140625 L 308.925781 350.113281 C 326.78125 345.972656 378.3125 334 380.214844 333.238281 C 382.390625 332.367188 382.867188 329.253906 382.867188 329.222656 C 382.871094 328.636719 383.804688 267.34375 383.804688 262.253906 C 383.804688 260.519531 383.378906 259.285156 382.535156 258.542969 L 382.480469 258.5 C 381.886719 258.003906 381.117188 257.757812 380.34375 257.824219 L 345.160156 263.875 L 321.148438 267.996094 C 310.296875 269.859375 302.058594 271.269531 301.179688 271.421875 C 300.566406 271.550781 300.042969 271.933594 299.730469 272.472656 C 298.636719 274.125 298.609375 277.152344 298.609375 277.238281 C 298.601562 277.457031 298.671875 281.765625 298.769531 288.132812 Z M 388.238281 261.980469 C 388.238281 256.53125 384.34375 257.085938 384.34375 257.085938 L 383.609375 257.210938 L 383.503906 257.210938 L 382.832031 257.328125 L 381.796875 257.503906 L 381.910156 257.542969 C 382.136719 257.546875 382.363281 257.570312 382.582031 257.621094 C 382.742188 257.652344 382.898438 257.691406 383.046875 257.753906 L 383.121094 257.777344 C 383.464844 257.90625 383.824219 258.113281 384.152344 258.421875 C 384.789062 259.019531 385.320312 260.019531 385.425781 261.679688 C 385.441406 261.882812 385.445312 262.085938 385.445312 262.308594 C 385.445312 267.527344 384.488281 330.238281 384.488281 330.238281 C 384.488281 330.238281 384.011719 333.558594 381.636719 334.511719 C 379.59375 335.328125 323.417969 348.335938 307.324219 352.054688 L 307.210938 352.054688 L 306.507812 352.214844 L 303.050781 353.015625 C 303.050781 353.015625 301.109375 353.757812 299.996094 351.042969 C 299.796875 350.550781 299.621094 349.945312 299.492188 349.203125 C 299.488281 349.1875 299.488281 349.171875 299.480469 349.160156 C 299.402344 348.886719 299.332031 348.59375 299.265625 348.285156 L 299.265625 349.175781 C 299.265625 356.625 302.007812 356.8125 302.902344 356.679688 C 302.996094 356.664062 303.089844 356.640625 303.1875 356.613281 L 303.605469 356.515625 L 303.722656 356.488281 C 310.582031 354.882812 381.960938 338.234375 384.304688 337.277344 C 386.761719 336.289062 387.25 332.820312 387.25 332.820312 C 387.25 332.820312 388.238281 267.433594 388.238281 261.980469 Z M 330.394531 368.597656 L 329.101562 368.890625 L 293.378906 377.488281 L 293.378906 369.667969 L 330.757812 361.242188 L 330.757812 368.511719 Z M 306.363281 368.429688 L 306.488281 367.699219 L 295.457031 370.507812 L 295.457031 375.382812 L 306.484375 372.941406 L 306.429688 370.8125 L 306.429688 370.613281 Z M 318.570312 365.484375 L 318.695312 364.757812 L 307.660156 367.558594 L 307.660156 372.441406 L 318.6875 370.003906 L 318.6875 369.570312 Z M 404.738281 237.171875 L 403.183594 349.828125 L 403.183594 349.871094 C 403.117188 350.015625 401.542969 353.625 398.351562 354.691406 C 397.316406 355.023438 385.484375 357.996094 369.800781 361.882812 L 368.761719 366.34375 L 368.609375 366.378906 L 355.402344 369.550781 C 361.238281 371.445312 368.566406 374.121094 371.550781 376.503906 C 376.835938 380.734375 374.414062 386.621094 374.382812 386.675781 L 374.332031 386.792969 L 374.207031 386.824219 L 301.285156 404.992188 L 301.203125 404.964844 L 249.421875 384.507812 L 249.730469 384.226562 C 249.734375 384.222656 250.207031 383.777344 250.566406 382.21875 C 250.96875 380.511719 253.761719 377.664062 253.878906 377.546875 L 253.945312 377.5 L 259.5625 374.648438 L 259.75 374.707031 L 259.828125 374.707031 L 259.859375 374.78125 L 259.972656 375.003906 L 254.53125 377.765625 L 254.214844 377.925781 C 253.921875 378.234375 251.417969 380.84375 251.066406 382.335938 C 250.933594 383.03125 250.675781 383.695312 250.316406 384.300781 L 300.625 404.148438 L 301.292969 404.414062 L 373.929688 386.292969 C 375.074219 383.226562 374.289062 379.765625 371.925781 377.496094 C 371.695312 377.269531 371.449219 377.054688 371.199219 376.855469 C 368.175781 374.433594 360.3125 371.621094 354.386719 369.730469 L 341.585938 372.804688 L 343.710938 375.050781 L 300.363281 386.320312 L 297.324219 383.4375 L 293.050781 384.472656 L 292.957031 384.421875 C 291.777344 383.65625 290.773438 382.65625 290.011719 381.480469 L 285.105469 382.683594 C 284.957031 382.710938 284.800781 382.726562 284.648438 382.71875 C 283.886719 382.710938 283.140625 382.496094 282.496094 382.105469 L 282.398438 382.050781 L 260.042969 374.757812 L 259.78125 374.667969 L 259.589844 374.605469 L 255.488281 373.261719 L 255.226562 373.175781 L 255.226562 359.820312 L 240.796875 356.464844 L 223.039062 330.238281 L 223.039062 309.359375 L 214.730469 306.964844 L 214.730469 241.890625 C 214.730469 241.761719 215.03125 239.292969 219.292969 237.675781 C 223.425781 236.117188 300.183594 224.179688 303.445312 223.65625 L 303.542969 223.65625 L 337.976562 232.726562 L 376.976562 226.859375 L 377.019531 226.859375 L 402.65625 233.523438 L 402.574219 233.621094 C 403.152344 233.828125 403.671875 234.171875 404.089844 234.628906 C 404.691406 235.328125 404.929688 236.269531 404.738281 237.171875 Z M 403.699219 234.96875 C 403.292969 234.535156 402.78125 234.214844 402.210938 234.039062 L 402.136719 234.039062 L 402.070312 233.984375 L 401.726562 233.886719 C 401.277344 233.78125 400.820312 233.722656 400.359375 233.710938 L 350.003906 242.066406 L 281.519531 253.4375 C 281.101562 253.523438 280.734375 253.757812 280.480469 254.097656 C 279.335938 255.554688 279.648438 258.804688 279.648438 258.84375 L 279.648438 372.589844 C 279.648438 372.695312 279.648438 372.796875 279.648438 372.902344 L 279.648438 373.101562 C 279.703125 377.085938 280.601562 379.90625 282.246094 381.289062 C 282.375 381.398438 282.507812 381.5 282.648438 381.589844 C 282.84375 381.714844 283.050781 381.824219 283.265625 381.914062 L 283.339844 381.941406 C 283.875 382.164062 284.457031 382.25 285.03125 382.191406 L 289.78125 381.027344 L 290.3125 380.902344 C 300.234375 378.492188 322.640625 372.96875 344.441406 367.589844 L 345.695312 367.28125 C 353.933594 365.246094 362.054688 363.242188 369.363281 361.429688 L 369.648438 361.363281 L 369.929688 361.289062 C 385.476562 357.433594 397.195312 354.5 398.171875 354.175781 C 400.957031 353.25 402.476562 350.105469 402.667969 349.691406 L 404.222656 237.097656 C 404.371094 236.335938 404.179688 235.558594 403.699219 234.96875 Z M 354.449219 369.238281 L 368.332031 365.902344 L 369.183594 361.980469 C 362.585938 363.609375 355.320312 365.417969 347.898438 367.246094 L 347.832031 367.246094 L 347.335938 367.371094 L 347.160156 367.410156 C 324.707031 372.957031 301.078125 378.742188 290.574219 381.339844 C 291.269531 382.359375 292.148438 383.242188 293.171875 383.9375 L 353.457031 369.453125 L 353.90625 369.34375 L 354.378906 369.230469 Z M 223.554688 330.082031 L 241.101562 356 L 248.304688 357.675781 L 255.226562 359.292969 L 255.226562 318.664062 L 223.558594 309.527344 L 223.558594 330.082031 Z M 215.25 306.578125 L 223.039062 308.824219 L 223.296875 308.898438 L 223.558594 308.980469 L 250.507812 316.78125 L 255.226562 318.148438 L 255.226562 249.613281 L 255.257812 249.5625 C 255.578125 248.957031 255.902344 248.429688 256.21875 247.949219 C 257.96875 245.335938 259.449219 244.570312 259.527344 244.535156 L 259.605469 244.507812 L 320.539062 235.335938 L 336.695312 232.90625 L 303.460938 224.179688 C 301.640625 224.472656 258.515625 231.207031 234.726562 235.289062 C 226.453125 236.707031 220.507812 237.808594 219.46875 238.199219 C 219.015625 238.363281 218.570312 238.558594 218.132812 238.777344 C 216.152344 239.835938 215.519531 241.039062 215.332031 241.601562 C 215.289062 241.699219 215.265625 241.8125 215.246094 241.917969 L 215.246094 306.578125 Z M 281.386719 381.167969 C 279.953125 379.578125 279.1875 376.878906 279.117188 373.136719 L 279.117188 372.933594 C 279.117188 372.816406 279.117188 372.699219 279.117188 372.582031 L 279.117188 258.867188 C 279.101562 258.71875 278.816406 255.640625 279.941406 253.957031 C 280.261719 253.429688 280.792969 253.050781 281.398438 252.921875 L 350.6875 241.425781 L 399.664062 233.292969 L 399.738281 233.292969 L 376.945312 227.382812 L 339.253906 233.0625 L 338.808594 233.128906 L 338.015625 233.246094 L 337.957031 233.246094 L 321.597656 235.710938 L 259.722656 244.996094 L 259.636719 245.039062 C 258.566406 245.773438 257.644531 246.710938 256.933594 247.796875 C 256.878906 247.886719 256.8125 247.96875 256.753906 248.058594 C 256.386719 248.613281 256.050781 249.183594 255.746094 249.769531 L 255.746094 372.804688 L 260.90625 374.488281 L 261.394531 374.648438 Z M 382.914062 258.207031 C 383.867188 259.046875 384.347656 260.425781 384.347656 262.300781 C 384.347656 267.402344 383.40625 328.691406 383.40625 329.304688 C 383.386719 329.480469 382.886719 332.78125 380.433594 333.761719 C 378.449219 334.5625 325.722656 346.804688 308.429688 350.808594 L 308.316406 350.808594 L 307.609375 350.972656 L 303.089844 352.007812 C 302.878906 352.074219 302.664062 352.105469 302.445312 352.105469 C 301.953125 352.105469 301.480469 351.953125 301.078125 351.671875 C 300.296875 351.054688 299.746094 350.1875 299.523438 349.214844 C 299.441406 348.941406 299.371094 348.652344 299.308594 348.339844 C 299.085938 347.144531 298.988281 345.921875 299.007812 344.707031 C 299.007812 338.660156 298.511719 306.160156 298.246094 288.5625 C 298.140625 281.90625 298.070312 277.398438 298.070312 277.238281 C 298.070312 276.996094 298.105469 271.410156 301.097656 270.894531 L 321.863281 267.332031 L 380.265625 257.300781 C 380.796875 257.257812 381.324219 257.332031 381.820312 257.515625 L 381.9375 257.558594 C 382.117188 257.632812 382.292969 257.722656 382.457031 257.824219 C 382.582031 257.902344 382.707031 257.992188 382.824219 258.085938 L 382.878906 258.132812 Z M 380.210938 333.238281 C 382.386719 332.367188 382.863281 329.253906 382.863281 329.222656 C 382.867188 328.636719 383.796875 267.34375 383.796875 262.253906 C 383.796875 260.53125 383.371094 259.285156 382.535156 258.542969 L 382.480469 258.5 C 381.886719 258.003906 381.117188 257.757812 380.34375 257.824219 L 345.160156 263.875 L 321.148438 267.996094 C 310.296875 269.859375 302.058594 271.269531 301.179688 271.421875 C 300.574219 271.550781 300.042969 271.925781 299.730469 272.460938 C 298.636719 274.113281 298.609375 277.140625 298.609375 277.226562 C 298.617188 277.453125 298.6875 281.757812 298.78125 288.128906 C 299.03125 305.601562 299.550781 338.609375 299.550781 344.714844 C 299.550781 349.042969 300.542969 350.636719 301.375 351.226562 C 301.824219 351.554688 302.398438 351.652344 302.929688 351.503906 L 308.121094 350.296875 L 308.820312 350.136719 L 308.9375 350.105469 C 326.773438 345.96875 378.308594 333.996094 380.210938 333.238281 Z M 293.691406 369.0625 L 331.289062 360.585938 L 331.289062 368.894531 L 331.09375 368.941406 L 292.875 378.152344 L 292.875 369.25 L 293.570312 369.089844 Z M 330.757812 361.242188 L 293.378906 369.667969 L 293.378906 377.488281 L 329.101562 368.894531 L 330.394531 368.585938 L 330.757812 368.496094 Z M 330.757812 361.242188 " fill-opacity="1" fill-rule="nonzero"/></g></svg>