<svg xmlns="http://www.w3.org/2000/svg" xmlns:xlink="http://www.w3.org/1999/xlink" width="1080" zoomAndPan="magnify" viewBox="0 0 810 809.999993" height="1080" preserveAspectRatio="xMidYMid meet" version="1.0"><defs><clipPath id="f2f6aa7299"><path d="M 308.027344 0 L 603.828125 0 L 603.828125 809.980469 L 308.027344 809.980469 Z M 308.027344 0 " clip-rule="nonzero"/></clipPath></defs><path fill="#8e7dbe" d="M 511.097656 132.65625 L 592.222656 162.421875 C 598.105469 164.589844 602.023438 170.203125 602.023438 176.476562 L 602.023438 280.386719 C 602.023438 285.292969 600.019531 289.992188 596.492188 293.390625 L 573.503906 315.515625 C 571.5 317.449219 570.367188 320.105469 570.367188 322.882812 L 570.367188 720.769531 C 570.367188 740.371094 582.179688 757.957031 600.160156 765.4375 C 601.296875 765.914062 602.023438 767.046875 602.023438 768.28125 L 602.023438 781.316406 C 602.023438 782.351562 601.253906 783.148438 600.324219 783.292969 L 600.160156 783.320312 L 411.675781 808.171875 C 411.675781 808.164062 411.671875 808.164062 411.671875 808.15625 C 411.390625 808.175781 411.105469 808.152344 410.824219 808.050781 L 316.621094 773.480469 C 312.546875 771.980469 309.839844 768.09375 309.839844 763.753906 L 309.839844 156.765625 C 309.839844 155.367188 310.863281 154.289062 312.113281 154.070312 C 312.113281 154.066406 312.113281 154.066406 312.109375 154.066406 L 312.152344 154.058594 C 312.183594 154.050781 312.222656 154.050781 312.261719 154.046875 L 482.898438 131.546875 L 500.648438 129.199219 " fill-opacity="1" fill-rule="nonzero"/><path fill="#f2d0a9" d="M 511.097656 5.949219 C 511.097656 3.660156 504.78125 1.804688 496.996094 1.804688 C 489.207031 1.804688 482.898438 3.660156 482.898438 5.949219 L 482.898438 139.644531 C 482.898438 141.929688 489.207031 143.789062 496.996094 143.789062 C 504.78125 143.789062 511.097656 141.929688 511.097656 139.644531 Z M 555.433594 325.707031 L 395.4375 346.800781 C 393.210938 347.09375 391.554688 348.988281 391.554688 351.230469 L 391.554688 473.242188 C 391.554688 475.9375 393.925781 478.023438 396.601562 477.667969 L 556.59375 456.570312 C 558.820312 456.277344 560.480469 454.382812 560.480469 452.140625 L 560.480469 330.136719 C 560.480469 327.433594 558.101562 325.347656 555.433594 325.707031 Z M 558.03125 599.894531 L 393.429688 621.601562 C 392.355469 621.738281 391.554688 622.65625 391.554688 623.742188 L 391.554688 642.964844 C 391.554688 644.273438 392.695312 645.277344 393.992188 645.113281 L 558.597656 623.40625 C 559.671875 623.257812 560.480469 622.34375 560.480469 621.261719 L 560.480469 602.035156 C 560.480469 600.726562 559.328125 599.722656 558.03125 599.894531 Z M 558.03125 559.210938 L 393.429688 580.914062 C 392.355469 581.054688 391.554688 581.96875 391.554688 583.058594 L 391.554688 602.285156 C 391.554688 603.585938 392.695312 604.597656 393.992188 604.425781 L 558.597656 582.71875 C 559.671875 582.582031 560.480469 581.664062 560.480469 580.578125 L 560.480469 561.351562 C 560.480469 560.046875 559.328125 559.039062 558.03125 559.210938 Z M 558.03125 477.722656 L 393.429688 499.429688 C 392.355469 499.574219 391.554688 500.492188 391.554688 501.578125 L 391.554688 520.800781 C 391.554688 522.109375 392.695312 523.113281 393.992188 522.949219 L 558.597656 501.242188 C 559.671875 501.09375 560.480469 500.179688 560.480469 499.09375 L 560.480469 479.867188 C 560.480469 478.5625 559.328125 477.550781 558.03125 477.722656 Z M 560.480469 520.664062 L 560.480469 539.894531 C 560.480469 540.980469 559.671875 541.894531 558.597656 542.035156 L 393.992188 563.742188 C 392.695312 563.914062 391.554688 562.902344 391.554688 561.597656 L 391.554688 542.371094 C 391.554688 541.292969 392.355469 540.375 393.429688 540.230469 L 558.03125 518.523438 C 559.328125 518.351562 560.480469 519.363281 560.480469 520.664062 " fill-opacity="1" fill-rule="nonzero"/><path fill="#99c1b9" d="M 589.761719 192.894531 L 589.761719 268.875 C 589.761719 274.15625 585.851562 278.621094 580.613281 279.304688 L 439.515625 297.917969 C 433.210938 298.75 427.617188 293.84375 427.617188 287.484375 L 427.617188 211.5 C 427.617188 206.222656 431.527344 201.761719 436.765625 201.070312 L 577.871094 182.464844 C 584.167969 181.632812 589.761719 186.539062 589.761719 192.894531 " fill-opacity="1" fill-rule="nonzero"/><path fill="#99c1b9" d="M 471.355469 462.222656 L 554.714844 368.265625 L 554.714844 355.554688 L 452.277344 464.695312 Z M 404.101562 470.414062 L 526.167969 337.8125 L 548.332031 334.050781 C 550.746094 333.636719 552.960938 335.5 552.960938 337.953125 L 552.960938 342.617188 L 438.46875 466.753906 L 404.101562 470.414062 " fill-opacity="1" fill-rule="nonzero"/><g clip-path="url(#f2f6aa7299)"><path fill="#99c1b9" d="M 459.054688 264.199219 L 461.730469 266.652344 L 439.800781 290.582031 L 437.125 288.132812 Z M 548.484375 253.40625 L 584.535156 271.671875 L 582.898438 274.90625 L 546.84375 256.640625 Z M 548.675781 214.988281 L 546.648438 211.980469 L 578.441406 190.484375 L 580.46875 193.492188 Z M 524.707031 257.320312 L 481.351562 263.402344 C 475.785156 264.183594 470.585938 262.742188 466.675781 259.347656 C 462.832031 255.996094 460.714844 251.148438 460.714844 245.683594 C 460.714844 234.03125 470.195312 223.226562 481.855469 221.585938 L 525.210938 215.503906 C 526.195312 215.363281 527.167969 215.292969 528.125 215.292969 C 532.570312 215.292969 536.667969 216.769531 539.878906 219.566406 C 543.730469 222.90625 545.847656 227.765625 545.847656 233.222656 C 545.847656 244.875 536.363281 255.6875 524.707031 257.320312 Z M 542.261719 216.824219 C 537.550781 212.726562 531.316406 210.984375 524.707031 211.914062 L 481.351562 217.996094 C 467.964844 219.875 457.085938 232.296875 457.085938 245.683594 C 457.085938 252.214844 459.644531 258.039062 464.296875 262.082031 C 468.183594 265.460938 473.101562 267.242188 478.421875 267.242188 C 479.546875 267.242188 480.699219 267.160156 481.855469 267 L 525.210938 260.910156 C 538.589844 259.035156 549.476562 246.617188 549.476562 233.222656 C 549.476562 226.695312 546.914062 220.867188 542.261719 216.824219 Z M 558.667969 621.261719 C 558.667969 621.433594 558.535156 621.582031 558.363281 621.605469 L 505.980469 628.515625 L 505.980469 608.589844 L 558.273438 601.691406 C 558.292969 601.6875 558.304688 601.6875 558.324219 601.6875 C 558.425781 601.6875 558.503906 601.738281 558.546875 601.777344 C 558.597656 601.820312 558.667969 601.902344 558.667969 602.035156 Z M 393.757812 643.3125 C 393.632812 643.324219 393.535156 643.273438 393.484375 643.230469 C 393.429688 643.179688 393.363281 643.097656 393.363281 642.964844 L 393.363281 623.742188 C 393.363281 623.570312 393.5 623.417969 393.667969 623.398438 L 446.042969 616.488281 L 446.042969 636.417969 Z M 502.359375 609.066406 L 502.359375 628.992188 L 449.671875 635.941406 L 449.671875 616.011719 Z M 557.796875 598.09375 L 393.191406 619.800781 C 391.222656 620.054688 389.734375 621.753906 389.734375 623.742188 L 389.734375 642.964844 C 389.734375 644.113281 390.230469 645.199219 391.089844 645.957031 C 391.820312 646.597656 392.753906 646.941406 393.714844 646.941406 C 393.886719 646.941406 394.058594 646.9375 394.230469 646.910156 L 558.839844 625.203125 C 560.808594 624.945312 562.296875 623.246094 562.296875 621.261719 L 562.296875 602.035156 C 562.296875 600.886719 561.800781 599.800781 560.9375 599.042969 C 560.078125 598.292969 558.929688 597.941406 557.796875 598.09375 Z M 558.667969 580.578125 C 558.667969 580.75 558.535156 580.894531 558.363281 580.921875 L 505.980469 587.832031 L 505.980469 567.902344 L 558.273438 561.007812 C 558.394531 560.996094 558.496094 561.046875 558.546875 561.089844 C 558.597656 561.136719 558.667969 561.222656 558.667969 561.351562 Z M 393.757812 602.628906 C 393.632812 602.640625 393.535156 602.589844 393.484375 602.542969 C 393.429688 602.492188 393.363281 602.410156 393.363281 602.285156 L 393.363281 583.058594 C 393.363281 582.886719 393.5 582.738281 393.667969 582.714844 L 446.042969 575.804688 L 446.042969 595.730469 Z M 502.359375 568.378906 L 502.359375 588.308594 L 449.671875 595.253906 L 449.671875 575.328125 Z M 557.804688 557.410156 L 393.191406 579.117188 C 391.222656 579.375 389.734375 581.066406 389.734375 583.058594 L 389.734375 602.285156 C 389.734375 603.429688 390.230469 604.523438 391.089844 605.273438 C 391.820312 605.914062 392.753906 606.257812 393.707031 606.257812 C 393.886719 606.257812 394.058594 606.242188 394.230469 606.226562 L 558.839844 584.519531 C 560.808594 584.257812 562.296875 582.5625 562.296875 580.578125 L 562.296875 561.351562 C 562.296875 560.207031 561.800781 559.121094 560.941406 558.363281 C 560.078125 557.605469 558.941406 557.25 557.804688 557.410156 Z M 558.667969 499.09375 C 558.667969 499.269531 558.535156 499.417969 558.363281 499.4375 L 520.0625 504.488281 L 520.0625 484.5625 L 558.273438 479.523438 C 558.292969 479.523438 558.304688 479.523438 558.324219 479.523438 C 558.425781 479.523438 558.503906 479.566406 558.546875 479.613281 C 558.597656 479.65625 558.667969 479.738281 558.667969 479.867188 Z M 393.757812 521.140625 C 393.632812 521.160156 393.535156 521.109375 393.484375 521.066406 C 393.429688 521.015625 393.363281 520.933594 393.363281 520.800781 L 393.363281 501.578125 C 393.363281 501.398438 393.5 501.253906 393.667969 501.230469 L 431.964844 496.183594 L 431.964844 516.109375 Z M 473.628906 510.609375 L 435.59375 515.632812 L 435.59375 495.707031 L 473.628906 490.683594 Z M 477.265625 490.207031 L 516.429688 485.046875 L 516.429688 504.964844 L 477.265625 510.132812 Z M 557.796875 475.925781 L 393.191406 497.632812 C 391.222656 497.890625 389.734375 499.589844 389.734375 501.578125 L 389.734375 520.800781 C 389.734375 521.941406 390.230469 523.035156 391.089844 523.785156 C 391.820312 524.429688 392.753906 524.777344 393.714844 524.777344 C 393.886719 524.777344 394.058594 524.765625 394.230469 524.738281 L 558.839844 503.035156 C 560.808594 502.773438 562.296875 501.082031 562.296875 499.09375 L 562.296875 479.867188 C 562.296875 478.722656 561.800781 477.636719 560.9375 476.878906 C 560.078125 476.121094 558.929688 475.777344 557.796875 475.925781 Z M 558.667969 539.894531 C 558.667969 540.0625 558.535156 540.210938 558.363281 540.234375 L 505.980469 547.144531 L 505.980469 527.21875 L 558.273438 520.324219 C 558.394531 520.308594 558.496094 520.359375 558.546875 520.40625 C 558.597656 520.457031 558.667969 520.539062 558.667969 520.664062 Z M 393.757812 561.941406 C 393.632812 561.953125 393.535156 561.902344 393.484375 561.859375 C 393.429688 561.808594 393.363281 561.730469 393.363281 561.597656 L 393.363281 542.371094 C 393.363281 542.199219 393.5 542.054688 393.667969 542.027344 L 446.042969 535.121094 L 446.042969 555.046875 Z M 502.359375 527.695312 L 502.359375 547.621094 L 449.671875 554.570312 L 449.671875 534.644531 Z M 557.804688 516.726562 L 393.191406 538.429688 C 391.222656 538.691406 389.734375 540.386719 389.734375 542.371094 L 389.734375 561.597656 C 389.734375 562.742188 390.230469 563.835938 391.089844 564.59375 C 391.820312 565.226562 392.753906 565.578125 393.707031 565.578125 C 393.886719 565.578125 394.058594 565.566406 394.230469 565.539062 L 558.839844 543.832031 C 560.808594 543.574219 562.296875 541.882812 562.296875 539.894531 L 562.296875 520.664062 C 562.296875 519.523438 561.800781 518.433594 560.941406 517.679688 C 560.078125 516.921875 558.941406 516.574219 557.804688 516.726562 Z M 587.949219 268.875 C 587.949219 273.230469 584.695312 276.941406 580.378906 277.507812 L 439.273438 296.117188 C 436.796875 296.441406 434.285156 295.683594 432.398438 294.03125 C 430.515625 292.378906 429.429688 289.992188 429.429688 287.484375 L 429.429688 211.5 C 429.429688 210.234375 429.734375 209.039062 430.230469 207.945312 L 462.355469 223.164062 L 463.910156 219.890625 L 432.429688 204.972656 C 433.679688 203.871094 435.246094 203.097656 437 202.867188 L 578.105469 184.261719 C 578.484375 184.210938 578.859375 184.1875 579.242188 184.1875 C 581.339844 184.1875 583.386719 184.941406 584.980469 186.347656 C 586.863281 188 587.949219 190.382812 587.949219 192.894531 Z M 587.371094 183.621094 C 584.703125 181.277344 581.15625 180.203125 577.628906 180.664062 L 436.523438 199.269531 C 430.414062 200.078125 425.804688 205.332031 425.804688 211.5 L 425.804688 287.484375 C 425.804688 291.039062 427.339844 294.414062 430.007812 296.757812 C 432.269531 298.742188 435.164062 299.816406 438.136719 299.816406 C 438.671875 299.816406 439.210938 299.785156 439.75 299.714844 L 580.855469 281.105469 C 586.964844 280.304688 591.578125 275.039062 591.578125 268.875 L 591.578125 192.894531 C 591.578125 189.339844 590.042969 185.960938 587.371094 183.621094 Z M 558.667969 452.140625 C 558.667969 453.46875 557.675781 454.601562 556.359375 454.773438 L 396.363281 475.867188 C 395.59375 475.96875 394.851562 475.746094 394.265625 475.230469 C 393.6875 474.722656 393.363281 474.011719 393.363281 473.242188 L 393.363281 351.230469 C 393.363281 349.902344 394.355469 348.777344 395.671875 348.601562 L 555.667969 327.503906 C 555.789062 327.484375 555.910156 327.480469 556.023438 327.480469 C 556.664062 327.480469 557.269531 327.707031 557.765625 328.140625 C 558.34375 328.648438 558.667969 329.359375 558.667969 330.136719 Z M 555.191406 323.90625 L 395.195312 345.003906 C 392.082031 345.414062 389.734375 348.089844 389.734375 351.230469 L 389.734375 473.242188 C 389.734375 475.046875 390.515625 476.769531 391.878906 477.960938 C 393.027344 478.96875 394.503906 479.523438 396.015625 479.523438 C 396.289062 479.523438 396.5625 479.503906 396.839844 479.464844 L 556.832031 458.371094 C 559.945312 457.957031 562.296875 455.28125 562.296875 452.140625 L 562.296875 330.136719 C 562.296875 328.324219 561.515625 326.601562 560.15625 325.40625 C 558.792969 324.21875 556.984375 323.664062 555.191406 323.90625 Z M 592.996094 291.160156 L 418.40625 314.183594 L 417.929688 310.585938 L 592.527344 287.5625 Z M 595.539062 765.265625 L 418.667969 788.585938 L 419.136719 792.183594 L 596.410156 768.8125 L 595.972656 765.503906 C 597.109375 766.082031 598.273438 766.621094 599.460938 767.117188 C 599.90625 767.300781 600.203125 767.769531 600.203125 768.28125 L 600.203125 781.316406 C 600.203125 781.460938 600.066406 781.496094 600.066406 781.496094 L 415.332031 805.863281 L 415.332031 793.136719 C 415.332031 791.148438 414.160156 789.375 412.351562 788.621094 C 394.933594 781.375 383.679688 764.5 383.679688 745.621094 L 383.679688 347.742188 C 383.679688 345.464844 384.617188 343.261719 386.257812 341.683594 L 409.25 319.550781 C 413.113281 315.828125 415.332031 310.617188 415.332031 305.246094 L 415.332031 201.328125 C 415.332031 194.332031 410.914062 187.996094 404.347656 185.574219 L 320.449219 154.796875 L 481.085938 133.613281 L 481.085938 139.644531 C 481.085938 144.347656 491.082031 145.605469 496.996094 145.605469 C 502.90625 145.605469 512.910156 144.347656 512.910156 139.644531 L 512.910156 135.257812 L 591.59375 164.128906 C 596.746094 166.019531 600.203125 170.984375 600.203125 176.476562 L 600.203125 280.386719 C 600.203125 284.777344 598.394531 289.042969 595.234375 292.082031 L 572.242188 314.214844 C 569.898438 316.46875 568.550781 319.628906 568.550781 322.882812 L 568.550781 720.769531 C 568.550781 739.652344 579.019531 756.667969 595.539062 765.265625 Z M 317.25 771.777344 C 313.90625 770.542969 311.65625 767.320312 311.65625 763.753906 L 311.65625 156.765625 C 311.65625 156.339844 311.90625 156.105469 312.058594 156.003906 C 312.160156 155.925781 312.34375 155.832031 312.578125 155.832031 C 312.679688 155.832031 312.789062 155.851562 312.910156 155.894531 L 403.089844 188.980469 C 408.246094 190.878906 411.703125 195.84375 411.703125 201.328125 L 411.703125 305.246094 C 411.703125 309.628906 409.890625 313.894531 406.726562 316.933594 L 383.742188 339.066406 C 381.394531 341.320312 380.046875 344.488281 380.046875 347.742188 L 380.046875 745.621094 C 380.046875 765.964844 392.183594 784.15625 410.957031 791.96875 C 411.402344 792.152344 411.703125 792.625 411.703125 793.136719 L 411.703125 806.167969 C 411.703125 806.195312 411.703125 806.269531 411.625 806.320312 C 411.542969 806.378906 411.480469 806.351562 411.449219 806.347656 Z M 496.996094 3.621094 C 504.0625 3.621094 508.15625 5.121094 509.132812 5.949219 C 508.15625 6.777344 504.0625 8.28125 496.996094 8.28125 C 489.925781 8.28125 485.832031 6.777344 484.855469 5.949219 C 485.832031 5.121094 489.925781 3.621094 496.996094 3.621094 Z M 484.707031 9.960938 C 488.160156 11.429688 493.351562 11.910156 496.996094 11.910156 C 500.636719 11.910156 505.828125 11.429688 509.28125 9.960938 L 509.28125 139.496094 C 508.65625 140.277344 504.507812 141.976562 496.996094 141.976562 C 489.488281 141.976562 485.335938 140.277344 484.707031 139.496094 Z M 574.761719 316.824219 L 597.75 294.695312 C 601.617188 290.976562 603.832031 285.757812 603.832031 280.386719 L 603.832031 176.476562 C 603.832031 169.472656 599.417969 163.140625 592.84375 160.71875 L 512.910156 131.394531 L 512.910156 5.949219 C 512.910156 1.253906 502.90625 -0.0078125 496.996094 -0.0078125 C 491.082031 -0.0078125 481.085938 1.253906 481.085938 5.949219 L 481.085938 129.949219 L 312.027344 152.246094 C 312.011719 152.246094 311.992188 152.246094 311.980469 152.253906 L 311.875 152.265625 L 311.875 152.277344 C 311.207031 152.386719 310.550781 152.628906 309.980469 153.023438 C 308.757812 153.875 308.027344 155.273438 308.027344 156.765625 L 308.027344 763.753906 C 308.027344 768.839844 311.230469 773.429688 316 775.183594 L 410.195312 809.746094 C 410.621094 809.90625 411.074219 809.980469 411.519531 809.980469 C 411.644531 809.980469 411.773438 809.9375 411.90625 809.925781 L 411.910156 809.96875 L 600.421875 785.109375 L 600.605469 785.085938 C 602.480469 784.792969 603.832031 783.210938 603.832031 781.316406 L 603.832031 768.28125 C 603.832031 766.289062 602.664062 764.515625 600.859375 763.765625 C 583.4375 756.519531 572.1875 739.640625 572.1875 720.769531 L 572.1875 322.882812 C 572.1875 320.609375 573.121094 318.402344 574.761719 316.824219 Z M 589.996094 169.523438 L 589.527344 165.925781 L 423.996094 187.753906 L 424.464844 191.351562 Z M 531.214844 609.371094 C 533.050781 609.128906 533.890625 610.617188 533.878906 612.746094 C 533.878906 613.011719 533.820312 613.210938 533.738281 613.375 C 533.261719 614.175781 532.347656 614.851562 531.171875 615.007812 C 529.652344 615.210938 528.671875 614.253906 528.667969 612.714844 C 528.667969 610.964844 529.714844 609.566406 531.191406 609.378906 Z M 528.050781 621.28125 C 528.449219 621.25 529.027344 621.136719 529.671875 620.972656 C 531.0625 620.632812 532.4375 619.863281 533.433594 618.824219 C 534.710938 617.46875 535.660156 615.441406 535.652344 612.722656 C 535.644531 609.542969 534.007812 607.726562 531.347656 608.074219 C 528.699219 608.429688 526.90625 610.71875 526.914062 613.046875 C 526.917969 615.175781 528.417969 616.648438 530.75 616.335938 C 532.066406 616.164062 533.101562 615.53125 533.820312 614.601562 L 533.886719 614.589844 C 533.648438 616.089844 533.027344 617.234375 532.175781 618.109375 C 531.4375 618.875 530.484375 619.402344 529.46875 619.648438 C 528.863281 619.800781 528.425781 619.882812 528.050781 619.917969 Z M 474.644531 616.605469 C 476.203125 616.394531 476.828125 617.34375 476.828125 618.332031 C 476.832031 619.453125 475.976562 620.328125 474.863281 620.835938 C 473.363281 620.660156 472.363281 620.121094 472.378906 618.886719 C 472.378906 617.820312 473.171875 616.800781 474.632812 616.605469 Z M 474.613281 626.976562 C 472.980469 627.195312 471.984375 626.222656 472.035156 624.980469 C 472.035156 623.800781 472.847656 622.71875 474.367188 622.101562 C 476.121094 622.34375 477.21875 622.941406 477.21875 624.429688 C 477.226562 625.699219 476.210938 626.769531 474.640625 626.976562 Z M 474.710938 615.398438 C 472.433594 615.703125 470.699219 617.257812 470.707031 619.222656 C 470.707031 620.285156 471.328125 621.269531 472.789062 621.722656 L 472.789062 621.785156 C 471.214844 622.636719 470.234375 623.886719 470.242188 625.445312 C 470.246094 627.25 471.886719 628.558594 474.601562 628.199219 C 477.074219 627.875 479.007812 626.191406 479 624.023438 C 478.992188 622.535156 477.996094 621.5625 476.382812 621.167969 L 476.382812 621.109375 C 477.96875 620.195312 478.53125 618.980469 478.523438 617.9375 C 478.523438 616.375 477.238281 615.058594 474.722656 615.398438 Z M 415.535156 624.332031 L 415.542969 625.726562 L 421.882812 624.878906 L 421.882812 624.925781 L 416.304688 636.601562 L 418.101562 636.367188 L 423.722656 624.359375 L 423.714844 623.253906 Z M 531.394531 580.757812 C 529.5625 580.996094 528.558594 579.605469 528.539062 577.570312 C 528.535156 577.265625 528.617188 577.03125 528.710938 576.828125 C 529.195312 575.847656 530.1875 575.105469 531.246094 574.964844 C 532.863281 574.757812 533.917969 575.675781 533.921875 577.449219 C 533.929688 579.21875 532.917969 580.554688 531.417969 580.75 Z M 534.398438 568.875 C 534.082031 568.921875 533.644531 568.996094 533.128906 569.144531 C 531.488281 569.550781 530.050781 570.371094 528.976562 571.519531 C 527.6875 572.914062 526.792969 574.945312 526.796875 577.386719 C 526.804688 580.597656 528.628906 582.414062 531.378906 582.046875 C 534.09375 581.691406 535.710938 579.382812 535.703125 577.101562 C 535.691406 574.707031 534.074219 573.320312 531.78125 573.625 C 530.34375 573.816406 529.246094 574.601562 528.628906 575.488281 L 528.589844 575.492188 C 528.882812 573.394531 530.3125 571.304688 533.089844 570.515625 C 533.585938 570.375 534.042969 570.28125 534.40625 570.25 Z M 478.117188 576.34375 L 471.914062 577.164062 L 471.09375 583.214844 C 471.570312 583.070312 472.148438 582.9375 472.90625 582.835938 C 475.480469 582.496094 476.625 583.488281 476.625 585.066406 C 476.648438 586.738281 475.210938 587.957031 473.578125 588.171875 C 472.382812 588.328125 471.320312 588.089844 470.78125 587.855469 L 470.351562 589.191406 C 470.984375 589.484375 472.167969 589.710938 473.578125 589.519531 C 476.402344 589.144531 478.410156 587.074219 478.394531 584.660156 C 478.394531 583.101562 477.558594 582.128906 476.539062 581.730469 C 475.738281 581.378906 474.761719 581.296875 473.742188 581.4375 C 473.261719 581.492188 472.980469 581.570312 472.683594 581.652344 L 473.171875 578.40625 L 478.125 577.75 Z M 416.496094 593.085938 L 416.496094 593.050781 L 419.652344 588.421875 C 420.015625 587.804688 420.332031 587.234375 420.734375 586.457031 L 420.792969 586.453125 C 420.753906 587.097656 420.734375 587.746094 420.734375 588.394531 L 420.746094 592.519531 Z M 422.410156 596.984375 L 422.40625 593.601562 L 424.222656 593.359375 L 424.21875 592.0625 L 422.398438 592.304688 L 422.378906 584.621094 L 420.484375 584.867188 L 414.722656 593.53125 L 414.722656 594.617188 L 420.753906 593.816406 L 420.757812 597.207031 Z M 526.976562 540.496094 C 527.613281 540.808594 528.890625 541.074219 530.351562 540.882812 C 533.441406 540.472656 535.074219 538.527344 535.066406 536.550781 C 535.0625 534.820312 533.765625 533.847656 532.164062 533.773438 L 532.164062 533.734375 C 533.738281 532.976562 534.550781 531.78125 534.550781 530.484375 C 534.546875 528.984375 533.390625 527.695312 530.835938 528.03125 C 529.4375 528.214844 528.121094 528.863281 527.425781 529.4375 L 527.902344 530.585938 C 528.464844 530.136719 529.460938 529.5625 530.496094 529.429688 C 532.113281 529.214844 532.773438 530.003906 532.773438 530.996094 C 532.777344 532.457031 531.164062 533.296875 529.894531 533.46875 L 528.910156 533.59375 L 528.914062 534.851562 L 529.894531 534.71875 C 531.589844 534.496094 533.222656 535.023438 533.25 536.746094 C 533.273438 537.796875 532.558594 539.238281 530.324219 539.535156 C 529.085938 539.703125 527.949219 539.371094 527.445312 539.15625 Z M 478.6875 547.335938 L 478.6875 545.949219 L 472.878906 546.714844 L 472.878906 546.679688 L 473.894531 545.632812 C 476.625 542.757812 478.351562 540.679688 478.34375 538.398438 C 478.34375 536.632812 477.164062 534.960938 474.386719 535.328125 C 472.890625 535.527344 471.59375 536.25 470.71875 537.070312 L 471.277344 538.175781 C 471.875 537.617188 472.855469 536.925781 474.03125 536.765625 C 475.96875 536.511719 476.589844 537.59375 476.589844 538.84375 C 476.597656 540.707031 475.085938 542.503906 471.78125 545.949219 L 470.40625 547.40625 L 470.40625 548.433594 Z M 419.136719 556.113281 L 420.835938 555.890625 L 420.804688 543.523438 L 419.308594 543.726562 L 416.476562 545.542969 L 416.820312 546.769531 L 419.074219 545.316406 L 419.113281 545.316406 Z M 497.324219 707.335938 C 497.324219 714.628906 491.640625 720.566406 484.664062 720.566406 C 477.679688 720.566406 471.996094 714.628906 471.996094 707.335938 C 471.996094 700.039062 477.679688 694.105469 484.664062 694.105469 C 491.640625 694.105469 497.324219 700.039062 497.324219 707.335938 Z M 499.746094 707.335938 C 499.746094 698.707031 492.976562 691.6875 484.664062 691.6875 C 476.34375 691.6875 469.574219 698.707031 469.574219 707.335938 C 469.574219 715.964844 476.34375 722.988281 484.664062 722.988281 C 492.976562 722.988281 499.746094 715.964844 499.746094 707.335938 Z M 470.78125 707.335938 C 470.78125 715.308594 477 721.773438 484.664062 721.773438 C 492.324219 721.773438 498.539062 715.308594 498.539062 707.335938 C 498.539062 699.359375 492.324219 692.898438 484.664062 692.898438 C 477 692.898438 470.78125 699.359375 470.78125 707.335938 Z M 460.683594 715.003906 C 461.984375 719.796875 464.597656 724.078125 468.1875 727.367188 L 417.117188 734.097656 C 414.25 730.316406 412.164062 726.105469 410.90625 721.570312 Z M 474.285156 729 L 471.832031 727.21875 C 467.265625 723.914062 464.050781 719 462.773438 713.394531 L 462.53125 712.320312 L 407.90625 719.523438 L 408.21875 720.824219 C 409.558594 726.429688 412.058594 731.578125 415.636719 736.136719 L 416.0625 736.675781 Z M 409.394531 720.546875 C 410.714844 726.0625 413.214844 731.097656 416.589844 735.386719 L 471.117188 728.199219 C 466.414062 724.785156 462.957031 719.648438 461.597656 713.660156 Z M 552.671875 702.875 C 552.621094 707.605469 551.707031 712.210938 549.933594 716.585938 L 505.28125 722.476562 C 507.957031 718.371094 509.464844 713.542969 509.574219 708.550781 Z M 551.625 718.804688 L 551.890625 718.167969 C 554.015625 713.191406 555.09375 707.921875 555.09375 702.5 C 555.09375 702.277344 555.082031 702.054688 555.078125 701.832031 L 555.03125 700.125 L 507.140625 706.433594 L 507.164062 707.949219 C 507.164062 713.574219 505.21875 719.015625 501.691406 723.273438 L 499.726562 725.648438 Z M 502.625 724.046875 L 550.78125 717.691406 C 552.777344 713.007812 553.882812 707.871094 553.882812 702.5 C 553.882812 702.164062 553.863281 701.832031 553.855469 701.496094 L 508.359375 707.496094 C 508.367188 707.648438 508.371094 707.796875 508.371094 707.949219 C 508.371094 714.101562 506.203125 719.71875 502.625 724.046875 Z M 545.523438 680.445312 C 548.292969 684.257812 550.296875 688.472656 551.464844 693.011719 L 507.953125 698.75 C 506.152344 693.851562 502.910156 689.585938 498.753906 686.617188 Z M 554.429688 695.0625 L 554.140625 693.773438 C 552.894531 688.179688 550.507812 683.011719 547.035156 678.425781 L 546.609375 677.863281 L 491.253906 685.160156 L 494.660156 686.933594 C 499.96875 689.679688 504.09375 694.613281 505.980469 700.453125 L 506.292969 701.40625 Z M 507.132812 700.078125 L 552.960938 694.035156 C 551.734375 688.523438 549.34375 683.484375 546.070312 679.15625 L 495.222656 685.859375 C 500.800781 688.753906 505.125 693.863281 507.132812 700.078125 Z M 465.867188 690.953125 C 462.53125 694.910156 460.453125 699.800781 459.898438 705.085938 L 409.535156 711.730469 C 409.535156 711.648438 409.535156 711.558594 409.535156 711.46875 C 409.535156 706.859375 410.367188 702.347656 412.011719 698.050781 Z M 462.15625 707.230469 L 462.226562 706.246094 C 462.660156 699.996094 465.40625 694.300781 469.957031 690.195312 L 472.855469 687.589844 L 410.289062 695.839844 L 410.023438 696.496094 C 408.089844 701.273438 407.113281 706.3125 407.113281 711.46875 C 407.113281 712.035156 407.132812 712.59375 407.15625 713.152344 L 407.214844 714.476562 Z M 408.320312 711.46875 C 408.320312 712.015625 408.347656 712.5625 408.363281 713.101562 L 461.019531 706.160156 C 461.484375 699.429688 464.535156 693.457031 469.148438 689.292969 L 411.148438 696.945312 C 409.324219 701.445312 408.320312 706.351562 408.320312 711.46875 Z M 543.132812 727.5 C 537.144531 734.238281 529.042969 738.550781 520.015625 739.742188 L 452.007812 748.710938 C 442.972656 749.90625 434.019531 747.839844 426.5 742.882812 Z M 452.324219 751.105469 L 520.332031 742.144531 C 531.003906 740.734375 540.46875 735.226562 546.980469 726.628906 L 548.726562 724.320312 L 420.28125 741.261719 L 422.566406 743.035156 C 429.652344 748.550781 438.175781 751.457031 447.003906 751.457031 C 448.765625 751.457031 450.542969 751.339844 452.324219 751.105469 Z M 423.308594 742.082031 C 431.164062 748.195312 441.378906 751.335938 452.164062 749.910156 L 520.175781 740.941406 C 530.800781 739.539062 539.941406 733.917969 546.011719 725.898438 Z M 536.484375 671.617188 L 418.445312 687.183594 C 424.445312 680.113281 432.949219 675.441406 442.1875 674.222656 L 510.195312 665.261719 C 511.878906 665.039062 513.558594 664.929688 515.21875 664.929688 C 522.839844 664.929688 530.179688 667.230469 536.484375 671.617188 Z M 542.511719 673.261719 L 540.335938 671.496094 C 531.710938 664.472656 520.894531 661.410156 509.882812 662.859375 L 441.867188 671.832031 C 431.011719 673.261719 421.101562 679.175781 414.683594 688.058594 L 413.035156 690.335938 Z M 415.660156 688.773438 C 421.730469 680.382812 431.09375 674.46875 442.027344 673.027344 L 510.035156 664.058594 C 521.136719 662.597656 531.628906 665.964844 539.574219 672.429688 L 415.660156 688.773438 " fill-opacity="1" fill-rule="nonzero"/></g></svg>