<svg xmlns="http://www.w3.org/2000/svg" xmlns:xlink="http://www.w3.org/1999/xlink" width="40" zoomAndPan="magnify" viewBox="0 0 30 30.000001" height="40" preserveAspectRatio="xMidYMid meet" version="1.0"><defs><clipPath id="67206b1d33"><path d="M 1.644531 0 L 28.5 0 L 28.5 29 L 1.644531 29 Z M 1.644531 0 " clip-rule="nonzero"/></clipPath></defs><g clip-path="url(#67206b1d33)"><path fill="#8e7dbe" d="M 13.734375 0.125 C 6.503906 0.125 1.644531 2.804688 1.644531 5.304688 C 1.644531 7.808594 6.503906 10.488281 13.734375 10.488281 C 20.964844 10.488281 25.820312 7.808594 25.820312 5.304688 C 25.820312 2.804688 20.964844 0.125 13.734375 0.125 Z M 1.644531 7.960938 L 1.644531 11.148438 C 1.644531 13.609375 6.503906 16.242188 13.734375 16.242188 C 20.964844 16.242188 25.820312 13.609375 25.820312 11.148438 L 25.820312 7.960938 C 23.707031 10.121094 19.152344 11.636719 13.734375 11.636719 C 8.316406 11.636719 3.757812 10.121094 1.644531 7.960938 Z M 1.644531 13.890625 L 1.644531 16.929688 C 1.644531 18.917969 4.820312 21.003906 9.855469 21.730469 L 9.914062 21.421875 L 13.941406 21.421875 C 14.644531 21.421875 15.273438 21.601562 15.789062 21.917969 C 15.851562 21.914062 15.914062 21.910156 15.976562 21.90625 L 16.558594 19.121094 L 20.421875 19.121094 L 19.976562 21.253906 C 23.617188 20.304688 25.820312 18.585938 25.820312 16.929688 L 25.820312 13.890625 C 23.707031 16.046875 19.152344 17.394531 13.734375 17.394531 C 8.316406 17.394531 3.757812 16.046875 1.644531 13.890625 Z M 1.644531 19.671875 L 1.644531 22.660156 C 1.644531 24.511719 4.390625 26.457031 8.828125 27.3125 L 9.644531 22.878906 C 6.078125 22.390625 3.199219 21.257812 1.644531 19.671875 Z M 25.820312 19.671875 C 25.164062 20.339844 24.273438 20.929688 23.195312 21.421875 L 25.820312 21.421875 Z M 17.492188 20.273438 L 16.050781 27.179688 L 17.5625 27.179688 L 18.292969 23.726562 L 19.5 23.726562 C 19.882812 23.726562 20.136719 23.789062 20.257812 23.917969 C 20.375 24.046875 20.398438 24.289062 20.332031 24.636719 L 19.78125 27.179688 L 21.316406 27.179688 L 21.914062 24.429688 C 22.039062 23.769531 21.945312 23.285156 21.625 22.992188 C 21.300781 22.695312 20.726562 22.574219 19.871094 22.574219 L 18.523438 22.574219 L 19.003906 20.273438 Z M 10.871094 22.574219 L 9.703125 28.90625 L 11.226562 28.90625 L 11.53125 27.179688 L 12.476562 27.179688 C 14.460938 27.179688 15.539062 26.71875 15.945312 25.015625 C 16.289062 23.554688 15.402344 22.574219 13.941406 22.574219 Z M 22.957031 22.574219 L 21.789062 28.90625 L 23.3125 28.90625 L 23.617188 27.179688 L 24.5625 27.179688 C 26.546875 27.179688 27.628906 26.71875 28.03125 25.015625 C 28.378906 23.554688 27.492188 22.574219 26.027344 22.574219 Z M 12.179688 23.726562 L 13.363281 23.726562 C 14.347656 23.726562 14.554688 24.167969 14.503906 24.660156 C 14.371094 25.933594 13.582031 26.027344 12.730469 26.027344 L 11.746094 26.027344 Z M 24.265625 23.726562 L 25.453125 23.726562 C 26.433594 23.726562 26.640625 24.167969 26.589844 24.660156 C 26.460938 25.933594 25.667969 26.027344 24.816406 26.027344 L 23.832031 26.027344 Z M 24.265625 23.726562 " fill-opacity="1" fill-rule="nonzero"/></g></svg>