<svg xmlns="http://www.w3.org/2000/svg" xmlns:xlink="http://www.w3.org/1999/xlink" width="1080" zoomAndPan="magnify" viewBox="0 0 810 809.999993" height="1080" preserveAspectRatio="xMidYMid meet" version="1.0"><defs><clipPath id="50115efa1d"><path d="M 0 12.285156 L 810 12.285156 L 810 791 L 0 791 Z M 0 12.285156 " clip-rule="nonzero"/></clipPath></defs><g clip-path="url(#50115efa1d)"><path fill="#e6e6e6" d="M 518.730469 790.515625 C 555.445312 785.039062 587.597656 763.066406 606.203125 731.054688 C 613.503906 748.183594 627.683594 761.589844 645.164062 768.261719 L 810 192.808594 C 534.523438 113.898438 479.625 98.035156 180.210938 12.386719 L 0 641.964844 Z M 518.730469 790.515625 " fill-opacity="1" fill-rule="evenodd"/></g><path fill="#8e7dbe" d="M 92.105469 464.492188 L 645.585938 622.941406 L 761 219.90625 L 207.519531 61.386719 Z M 92.105469 464.492188 " fill-opacity="1" fill-rule="evenodd"/><path fill="#b3b3b3" d="M 518.730469 790.515625 C 562.183594 797.605469 606.832031 789.671875 645.164062 768.191406 C 627.683594 761.589844 613.503906 748.113281 606.203125 730.984375 C 587.597656 763.066406 555.375 785.039062 518.730469 790.515625 Z M 518.730469 790.515625 " fill-opacity="1" fill-rule="evenodd"/><path fill="#99c1b9" d="M 472.324219 83.855469 C 448.246094 97.261719 431.605469 113.128906 435.117188 119.585938 C 438.347656 125.554688 457.089844 121.34375 478.433594 110.53125 L 501.878906 142.683594 L 504.335938 134.117188 L 491.699219 103.230469 C 512.199219 90.804688 525.46875 77.042969 522.238281 71.21875 C 518.730469 64.898438 496.402344 70.445312 472.324219 83.855469 Z M 472.324219 83.855469 " fill-opacity="1" fill-rule="evenodd"/></svg>