<svg xmlns="http://www.w3.org/2000/svg" xmlns:xlink="http://www.w3.org/1999/xlink" width="1080" zoomAndPan="magnify" viewBox="0 0 810 809.999993" height="1080" preserveAspectRatio="xMidYMid meet" version="1.0"><defs><clipPath id="60136858a5"><path d="M 54.703125 81 L 755.203125 81 L 755.203125 755 L 54.703125 755 Z M 54.703125 81 " clip-rule="nonzero"/></clipPath></defs><g clip-path="url(#60136858a5)"><path fill="#e6e6e6" d="M 503.367188 754.113281 C 535.125 749.378906 562.933594 730.375 579.023438 702.683594 C 585.339844 717.5 597.605469 729.097656 612.722656 734.867188 L 755.296875 237.140625 C 517.027344 168.890625 469.546875 155.167969 210.570312 81.089844 L 54.703125 625.628906 Z M 503.367188 754.113281 " fill-opacity="1" fill-rule="evenodd"/></g><path fill="#99c1b9" d="M 134.367188 472.128906 L 613.089844 609.175781 L 712.914062 260.578125 L 234.191406 123.472656 Z M 134.367188 472.128906 " fill-opacity="1" fill-rule="evenodd"/><path fill="#b3b3b3" d="M 503.367188 754.113281 C 540.953125 760.246094 579.570312 753.386719 612.722656 734.804688 C 597.605469 729.097656 585.339844 717.441406 579.023438 702.625 C 562.933594 730.375 535.0625 749.378906 503.367188 754.113281 Z M 503.367188 754.113281 " fill-opacity="1" fill-rule="evenodd"/><path fill="#8e7dbe" d="M 463.230469 142.902344 C 442.402344 154.5 428.011719 168.222656 431.046875 173.808594 C 433.839844 178.96875 450.054688 175.328125 468.511719 165.976562 L 488.792969 193.785156 L 490.917969 186.378906 L 479.988281 159.660156 C 497.71875 148.914062 509.195312 137.011719 506.402344 131.972656 C 503.367188 126.507812 484.058594 131.304688 463.230469 142.902344 Z M 463.230469 142.902344 " fill-opacity="1" fill-rule="evenodd"/></svg>