<svg xmlns="http://www.w3.org/2000/svg" xmlns:xlink="http://www.w3.org/1999/xlink" width="1080" zoomAndPan="magnify" viewBox="0 0 810 809.999993" height="1080" preserveAspectRatio="xMidYMid meet" version="1.0"><path fill="#ffdde7" d="M 0 199.824219 L 0 751.589844 C 0 783.851562 26.210938 809.902344 58.324219 809.902344 L 668.84375 809.902344 C 701.113281 809.902344 727.171875 783.851562 727.171875 751.589844 L 727.171875 199.824219 Z M 0 199.824219 " fill-opacity="1" fill-rule="nonzero"/><path fill="#eac1fc" d="M 92.410156 809.902344 L 58.324219 809.902344 C 26.210938 809.902344 0 783.851562 0 751.589844 L 0 199.824219 L 34.085938 199.824219 L 34.085938 751.589844 C 34.085938 783.851562 60.296875 809.902344 92.410156 809.902344 Z M 92.410156 809.902344 " fill-opacity="1" fill-rule="nonzero"/><path fill="#788d59" d="M 727.171875 139.546875 L 727.171875 201.039062 L 0 201.039062 L 0 139.546875 C 0 107.285156 26.210938 81.234375 58.324219 81.234375 L 668.84375 81.234375 C 701.113281 81.234375 727.171875 107.285156 727.171875 139.546875 Z M 727.171875 139.546875 " fill-opacity="1" fill-rule="nonzero"/><path fill="#423544" d="M 92.410156 81.234375 C 60.296875 81.234375 34.085938 107.285156 34.085938 139.546875 L 34.085938 201.039062 L 0 201.039062 L 0 139.546875 C 0 107.285156 26.210938 81.234375 58.324219 81.234375 Z M 92.410156 81.234375 " fill-opacity="1" fill-rule="nonzero"/><path fill="#ffdde7" d="M 103.210938 140.816406 C 103.210938 141.511719 103.179688 142.203125 103.109375 142.894531 C 103.042969 143.582031 102.941406 144.265625 102.804688 144.945312 C 102.667969 145.625 102.5 146.296875 102.300781 146.960938 C 102.097656 147.625 101.867188 148.277344 101.601562 148.917969 C 101.335938 149.558594 101.039062 150.183594 100.710938 150.792969 C 100.386719 151.40625 100.03125 152 99.644531 152.574219 C 99.257812 153.152344 98.847656 153.707031 98.40625 154.242188 C 97.96875 154.78125 97.503906 155.292969 97.011719 155.78125 C 96.523438 156.273438 96.007812 156.738281 95.472656 157.175781 C 94.9375 157.617188 94.378906 158.03125 93.804688 158.414062 C 93.226562 158.800781 92.632812 159.15625 92.023438 159.480469 C 91.410156 159.808594 90.785156 160.105469 90.144531 160.371094 C 89.503906 160.636719 88.851562 160.867188 88.1875 161.070312 C 87.523438 161.269531 86.855469 161.4375 86.171875 161.574219 C 85.492188 161.710938 84.808594 161.8125 84.117188 161.878906 C 83.429688 161.945312 82.738281 161.980469 82.042969 161.980469 C 81.351562 161.980469 80.660156 161.945312 79.96875 161.878906 C 79.28125 161.8125 78.59375 161.710938 77.914062 161.574219 C 77.234375 161.4375 76.5625 161.269531 75.898438 161.070312 C 75.234375 160.867188 74.585938 160.636719 73.945312 160.371094 C 73.304688 160.105469 72.675781 159.808594 72.066406 159.480469 C 71.453125 159.15625 70.859375 158.800781 70.285156 158.414062 C 69.707031 158.03125 69.152344 157.617188 68.617188 157.175781 C 68.078125 156.738281 67.566406 156.273438 67.078125 155.78125 C 66.585938 155.292969 66.121094 154.78125 65.679688 154.242188 C 65.242188 153.707031 64.828125 153.152344 64.445312 152.574219 C 64.058594 152 63.703125 151.40625 63.375 150.792969 C 63.050781 150.183594 62.753906 149.558594 62.488281 148.917969 C 62.222656 148.277344 61.988281 147.625 61.789062 146.960938 C 61.585938 146.296875 61.417969 145.625 61.28125 144.945312 C 61.148438 144.265625 61.046875 143.582031 60.976562 142.894531 C 60.910156 142.203125 60.875 141.511719 60.875 140.816406 C 60.875 140.125 60.910156 139.433594 60.976562 138.742188 C 61.046875 138.054688 61.148438 137.371094 61.28125 136.691406 C 61.417969 136.011719 61.585938 135.339844 61.789062 134.675781 C 61.988281 134.011719 62.222656 133.359375 62.488281 132.71875 C 62.753906 132.078125 63.050781 131.453125 63.375 130.84375 C 63.703125 130.230469 64.058594 129.636719 64.445312 129.0625 C 64.828125 128.484375 65.242188 127.929688 65.679688 127.394531 C 66.121094 126.855469 66.585938 126.34375 67.078125 125.855469 C 67.566406 125.363281 68.078125 124.898438 68.617188 124.460938 C 69.152344 124.019531 69.707031 123.605469 70.285156 123.222656 C 70.859375 122.835938 71.453125 122.480469 72.066406 122.15625 C 72.675781 121.828125 73.304688 121.53125 73.945312 121.265625 C 74.585938 121 75.234375 120.769531 75.898438 120.566406 C 76.5625 120.367188 77.234375 120.195312 77.914062 120.0625 C 78.59375 119.925781 79.28125 119.824219 79.96875 119.757812 C 80.660156 119.6875 81.351562 119.65625 82.042969 119.65625 C 82.738281 119.65625 83.429688 119.6875 84.117188 119.757812 C 84.808594 119.824219 85.492188 119.925781 86.171875 120.0625 C 86.855469 120.195312 87.523438 120.367188 88.1875 120.566406 C 88.851562 120.769531 89.503906 121 90.144531 121.265625 C 90.785156 121.53125 91.410156 121.828125 92.023438 122.152344 C 92.632812 122.480469 93.226562 122.835938 93.804688 123.222656 C 94.378906 123.605469 94.9375 124.019531 95.472656 124.460938 C 96.007812 124.898438 96.523438 125.363281 97.011719 125.855469 C 97.503906 126.34375 97.96875 126.855469 98.40625 127.394531 C 98.847656 127.929688 99.257812 128.484375 99.644531 129.0625 C 100.03125 129.636719 100.386719 130.230469 100.710938 130.84375 C 101.039062 131.453125 101.335938 132.078125 101.601562 132.71875 C 101.867188 133.359375 102.097656 134.011719 102.300781 134.675781 C 102.5 135.339844 102.667969 136.011719 102.804688 136.691406 C 102.941406 137.371094 103.042969 138.054688 103.109375 138.742188 C 103.179688 139.433594 103.210938 140.125 103.210938 140.816406 Z M 103.210938 140.816406 " fill-opacity="1" fill-rule="nonzero"/><path fill="#ffdde7" d="M 168.871094 140.816406 C 168.871094 141.511719 168.835938 142.203125 168.769531 142.894531 C 168.699219 143.582031 168.597656 144.265625 168.464844 144.945312 C 168.328125 145.625 168.160156 146.296875 167.960938 146.960938 C 167.757812 147.625 167.523438 148.277344 167.257812 148.917969 C 166.992188 149.558594 166.699219 150.183594 166.371094 150.792969 C 166.042969 151.40625 165.6875 152 165.304688 152.574219 C 164.917969 153.152344 164.503906 153.707031 164.066406 154.242188 C 163.625 154.78125 163.160156 155.292969 162.671875 155.78125 C 162.179688 156.273438 161.667969 156.738281 161.132812 157.175781 C 160.59375 157.617188 160.039062 158.03125 159.464844 158.414062 C 158.886719 158.800781 158.292969 159.15625 157.679688 159.480469 C 157.070312 159.808594 156.445312 160.105469 155.804688 160.371094 C 155.164062 160.636719 154.511719 160.867188 153.847656 161.070312 C 153.183594 161.269531 152.511719 161.4375 151.832031 161.574219 C 151.152344 161.710938 150.46875 161.8125 149.777344 161.878906 C 149.085938 161.945312 148.394531 161.980469 147.703125 161.980469 C 147.007812 161.980469 146.316406 161.945312 145.628906 161.878906 C 144.9375 161.8125 144.253906 161.710938 143.574219 161.574219 C 142.894531 161.4375 142.222656 161.269531 141.558594 161.070312 C 140.894531 160.867188 140.242188 160.636719 139.601562 160.371094 C 138.960938 160.105469 138.335938 159.808594 137.722656 159.480469 C 137.113281 159.15625 136.519531 158.800781 135.941406 158.414062 C 135.367188 158.03125 134.808594 157.617188 134.273438 157.175781 C 133.738281 156.738281 133.226562 156.273438 132.734375 155.78125 C 132.246094 155.292969 131.78125 154.78125 131.339844 154.242188 C 130.898438 153.707031 130.488281 153.152344 130.101562 152.574219 C 129.71875 152 129.363281 151.40625 129.035156 150.792969 C 128.707031 150.183594 128.410156 149.558594 128.144531 148.917969 C 127.882812 148.277344 127.648438 147.625 127.445312 146.960938 C 127.246094 146.296875 127.078125 145.625 126.941406 144.945312 C 126.804688 144.265625 126.703125 143.582031 126.636719 142.894531 C 126.570312 142.203125 126.535156 141.511719 126.535156 140.816406 C 126.535156 140.125 126.570312 139.433594 126.636719 138.742188 C 126.703125 138.054688 126.804688 137.371094 126.941406 136.691406 C 127.078125 136.011719 127.246094 135.339844 127.445312 134.675781 C 127.648438 134.011719 127.882812 133.359375 128.144531 132.71875 C 128.410156 132.078125 128.707031 131.453125 129.035156 130.84375 C 129.363281 130.230469 129.71875 129.636719 130.101562 129.0625 C 130.488281 128.484375 130.898438 127.929688 131.339844 127.394531 C 131.78125 126.855469 132.246094 126.34375 132.734375 125.855469 C 133.226562 125.363281 133.738281 124.898438 134.273438 124.460938 C 134.808594 124.019531 135.367188 123.605469 135.941406 123.222656 C 136.519531 122.835938 137.113281 122.480469 137.722656 122.15625 C 138.335938 121.828125 138.960938 121.53125 139.601562 121.265625 C 140.242188 121 140.894531 120.769531 141.558594 120.566406 C 142.222656 120.367188 142.894531 120.195312 143.574219 120.0625 C 144.253906 119.925781 144.9375 119.824219 145.628906 119.757812 C 146.316406 119.6875 147.007812 119.65625 147.703125 119.65625 C 148.394531 119.65625 149.085938 119.6875 149.777344 119.757812 C 150.46875 119.824219 151.152344 119.925781 151.832031 120.0625 C 152.511719 120.195312 153.183594 120.367188 153.847656 120.566406 C 154.511719 120.769531 155.164062 121 155.804688 121.265625 C 156.445312 121.53125 157.070312 121.828125 157.679688 122.152344 C 158.292969 122.480469 158.886719 122.835938 159.464844 123.222656 C 160.039062 123.605469 160.59375 124.019531 161.132812 124.460938 C 161.667969 124.898438 162.179688 125.363281 162.671875 125.855469 C 163.160156 126.34375 163.625 126.855469 164.066406 127.394531 C 164.503906 127.929688 164.917969 128.484375 165.304688 129.0625 C 165.6875 129.636719 166.042969 130.230469 166.371094 130.84375 C 166.699219 131.453125 166.992188 132.078125 167.257812 132.71875 C 167.523438 133.359375 167.757812 134.011719 167.960938 134.675781 C 168.160156 135.339844 168.328125 136.011719 168.464844 136.691406 C 168.597656 137.371094 168.699219 138.054688 168.769531 138.742188 C 168.835938 139.433594 168.871094 140.125 168.871094 140.816406 Z M 168.871094 140.816406 " fill-opacity="1" fill-rule="nonzero"/><path fill="#ffdde7" d="M 234.53125 140.816406 C 234.53125 141.511719 234.496094 142.203125 234.425781 142.894531 C 234.359375 143.582031 234.257812 144.265625 234.121094 144.945312 C 233.988281 145.625 233.820312 146.296875 233.617188 146.960938 C 233.417969 147.625 233.183594 148.277344 232.917969 148.917969 C 232.652344 149.558594 232.355469 150.183594 232.03125 150.792969 C 231.703125 151.40625 231.347656 152 230.960938 152.574219 C 230.578125 153.152344 230.164062 153.707031 229.726562 154.242188 C 229.285156 154.78125 228.820312 155.292969 228.328125 155.78125 C 227.839844 156.273438 227.328125 156.738281 226.789062 157.175781 C 226.253906 157.617188 225.699219 158.03125 225.121094 158.414062 C 224.546875 158.800781 223.953125 159.15625 223.339844 159.480469 C 222.730469 159.808594 222.101562 160.105469 221.460938 160.371094 C 220.820312 160.636719 220.167969 160.867188 219.507812 161.070312 C 218.84375 161.269531 218.171875 161.4375 217.492188 161.574219 C 216.8125 161.710938 216.125 161.8125 215.4375 161.878906 C 214.746094 161.945312 214.054688 161.980469 213.363281 161.980469 C 212.667969 161.980469 211.976562 161.945312 211.285156 161.878906 C 210.597656 161.8125 209.910156 161.710938 209.230469 161.574219 C 208.550781 161.4375 207.878906 161.269531 207.21875 161.070312 C 206.554688 160.867188 205.902344 160.636719 205.261719 160.371094 C 204.621094 160.105469 203.996094 159.808594 203.382812 159.480469 C 202.773438 159.15625 202.179688 158.800781 201.601562 158.414062 C 201.023438 158.03125 200.46875 157.617188 199.933594 157.175781 C 199.398438 156.738281 198.882812 156.273438 198.394531 155.78125 C 197.902344 155.292969 197.4375 154.78125 197 154.242188 C 196.558594 153.707031 196.148438 153.152344 195.761719 152.574219 C 195.375 152 195.019531 151.40625 194.695312 150.792969 C 194.367188 150.183594 194.070312 149.558594 193.804688 148.917969 C 193.539062 148.277344 193.308594 147.625 193.105469 146.960938 C 192.902344 146.296875 192.734375 145.625 192.601562 144.945312 C 192.464844 144.265625 192.363281 143.582031 192.296875 142.894531 C 192.226562 142.203125 192.195312 141.511719 192.195312 140.816406 C 192.195312 140.125 192.226562 139.433594 192.296875 138.742188 C 192.363281 138.054688 192.464844 137.371094 192.601562 136.691406 C 192.734375 136.011719 192.902344 135.339844 193.105469 134.675781 C 193.308594 134.011719 193.539062 133.359375 193.804688 132.71875 C 194.070312 132.078125 194.367188 131.453125 194.695312 130.84375 C 195.019531 130.230469 195.375 129.636719 195.761719 129.0625 C 196.148438 128.484375 196.558594 127.929688 197 127.394531 C 197.4375 126.855469 197.902344 126.34375 198.394531 125.855469 C 198.882812 125.363281 199.398438 124.898438 199.933594 124.460938 C 200.46875 124.019531 201.023438 123.605469 201.601562 123.222656 C 202.179688 122.835938 202.773438 122.480469 203.382812 122.15625 C 203.996094 121.828125 204.621094 121.53125 205.261719 121.265625 C 205.902344 121 206.554688 120.769531 207.21875 120.566406 C 207.878906 120.367188 208.550781 120.195312 209.230469 120.0625 C 209.910156 119.925781 210.597656 119.824219 211.285156 119.757812 C 211.976562 119.6875 212.667969 119.65625 213.363281 119.65625 C 214.054688 119.65625 214.746094 119.6875 215.4375 119.757812 C 216.125 119.824219 216.8125 119.925781 217.492188 120.0625 C 218.171875 120.195312 218.84375 120.367188 219.507812 120.566406 C 220.167969 120.769531 220.820312 121 221.460938 121.265625 C 222.101562 121.53125 222.730469 121.828125 223.339844 122.152344 C 223.953125 122.480469 224.546875 122.835938 225.121094 123.222656 C 225.699219 123.605469 226.253906 124.019531 226.789062 124.460938 C 227.328125 124.898438 227.839844 125.363281 228.328125 125.855469 C 228.820312 126.34375 229.285156 126.855469 229.726562 127.394531 C 230.164062 127.929688 230.578125 128.484375 230.960938 129.0625 C 231.347656 129.636719 231.703125 130.230469 232.03125 130.84375 C 232.355469 131.453125 232.652344 132.078125 232.917969 132.71875 C 233.183594 133.359375 233.417969 134.011719 233.617188 134.675781 C 233.820312 135.339844 233.988281 136.011719 234.121094 136.691406 C 234.257812 137.371094 234.359375 138.054688 234.425781 138.742188 C 234.496094 139.433594 234.53125 140.125 234.53125 140.816406 Z M 234.53125 140.816406 " fill-opacity="1" fill-rule="nonzero"/><path fill="#ffdde7" d="M 666.296875 140.894531 C 666.296875 148.769531 659.78125 155.285156 651.902344 155.285156 L 373.003906 155.285156 C 364.976562 155.285156 358.613281 148.769531 358.613281 140.894531 C 358.613281 132.867188 364.976562 126.355469 373.003906 126.355469 L 651.902344 126.355469 C 659.78125 126.355469 666.296875 132.867188 666.296875 140.894531 Z M 666.296875 140.894531 " fill-opacity="1" fill-rule="nonzero"/><path fill="#8b47de" d="M 808.136719 148.914062 C 810.566406 199.945312 788.042969 245.789062 751.75 275.4375 C 728.253906 294.714844 698.925781 307.1875 666.84375 309.941406 C 664.574219 310.101562 662.46875 311.238281 660.847656 312.855469 C 636.054688 337.480469 606.890625 342.5 591.984375 343.3125 C 588.253906 343.472656 586.148438 339.101562 588.417969 336.183594 C 597.171875 325.03125 607 303.882812 593.925781 298.4375 C 538.347656 275.113281 499.296875 220.195312 499.296875 156.042969 C 499.296875 69.375 570.917969 -0.769531 658.417969 1.660156 C 700.871094 2.792969 739.757812 22.070312 767.144531 51.878906 C 791.125 77.960938 806.515625 111.816406 808.136719 148.914062 Z M 808.136719 148.914062 " fill-opacity="1" fill-rule="nonzero"/><path fill="#b833c4" d="M 619.367188 336.183594 C 618.878906 336.832031 618.554688 337.480469 618.394531 338.289062 C 608.023438 341.691406 598.625 342.988281 591.984375 343.3125 C 588.253906 343.472656 585.988281 339.101562 588.417969 336.183594 C 597.234375 324.949219 607.019531 303.957031 593.765625 298.4375 C 538.1875 275.113281 499.296875 220.195312 499.296875 156.042969 C 499.296875 69.375 570.917969 -0.769531 658.253906 1.660156 C 661.980469 1.820312 665.871094 1.984375 669.597656 2.46875 C 591.496094 10.082031 530.410156 76.015625 530.410156 156.042969 C 530.410156 220.195312 569.296875 275.113281 624.875 298.4375 C 638.414062 304.078125 627.792969 325.652344 619.367188 336.183594 Z M 619.367188 336.183594 " fill-opacity="1" fill-rule="nonzero"/><path fill="#ffdde7" d="M 337.152344 746.730469 C 337.152344 752.699219 332.316406 757.390625 326.34375 757.390625 L 299.324219 757.390625 C 293.496094 757.390625 288.808594 752.699219 288.808594 746.730469 C 288.808594 740.902344 293.496094 736.210938 299.324219 736.210938 L 326.34375 736.210938 C 332.316406 736.210938 337.152344 740.902344 337.152344 746.730469 Z M 337.152344 746.730469 " fill-opacity="1" fill-rule="nonzero"/><path fill="#bb57a5" d="M 113.417969 402.835938 C 106.808594 400.171875 103.601562 392.660156 106.265625 386.0625 L 155.300781 264.25 C 157.957031 257.660156 165.445312 254.429688 172.078125 257.097656 C 178.683594 259.757812 181.890625 267.269531 179.230469 273.867188 L 130.191406 395.683594 C 127.507812 402.351562 119.9375 405.46875 113.417969 402.835938 Z M 182.351562 386.660156 C 177.894531 381.113281 178.769531 372.996094 184.316406 368.539062 L 200.460938 355.535156 L 184.316406 342.535156 C 178.769531 338.078125 177.894531 329.960938 182.351562 324.414062 C 186.828125 318.875 194.945312 317.992188 200.488281 322.457031 L 229.117188 345.488281 C 235.527344 350.660156 235.523438 360.414062 229.117188 365.582031 L 200.488281 388.617188 C 194.917969 393.105469 186.808594 392.183594 182.351562 386.660156 Z M 87.105469 329.566406 L 58.46875 306.527344 C 52.058594 301.355469 52.058594 291.601562 58.46875 286.433594 L 87.105469 263.390625 C 92.648438 258.933594 100.765625 259.808594 105.238281 265.355469 C 109.699219 270.90625 108.824219 279.019531 103.277344 283.484375 L 87.121094 296.480469 L 103.277344 309.472656 C 108.824219 313.9375 109.699219 322.054688 105.238281 327.601562 C 100.773438 333.140625 92.671875 334.035156 87.105469 329.566406 Z M 87.105469 329.566406 " fill-opacity="1" fill-rule="nonzero"/><path fill="#8b47de" d="M 175.351562 583.820312 C 181.410156 583.820312 186.367188 588.773438 186.367188 594.832031 C 186.367188 600.886719 181.410156 605.839844 175.351562 605.839844 L 118.820312 605.839844 C 112.761719 605.839844 107.804688 600.886719 107.804688 594.832031 C 107.804688 588.773438 112.761719 583.820312 118.820312 583.820312 Z M 175.351562 583.820312 " fill-opacity="1" fill-rule="nonzero"/><path fill="#bb57a5" d="M 295.394531 693.375 C 295.394531 699.433594 290.4375 704.386719 284.382812 704.386719 L 241.246094 704.386719 C 235.191406 704.386719 230.234375 699.433594 230.234375 693.375 C 230.234375 687.320312 235.191406 682.367188 241.246094 682.367188 L 284.382812 682.367188 C 290.4375 682.367188 295.394531 687.320312 295.394531 693.375 Z M 295.394531 693.375 " fill-opacity="1" fill-rule="nonzero"/><path fill="#ff3b99" d="M 107.804688 496.46875 C 107.804688 490.414062 112.761719 485.460938 118.820312 485.460938 L 175.351562 485.460938 C 181.410156 485.460938 186.367188 490.414062 186.367188 496.46875 C 186.367188 502.527344 181.410156 507.480469 175.351562 507.480469 L 118.820312 507.480469 C 112.761719 507.480469 107.804688 502.527344 107.804688 496.46875 Z M 213.898438 693.375 C 213.898438 699.433594 208.941406 704.386719 202.886719 704.386719 L 118.820312 704.386719 C 112.761719 704.386719 107.804688 699.433594 107.804688 693.375 C 107.804688 687.320312 112.761719 682.367188 118.820312 682.367188 L 202.886719 682.367188 C 208.941406 682.367188 213.898438 687.320312 213.898438 693.375 Z M 333.574219 556.660156 L 218.121094 556.660156 C 212.0625 556.660156 207.105469 551.707031 207.105469 545.652344 C 207.105469 539.59375 212.0625 534.640625 218.121094 534.640625 L 333.574219 534.640625 C 339.632812 534.640625 344.585938 539.59375 344.585938 545.652344 C 344.585938 551.707031 339.632812 556.660156 333.574219 556.660156 Z M 368.265625 742.554688 C 368.265625 748.613281 363.308594 753.566406 357.253906 753.566406 L 242.347656 753.566406 C 236.292969 753.566406 231.335938 748.613281 231.335938 742.554688 C 231.335938 736.5 236.292969 731.546875 242.347656 731.546875 L 357.253906 731.546875 C 363.308594 731.546875 368.265625 736.5 368.265625 742.554688 Z M 522.816406 605.839844 L 378.175781 605.839844 C 371.9375 605.839844 367.164062 600.886719 367.164062 594.832031 C 367.164062 588.773438 371.9375 583.820312 378.175781 583.820312 L 522.816406 583.820312 C 528.871094 583.820312 533.828125 588.773438 533.828125 594.832031 C 533.828125 600.886719 528.871094 605.839844 522.816406 605.839844 Z M 406.261719 496.46875 C 406.261719 490.414062 411.214844 485.460938 417.273438 485.460938 L 501.15625 485.460938 C 507.214844 485.460938 512.171875 490.414062 512.171875 496.46875 C 512.171875 502.527344 507.214844 507.480469 501.15625 507.480469 L 417.273438 507.480469 C 411.214844 507.480469 406.261719 502.527344 406.261719 496.46875 Z M 668.558594 693.375 C 668.558594 699.433594 663.601562 704.386719 657.542969 704.386719 L 573.476562 704.386719 C 567.417969 704.386719 562.464844 699.433594 562.464844 693.375 C 562.464844 687.320312 567.417969 682.367188 573.476562 682.367188 L 657.542969 682.367188 C 663.601562 682.367188 668.558594 687.320312 668.558594 693.375 Z M 668.558594 693.375 " fill-opacity="1" fill-rule="nonzero"/><path fill="#bb57a5" d="M 673.511719 594.832031 C 673.511719 600.886719 668.558594 605.839844 662.5 605.839844 L 578.433594 605.839844 C 572.375 605.839844 567.417969 600.886719 567.417969 594.832031 C 567.417969 588.773438 572.375 583.820312 578.433594 583.820312 L 662.5 583.820312 C 668.558594 583.820312 673.511719 588.773438 673.511719 594.832031 Z M 107.804688 545.652344 C 107.804688 539.59375 112.761719 534.640625 118.820312 534.640625 L 175.351562 534.640625 C 181.410156 534.640625 186.367188 539.59375 186.367188 545.652344 C 186.367188 551.707031 181.410156 556.660156 175.351562 556.660156 L 118.820312 556.660156 C 112.761719 556.660156 107.804688 551.707031 107.804688 545.652344 Z M 378.175781 534.640625 L 462.0625 534.640625 C 468.117188 534.640625 473.074219 539.59375 473.074219 545.652344 C 473.074219 551.707031 468.117188 556.660156 462.0625 556.660156 L 378.175781 556.660156 C 371.9375 556.660156 367.164062 551.707031 367.164062 545.652344 C 367.164062 539.59375 371.9375 534.640625 378.175781 534.640625 Z M 378.175781 534.640625 " fill-opacity="1" fill-rule="nonzero"/><path fill="#8b47de" d="M 517.105469 534.640625 L 600.992188 534.640625 C 607.046875 534.640625 612.003906 539.59375 612.003906 545.652344 C 612.003906 551.707031 607.046875 556.660156 600.992188 556.660156 L 517.105469 556.660156 C 510.867188 556.660156 506.09375 551.707031 506.09375 545.652344 C 506.09375 539.59375 510.867188 534.640625 517.105469 534.640625 Z M 517.105469 534.640625 " fill-opacity="1" fill-rule="nonzero"/><path fill="#bb57a5" d="M 364.410156 507.480469 L 222.707031 507.480469 C 216.652344 507.480469 211.695312 502.527344 211.695312 496.46875 C 211.695312 490.414062 216.652344 485.460938 222.707031 485.460938 L 364.410156 485.460938 C 370.46875 485.460938 375.425781 490.414062 375.425781 496.46875 C 375.425781 502.527344 370.46875 507.480469 364.410156 507.480469 Z M 499.296875 742.554688 C 499.296875 748.613281 494.34375 753.566406 488.285156 753.566406 L 407.15625 753.566406 C 401.097656 753.566406 396.140625 748.613281 396.140625 742.554688 C 396.140625 736.5 401.097656 731.546875 407.15625 731.546875 L 488.285156 731.546875 C 494.34375 731.546875 499.296875 736.5 499.296875 742.554688 Z M 499.296875 742.554688 " fill-opacity="1" fill-rule="nonzero"/><path fill="#8b47de" d="M 667.089844 742.554688 C 667.089844 748.613281 662.132812 753.566406 656.074219 753.566406 L 574.945312 753.566406 C 568.886719 753.566406 563.929688 748.613281 563.929688 742.554688 C 563.929688 736.5 568.886719 731.546875 574.945312 731.546875 L 656.074219 731.546875 C 662.132812 731.546875 667.089844 736.5 667.089844 742.554688 Z M 667.089844 742.554688 " fill-opacity="1" fill-rule="nonzero"/><path fill="#bb57a5" d="M 213.898438 742.554688 C 213.898438 748.613281 208.941406 753.566406 202.886719 753.566406 L 118.820312 753.566406 C 112.761719 753.566406 107.804688 748.613281 107.804688 742.554688 C 107.804688 736.5 112.761719 731.546875 118.820312 731.546875 L 202.886719 731.546875 C 208.941406 731.546875 213.898438 736.5 213.898438 742.554688 Z M 213.898438 742.554688 " fill-opacity="1" fill-rule="nonzero"/><path fill="#8b47de" d="M 549.980469 693.375 C 549.980469 699.433594 545.027344 704.386719 538.96875 704.386719 L 321.09375 704.386719 C 315.035156 704.386719 310.078125 699.433594 310.078125 693.375 C 310.078125 687.320312 315.035156 682.367188 321.09375 682.367188 L 538.96875 682.367188 C 545.027344 682.367188 549.980469 687.320312 549.980469 693.375 Z M 549.980469 693.375 " fill-opacity="1" fill-rule="nonzero"/><path fill="#b065ff" d="M 53.65625 447.105469 C 53.65625 441.050781 58.613281 436.09375 64.671875 436.09375 L 228.03125 436.09375 C 234.089844 436.09375 239.046875 441.050781 239.046875 447.105469 C 239.046875 453.164062 234.089844 458.117188 228.03125 458.117188 L 64.671875 458.117188 C 58.613281 458.117188 53.65625 453.164062 53.65625 447.105469 Z M 344.585938 594.832031 C 344.585938 600.886719 339.632812 605.839844 333.574219 605.839844 L 218.121094 605.839844 C 212.0625 605.839844 207.105469 600.886719 207.105469 594.832031 C 207.105469 588.773438 212.0625 583.820312 218.121094 583.820312 L 333.574219 583.820312 C 339.632812 583.820312 344.585938 588.773438 344.585938 594.832031 Z M 239.046875 644.011719 C 239.046875 650.25 234.089844 655.207031 228.03125 655.207031 L 64.671875 655.207031 C 58.613281 655.207031 53.65625 650.25 53.65625 644.011719 C 53.65625 637.957031 58.613281 633 64.671875 633 L 228.03125 633 C 234.089844 633 239.046875 637.957031 239.046875 644.011719 Z M 239.046875 644.011719 " fill-opacity="1" fill-rule="nonzero"/><path fill="#ffdde7" d="M 742.785156 232.054688 C 739.058594 236.605469 732.234375 237.019531 728.199219 232.882812 L 711.957031 216.75 C 708.546875 213.335938 708.132812 207.855469 711.132812 204.03125 C 731.820312 177.453125 729.75 138.777344 704.925781 114.578125 C 679.273438 89.65625 636.761719 89.65625 611.109375 114.578125 C 586.285156 138.777344 584.214844 177.453125 604.902344 204.03125 C 607.902344 207.855469 607.488281 213.335938 604.074219 216.75 L 587.835938 232.882812 C 583.800781 237.019531 576.976562 236.605469 573.25 232.054688 C 537.359375 188.207031 540.566406 123.058594 582.871094 83.140625 C 624.347656 43.949219 691.6875 43.949219 733.164062 83.140625 C 775.46875 123.058594 778.675781 188.207031 742.785156 232.054688 Z M 742.785156 232.054688 " fill-opacity="1" fill-rule="nonzero"/></svg>