<svg xmlns="http://www.w3.org/2000/svg" xmlns:xlink="http://www.w3.org/1999/xlink" width="1080" zoomAndPan="magnify" viewBox="0 0 810 809.999993" height="1080" preserveAspectRatio="xMidYMid meet" version="1.0"><defs><clipPath id="e04ebf54df"><path d="M 0 222 L 801.75 222 L 801.75 805 L 0 805 Z M 0 222 " clip-rule="nonzero"/></clipPath><clipPath id="7111a9194b"><path d="M 0 107 L 801.75 107 L 801.75 223 L 0 223 Z M 0 107 " clip-rule="nonzero"/></clipPath></defs><g clip-path="url(#e04ebf54df)"><path fill="#7770f4" d="M 801.75 222.140625 L 801.75 738.148438 C 801.75 757.019531 793.734375 774.21875 781.039062 786.410156 C 769.011719 797.929688 752.808594 804.945312 734.9375 804.945312 L 66.8125 804.945312 C 49.273438 804.945312 33.238281 798.097656 21.214844 786.910156 C 8.183594 774.71875 0 757.351562 0 738.148438 L 0 222.140625 Z M 801.75 222.140625 " fill-opacity="1" fill-rule="nonzero"/></g><g clip-path="url(#7111a9194b)"><path fill="#7240fa" d="M 801.75 174.046875 L 801.75 222.140625 L 0.167969 222.140625 L 0.167969 174.046875 C 0.167969 155.511719 7.683594 138.8125 19.710938 126.789062 C 31.902344 114.597656 48.441406 107.25 66.8125 107.25 L 734.9375 107.25 C 771.683594 107.25 801.75 137.308594 801.75 174.046875 Z M 801.75 174.046875 " fill-opacity="1" fill-rule="nonzero"/></g><path fill="#93f932" d="M 107.234375 107.25 C 70.320312 107.25 40.421875 137.144531 40.421875 174.046875 L 40.421875 222.140625 L 0.167969 222.140625 L 0.167969 174.046875 C 0.167969 155.511719 7.683594 138.8125 19.710938 126.789062 C 31.902344 114.597656 48.441406 107.25 66.8125 107.25 Z M 107.234375 107.25 " fill-opacity="1" fill-rule="nonzero"/><path fill="#d0d930" d="M 234.242188 171.820312 C 234.242188 183.964844 224.398438 193.804688 212.339844 193.804688 C 200.191406 193.804688 190.347656 183.964844 190.347656 171.820312 C 190.347656 159.675781 200.191406 149.835938 212.339844 149.835938 C 224.398438 149.835938 234.242188 159.675781 234.242188 171.820312 Z M 173.542969 171.820312 C 173.542969 183.964844 163.703125 193.804688 151.640625 193.804688 C 139.496094 193.804688 129.652344 183.964844 129.652344 171.820312 C 129.652344 159.675781 139.496094 149.835938 151.640625 149.835938 C 163.703125 149.835938 173.542969 159.675781 173.542969 171.820312 Z M 112.847656 171.820312 C 112.847656 183.964844 103.003906 193.804688 90.945312 193.804688 C 78.796875 193.804688 68.953125 183.964844 68.953125 171.820312 C 68.953125 159.675781 78.796875 149.835938 90.945312 149.835938 C 103.003906 149.835938 112.847656 159.675781 112.847656 171.820312 Z M 112.847656 171.820312 " fill-opacity="1" fill-rule="nonzero"/><path fill="#dffdf9" d="M 781.039062 786.410156 C 769.011719 797.929688 752.808594 804.945312 734.9375 804.945312 C 26.042969 803.902344 61.496094 808.253906 41.925781 800.101562 C 34.242188 796.929688 27.226562 792.421875 21.214844 786.910156 C 34.132812 764.765625 57.457031 749.925781 77 747 C 85.003906 681.449219 161.554688 648.980469 213.96875 689.050781 C 232.597656 675.296875 254.65625 670.089844 270.589844 671.683594 C 293.949219 601.277344 391.832031 592.960938 426.933594 658.660156 C 472.625 614.960938 546.976562 633.578125 567.070312 692.390625 C 617.5 648.203125 698.664062 678.078125 707.542969 745.328125 C 709.214844 745.800781 754.589844 742.734375 781.039062 786.410156 Z M 781.039062 786.410156 " fill-opacity="1" fill-rule="nonzero"/><path fill="#dffdf9" d="M 465.046875 690.324219 L 327.613281 690.324219 L 363.976562 527.039062 L 428.6875 527.039062 Z M 465.046875 690.324219 " fill-opacity="1" fill-rule="nonzero"/><path fill="#db4a89" d="M 437.976562 543.890625 L 351.460938 543.890625 C 344.972656 543.890625 339.5625 538.929688 339.003906 532.464844 L 334.777344 483.53125 L 454.660156 483.53125 L 450.433594 532.464844 C 449.875 538.929688 444.464844 543.890625 437.976562 543.890625 Z M 437.976562 543.890625 " fill-opacity="1" fill-rule="nonzero"/><path fill="#a319de" d="M 373.042969 543.890625 L 351.535156 543.890625 C 344.957031 543.890625 339.625 538.914062 339.089844 532.515625 L 334.824219 483.464844 L 356.511719 483.464844 L 360.597656 532.515625 C 361.3125 538.914062 366.644531 543.890625 373.042969 543.890625 Z M 373.042969 543.890625 " fill-opacity="1" fill-rule="nonzero"/><path fill="#db4a89" d="M 307.164062 343.84375 C 334.007812 368.371094 339.515625 411.199219 336.851562 461.320312 L 291.699219 478.023438 C 281.210938 481.933594 274.457031 492.0625 274.632812 503.261719 C 278.136719 613.757812 277.300781 581.335938 277.300781 587.5 C 277.300781 605.476562 250.992188 608.476562 247.433594 590.699219 L 216.503906 444.433594 C 211.882812 422.21875 221.304688 399.292969 240.503906 386.851562 Z M 307.164062 343.84375 " fill-opacity="1" fill-rule="nonzero"/><path fill="#a319de" d="M 273.496094 597.382812 C 264.441406 607.132812 249.695312 602.289062 247.363281 590.628906 L 216.433594 444.363281 C 211.8125 422.148438 221.234375 399.222656 240.429688 386.785156 L 307.09375 343.773438 C 311.003906 347.328125 314.382812 351.238281 317.582031 355.683594 L 264.960938 389.625 C 245.765625 402.066406 236.34375 424.992188 240.964844 447.207031 C 273.894531 602.195312 271.652344 594.808594 273.496094 597.382812 Z M 273.496094 597.382812 " fill-opacity="1" fill-rule="nonzero"/><path fill="#db4a89" d="M 576.121094 444.433594 L 545.1875 590.699219 C 543.589844 598.699219 535.945312 603.851562 527.945312 602.429688 C 520.65625 601.1875 515.324219 594.789062 515.324219 587.5 C 515.324219 587.324219 515.324219 587.324219 515.324219 587.144531 L 517.992188 503.261719 C 518.347656 492.0625 511.414062 481.933594 500.925781 478.023438 L 455.773438 461.320312 C 453.109375 411.199219 458.617188 368.371094 485.460938 343.84375 L 552.121094 386.851562 C 571.320312 399.292969 580.742188 422.21875 576.121094 444.433594 Z M 576.121094 444.433594 " fill-opacity="1" fill-rule="nonzero"/><path fill="#dffdf9" d="M 452.710938 496.941406 C 460.167969 495.445312 466.714844 490.660156 470.128906 483.863281 C 498.839844 426.671875 517.351562 339.753906 517.351562 252.285156 C 517.351562 136.019531 444.363281 44.816406 411.742188 9.859375 C 403.34375 0.863281 389.277344 0.863281 380.882812 9.859375 C 348.261719 44.816406 275.273438 136.019531 275.273438 252.285156 C 275.273438 340.128906 293.945312 427.414062 322.867188 484.597656 C 326.085938 490.964844 331.945312 495.695312 338.871094 497.417969 C 374.066406 506.1875 412.316406 505.035156 452.710938 496.941406 Z M 452.710938 496.941406 " fill-opacity="1" fill-rule="nonzero"/><path fill="#f9c4ef" d="M 406.105469 9.835938 C 373.398438 44.84375 300.515625 136.015625 300.515625 252.246094 C 300.515625 340.042969 319.179688 427.480469 347.980469 484.53125 C 351.355469 490.929688 357.042969 495.726562 363.976562 497.503906 C 376.597656 500.523438 389.398438 502.480469 402.730469 503.191406 C 380.507812 504.257812 359.175781 502.480469 338.914062 497.503906 C 331.980469 495.726562 326.113281 490.929688 322.914062 484.53125 C 293.9375 427.480469 275.273438 340.042969 275.273438 252.246094 C 275.273438 136.015625 348.332031 44.84375 380.863281 9.835938 C 388.332031 1.835938 400.417969 1.125 408.953125 7.523438 C 407.886719 8.054688 406.996094 8.945312 406.105469 9.835938 Z M 406.105469 9.835938 " fill-opacity="1" fill-rule="nonzero"/><path fill="#4e986a" d="M 479.628906 259.984375 C 479.628906 261.347656 479.597656 262.710938 479.53125 264.070312 C 479.464844 265.433594 479.363281 266.792969 479.230469 268.148438 C 479.09375 269.503906 478.929688 270.859375 478.726562 272.207031 C 478.527344 273.554688 478.296875 274.898438 478.027344 276.234375 C 477.761719 277.570312 477.464844 278.902344 477.132812 280.222656 C 476.800781 281.546875 476.4375 282.859375 476.042969 284.164062 C 475.648438 285.46875 475.21875 286.761719 474.761719 288.046875 C 474.300781 289.328125 473.808594 290.601562 473.289062 291.859375 C 472.765625 293.121094 472.214844 294.363281 471.632812 295.597656 C 471.046875 296.828125 470.433594 298.046875 469.792969 299.25 C 469.148438 300.453125 468.476562 301.636719 467.777344 302.804688 C 467.074219 303.976562 466.347656 305.128906 465.589844 306.261719 C 464.832031 307.394531 464.046875 308.507812 463.234375 309.601562 C 462.421875 310.699219 461.582031 311.773438 460.71875 312.828125 C 459.851562 313.878906 458.964844 314.910156 458.046875 315.921875 C 457.132812 316.933594 456.191406 317.917969 455.226562 318.882812 C 454.261719 319.847656 453.277344 320.785156 452.265625 321.703125 C 451.253906 322.617188 450.222656 323.507812 449.167969 324.371094 C 448.117188 325.238281 447.039062 326.074219 445.945312 326.886719 C 444.851562 327.699219 443.734375 328.484375 442.601562 329.242188 C 441.46875 330 440.316406 330.726562 439.148438 331.429688 C 437.976562 332.128906 436.792969 332.800781 435.589844 333.445312 C 434.386719 334.085938 433.167969 334.699219 431.9375 335.28125 C 430.703125 335.863281 429.457031 336.417969 428.199219 336.9375 C 426.9375 337.460938 425.667969 337.953125 424.382812 338.410156 C 423.097656 338.871094 421.804688 339.296875 420.5 339.691406 C 419.195312 340.089844 417.882812 340.453125 416.558594 340.785156 C 415.234375 341.113281 413.90625 341.414062 412.570312 341.679688 C 411.230469 341.945312 409.886719 342.179688 408.539062 342.378906 C 407.191406 342.578125 405.839844 342.746094 404.480469 342.878906 C 403.125 343.011719 401.765625 343.113281 400.402344 343.179688 C 399.042969 343.246094 397.679688 343.28125 396.316406 343.28125 C 394.953125 343.28125 393.589844 343.246094 392.226562 343.179688 C 390.863281 343.113281 389.503906 343.011719 388.148438 342.878906 C 386.792969 342.746094 385.4375 342.578125 384.089844 342.378906 C 382.742188 342.179688 381.398438 341.945312 380.0625 341.679688 C 378.722656 341.414062 377.394531 341.113281 376.070312 340.785156 C 374.75 340.453125 373.433594 340.089844 372.128906 339.691406 C 370.824219 339.296875 369.53125 338.871094 368.246094 338.410156 C 366.964844 337.953125 365.691406 337.460938 364.429688 336.9375 C 363.171875 336.417969 361.925781 335.867188 360.691406 335.28125 C 359.460938 334.699219 358.242188 334.085938 357.039062 333.445312 C 355.839844 332.800781 354.652344 332.128906 353.480469 331.429688 C 352.3125 330.726562 351.160156 330 350.027344 329.242188 C 348.894531 328.484375 347.78125 327.699219 346.683594 326.886719 C 345.589844 326.074219 344.515625 325.238281 343.460938 324.371094 C 342.40625 323.507812 341.375 322.617188 340.363281 321.703125 C 339.355469 320.785156 338.367188 319.847656 337.402344 318.882812 C 336.4375 317.917969 335.5 316.933594 334.582031 315.921875 C 333.667969 314.910156 332.777344 313.878906 331.910156 312.828125 C 331.046875 311.773438 330.207031 310.699219 329.394531 309.601562 C 328.582031 308.507812 327.796875 307.394531 327.039062 306.261719 C 326.285156 305.128906 325.554688 303.976562 324.851562 302.804688 C 324.152344 301.636719 323.480469 300.453125 322.835938 299.25 C 322.195312 298.046875 321.582031 296.828125 321 295.597656 C 320.414062 294.363281 319.863281 293.121094 319.339844 291.859375 C 318.820312 290.601562 318.328125 289.328125 317.871094 288.046875 C 317.410156 286.761719 316.984375 285.46875 316.585938 284.164062 C 316.191406 282.859375 315.828125 281.546875 315.496094 280.222656 C 315.164062 278.902344 314.867188 277.570312 314.601562 276.234375 C 314.335938 274.898438 314.101562 273.554688 313.902344 272.207031 C 313.703125 270.859375 313.535156 269.503906 313.402344 268.148438 C 313.265625 266.792969 313.167969 265.433594 313.101562 264.070312 C 313.035156 262.710938 313 261.347656 313 259.984375 C 313 258.621094 313.035156 257.257812 313.101562 255.898438 C 313.167969 254.535156 313.265625 253.175781 313.402344 251.820312 C 313.535156 250.464844 313.703125 249.109375 313.902344 247.761719 C 314.101562 246.414062 314.335938 245.070312 314.601562 243.734375 C 314.867188 242.398438 315.164062 241.066406 315.496094 239.746094 C 315.828125 238.421875 316.191406 237.109375 316.585938 235.804688 C 316.984375 234.5 317.410156 233.207031 317.871094 231.921875 C 318.328125 230.640625 318.820312 229.367188 319.339844 228.109375 C 319.863281 226.847656 320.414062 225.601562 321 224.371094 C 321.582031 223.136719 322.195312 221.921875 322.835938 220.71875 C 323.480469 219.515625 324.152344 218.332031 324.851562 217.160156 C 325.554688 215.992188 326.285156 214.839844 327.039062 213.707031 C 327.796875 212.574219 328.582031 211.460938 329.394531 210.363281 C 330.207031 209.269531 331.046875 208.195312 331.910156 207.140625 C 332.777344 206.089844 333.667969 205.054688 334.582031 204.046875 C 335.5 203.035156 336.4375 202.050781 337.402344 201.085938 C 338.367188 200.121094 339.355469 199.179688 340.363281 198.265625 C 341.375 197.351562 342.40625 196.460938 343.460938 195.59375 C 344.515625 194.730469 345.589844 193.890625 346.683594 193.082031 C 347.78125 192.269531 348.894531 191.484375 350.027344 190.726562 C 351.160156 189.96875 352.3125 189.238281 353.480469 188.539062 C 354.652344 187.839844 355.839844 187.167969 357.039062 186.523438 C 358.242188 185.882812 359.460938 185.269531 360.691406 184.683594 C 361.925781 184.101562 363.171875 183.550781 364.429688 183.027344 C 365.691406 182.507812 366.964844 182.015625 368.246094 181.558594 C 369.53125 181.097656 370.824219 180.671875 372.128906 180.273438 C 373.433594 179.878906 374.75 179.515625 376.070312 179.183594 C 377.394531 178.851562 378.722656 178.554688 380.0625 178.289062 C 381.398438 178.023438 382.742188 177.789062 384.089844 177.589844 C 385.4375 177.390625 386.792969 177.222656 388.148438 177.089844 C 389.503906 176.957031 390.863281 176.855469 392.226562 176.789062 C 393.589844 176.722656 394.953125 176.6875 396.316406 176.6875 C 397.679688 176.6875 399.042969 176.722656 400.402344 176.789062 C 401.765625 176.855469 403.125 176.957031 404.480469 177.089844 C 405.839844 177.222656 407.191406 177.390625 408.539062 177.589844 C 409.886719 177.789062 411.230469 178.023438 412.570312 178.289062 C 413.90625 178.554688 415.234375 178.851562 416.558594 179.183594 C 417.882812 179.515625 419.195312 179.878906 420.5 180.273438 C 421.804688 180.671875 423.097656 181.097656 424.382812 181.558594 C 425.667969 182.015625 426.9375 182.507812 428.199219 183.027344 C 429.457031 183.550781 430.703125 184.101562 431.9375 184.6875 C 433.167969 185.269531 434.386719 185.882812 435.589844 186.523438 C 436.792969 187.167969 437.976562 187.839844 439.148438 188.539062 C 440.316406 189.238281 441.46875 189.96875 442.601562 190.726562 C 443.734375 191.484375 444.851562 192.269531 445.945312 193.082031 C 447.039062 193.890625 448.117188 194.730469 449.167969 195.59375 C 450.222656 196.460938 451.253906 197.351562 452.265625 198.265625 C 453.277344 199.179688 454.261719 200.121094 455.226562 201.085938 C 456.191406 202.050781 457.132812 203.035156 458.046875 204.046875 C 458.964844 205.054688 459.851562 206.089844 460.71875 207.140625 C 461.582031 208.195312 462.421875 209.269531 463.234375 210.363281 C 464.046875 211.460938 464.832031 212.574219 465.589844 213.707031 C 466.347656 214.839844 467.074219 215.992188 467.777344 217.160156 C 468.476562 218.332031 469.148438 219.515625 469.792969 220.71875 C 470.433594 221.921875 471.046875 223.136719 471.632812 224.371094 C 472.214844 225.601562 472.765625 226.847656 473.289062 228.109375 C 473.808594 229.367188 474.300781 230.640625 474.761719 231.921875 C 475.21875 233.207031 475.648438 234.5 476.042969 235.804688 C 476.4375 237.109375 476.800781 238.421875 477.132812 239.746094 C 477.464844 241.066406 477.761719 242.398438 478.027344 243.734375 C 478.296875 245.070312 478.527344 246.414062 478.726562 247.761719 C 478.929688 249.109375 479.09375 250.464844 479.230469 251.820312 C 479.363281 253.175781 479.460938 254.535156 479.53125 255.898438 C 479.597656 257.257812 479.628906 258.621094 479.628906 259.984375 Z M 479.628906 259.984375 " fill-opacity="1" fill-rule="nonzero"/><path fill="#7770f4" d="M 455.929688 259.984375 C 455.929688 261.9375 455.832031 263.882812 455.640625 265.824219 C 455.449219 267.769531 455.164062 269.695312 454.78125 271.609375 C 454.402344 273.527344 453.929688 275.417969 453.363281 277.285156 C 452.792969 279.152344 452.136719 280.988281 451.390625 282.792969 C 450.644531 284.59375 449.808594 286.359375 448.890625 288.078125 C 447.96875 289.800781 446.964844 291.472656 445.882812 293.09375 C 444.796875 294.71875 443.636719 296.285156 442.398438 297.792969 C 441.160156 299.300781 439.847656 300.746094 438.46875 302.128906 C 437.085938 303.507812 435.640625 304.816406 434.132812 306.054688 C 432.625 307.292969 431.058594 308.453125 429.433594 309.539062 C 427.8125 310.625 426.136719 311.625 424.417969 312.546875 C 422.695312 313.464844 420.933594 314.300781 419.128906 315.046875 C 417.324219 315.792969 415.488281 316.449219 413.621094 317.015625 C 411.75 317.582031 409.859375 318.058594 407.945312 318.4375 C 406.03125 318.820312 404.101562 319.105469 402.15625 319.296875 C 400.214844 319.488281 398.265625 319.582031 396.316406 319.582031 C 394.363281 319.582031 392.414062 319.488281 390.472656 319.296875 C 388.527344 319.105469 386.601562 318.820312 384.683594 318.4375 C 382.769531 318.058594 380.878906 317.582031 379.011719 317.015625 C 377.140625 316.449219 375.304688 315.792969 373.5 315.046875 C 371.699219 314.300781 369.933594 313.464844 368.214844 312.546875 C 366.492188 311.625 364.820312 310.625 363.195312 309.539062 C 361.570312 308.453125 360.003906 307.292969 358.496094 306.054688 C 356.988281 304.816406 355.542969 303.507812 354.160156 302.128906 C 352.78125 300.746094 351.472656 299.300781 350.234375 297.792969 C 348.996094 296.285156 347.832031 294.71875 346.75 293.09375 C 345.664062 291.472656 344.660156 289.800781 343.742188 288.078125 C 342.820312 286.359375 341.988281 284.59375 341.238281 282.792969 C 340.492188 280.988281 339.835938 279.152344 339.269531 277.285156 C 338.703125 275.417969 338.226562 273.527344 337.847656 271.609375 C 337.464844 269.695312 337.179688 267.769531 336.988281 265.824219 C 336.796875 263.882812 336.703125 261.9375 336.703125 259.984375 C 336.703125 258.03125 336.796875 256.085938 336.988281 254.140625 C 337.179688 252.199219 337.464844 250.269531 337.847656 248.355469 C 338.226562 246.441406 338.703125 244.550781 339.269531 242.683594 C 339.835938 240.816406 340.492188 238.980469 341.238281 237.175781 C 341.988281 235.371094 342.820312 233.609375 343.742188 231.890625 C 344.660156 230.167969 345.664062 228.496094 346.75 226.871094 C 347.832031 225.25 348.996094 223.683594 350.234375 222.175781 C 351.472656 220.664062 352.78125 219.222656 354.160156 217.839844 C 355.542969 216.460938 356.988281 215.152344 358.496094 213.914062 C 360.003906 212.675781 361.570312 211.511719 363.195312 210.429688 C 364.820312 209.34375 366.492188 208.34375 368.214844 207.421875 C 369.933594 206.5 371.699219 205.667969 373.5 204.921875 C 375.304688 204.175781 377.140625 203.515625 379.011719 202.949219 C 380.878906 202.382812 382.769531 201.910156 384.683594 201.53125 C 386.601562 201.148438 388.527344 200.863281 390.472656 200.671875 C 392.414062 200.480469 394.363281 200.382812 396.316406 200.382812 C 398.265625 200.382812 400.214844 200.480469 402.15625 200.671875 C 404.101562 200.863281 406.03125 201.148438 407.945312 201.53125 C 409.859375 201.910156 411.75 202.382812 413.621094 202.949219 C 415.488281 203.515625 417.324219 204.175781 419.128906 204.921875 C 420.933594 205.667969 422.695312 206.5 424.417969 207.421875 C 426.136719 208.34375 427.8125 209.34375 429.433594 210.429688 C 431.058594 211.511719 432.625 212.675781 434.132812 213.914062 C 435.644531 215.152344 437.085938 216.460938 438.46875 217.839844 C 439.847656 219.222656 441.160156 220.664062 442.398438 222.175781 C 443.636719 223.683594 444.796875 225.25 445.882812 226.871094 C 446.964844 228.496094 447.96875 230.167969 448.890625 231.890625 C 449.808594 233.609375 450.644531 235.371094 451.390625 237.175781 C 452.136719 238.980469 452.792969 240.816406 453.363281 242.683594 C 453.929688 244.550781 454.402344 246.441406 454.78125 248.355469 C 455.164062 250.269531 455.449219 252.199219 455.640625 254.140625 C 455.832031 256.085938 455.929688 258.03125 455.929688 259.984375 Z M 455.929688 259.984375 " fill-opacity="1" fill-rule="nonzero"/><path fill="#db4a89" d="M 478.8125 104.382812 C 433.304688 91.585938 387.976562 89.453125 342.644531 97.628906 C 333.046875 99.40625 323.449219 101.714844 313.847656 104.382812 C 332.101562 69.59375 356.785156 35.539062 380.863281 9.835938 C 384.0625 6.636719 387.796875 4.503906 391.886719 3.613281 C 399.113281 2.066406 406.765625 4.804688 411.796875 9.835938 C 428.503906 27.785156 456.058594 60.839844 478.8125 104.382812 Z M 478.8125 104.382812 " fill-opacity="1" fill-rule="nonzero"/><path fill="#a319de" d="M 408.953125 7.523438 C 407.886719 8.054688 406.996094 8.945312 406.105469 9.835938 C 390.109375 26.894531 364.6875 57.285156 342.644531 97.628906 C 333.046875 99.40625 323.449219 101.714844 313.847656 104.382812 C 332.101562 69.59375 356.785156 35.539062 380.863281 9.835938 C 384.0625 6.636719 387.796875 4.503906 391.886719 3.613281 C 397.886719 2.328125 404.230469 3.984375 408.953125 7.523438 Z M 408.953125 7.523438 " fill-opacity="1" fill-rule="nonzero"/><path fill="#f5fe3f" d="M 107.242188 804.878906 L 66.820312 804.878906 C 30.074219 804.878906 0.0078125 774.820312 0.0078125 738.082031 L 0.0078125 222.199219 L 40.429688 222.199219 L 40.429688 738.082031 C 40.429688 774.820312 70.496094 804.878906 107.242188 804.878906 Z M 107.242188 804.878906 " fill-opacity="1" fill-rule="nonzero"/><path fill="#f9c4ef" d="M 107.234375 804.945312 C 72.003906 804.285156 46.941406 810.488281 21.214844 786.910156 C 27.058594 776.890625 35.078125 768.039062 44.597656 761.191406 C 53.949219 786.742188 78.671875 804.945312 107.234375 804.945312 Z M 107.234375 804.945312 " fill-opacity="1" fill-rule="nonzero"/></svg>