<svg xmlns="http://www.w3.org/2000/svg" xmlns:xlink="http://www.w3.org/1999/xlink" width="1080" zoomAndPan="magnify" viewBox="0 0 810 809.999993" height="1080" preserveAspectRatio="xMidYMid meet" version="1.0"><path fill="#dde1ff" d="M 810 166.042969 L 810 739.183594 C 810 776.308594 779.625 806.6875 742.5 806.6875 L 67.5 806.6875 C 30.375 806.6875 0 776.308594 0 739.183594 L 0 166.042969 Z M 810 166.042969 " fill-opacity="1" fill-rule="nonzero"/><path fill="#7d6f69" d="M 810 67.824219 L 810 166.042969 L 0.167969 166.042969 L 0.167969 67.824219 C 0.167969 30.53125 30.375 0.320312 67.667969 0.320312 L 742.5 0.320312 C 779.625 0.320312 810 30.699219 810 67.824219 Z M 810 67.824219 " fill-opacity="1" fill-rule="nonzero"/><path fill="#e2f6c7" d="M 108.367188 806.679688 L 67.53125 806.679688 C 30.40625 806.679688 0.03125 776.300781 0.03125 739.175781 L 0.03125 166.203125 L 40.867188 166.203125 L 40.867188 739.175781 C 40.867188 776.300781 71.242188 806.679688 108.367188 806.679688 Z M 108.367188 806.679688 " fill-opacity="1" fill-rule="nonzero"/><path fill="#34453b" d="M 108.367188 0.3125 C 71.074219 0.3125 40.867188 30.523438 40.867188 67.816406 L 40.867188 166.203125 L 0.03125 166.203125 L 0.03125 67.816406 C 0.03125 30.523438 30.40625 0.3125 67.53125 0.3125 Z M 108.367188 0.3125 " fill-opacity="1" fill-rule="nonzero"/><path fill="#dde1ff" d="M 289.238281 83.234375 C 289.238281 99.101562 276.382812 111.957031 260.636719 111.957031 C 244.769531 111.957031 231.917969 99.101562 231.917969 83.234375 C 231.917969 67.371094 244.769531 54.515625 260.636719 54.515625 C 276.382812 54.515625 289.238281 67.371094 289.238281 83.234375 Z M 209.96875 83.234375 C 209.96875 99.101562 197.117188 111.957031 181.367188 111.957031 C 165.5 111.957031 152.648438 99.101562 152.648438 83.234375 C 152.648438 67.371094 165.5 54.515625 181.367188 54.515625 C 197.117188 54.515625 209.96875 67.371094 209.96875 83.234375 Z M 130.699219 83.234375 C 130.699219 99.101562 117.847656 111.957031 102.097656 111.957031 C 86.234375 111.957031 73.378906 99.101562 73.378906 83.234375 C 73.378906 67.371094 86.234375 54.515625 102.097656 54.515625 C 117.847656 54.515625 130.699219 67.371094 130.699219 83.234375 Z M 130.699219 83.234375 " fill-opacity="1" fill-rule="nonzero"/><path fill="#dde1ff" d="M 736.78125 86.664062 C 736.78125 96.8125 728.542969 105.050781 718.394531 105.050781 L 450.46875 105.050781 C 440.21875 105.050781 432.082031 96.8125 432.082031 86.664062 C 432.082031 76.519531 440.21875 68.277344 450.46875 68.277344 L 718.394531 68.277344 C 728.542969 68.277344 736.78125 76.519531 736.78125 86.664062 Z M 736.78125 86.664062 " fill-opacity="1" fill-rule="nonzero"/><path fill="#7d6f69" d="M 384.371094 721.835938 L 360.230469 721.835938 L 360.230469 643.503906 C 360.230469 635.269531 353.636719 628.566406 345.53125 628.566406 L 243.472656 628.566406 C 222.050781 628.566406 204.621094 611.042969 204.621094 589.496094 L 204.621094 559.667969 L 228.761719 559.667969 L 228.761719 589.496094 C 228.761719 597.730469 235.363281 604.421875 243.472656 604.421875 L 345.53125 604.421875 C 366.949219 604.421875 384.371094 621.953125 384.371094 643.503906 Z M 535.902344 517.394531 L 511.761719 517.394531 L 511.761719 451.054688 C 511.761719 442.816406 505.167969 436.125 497.058594 436.125 L 243.472656 436.125 C 235.363281 436.125 228.761719 442.816406 228.761719 451.054688 L 228.761719 495.910156 L 204.621094 495.910156 L 204.621094 451.054688 C 204.621094 429.503906 222.050781 411.984375 243.472656 411.984375 L 497.058594 411.984375 C 518.480469 411.984375 535.902344 429.503906 535.902344 451.054688 Z M 535.902344 517.394531 " fill-opacity="1" fill-rule="nonzero"/><path fill="#7d6f69" d="M 360.652344 243.652344 L 379.230469 243.652344 L 379.230469 424.054688 L 360.652344 424.054688 Z M 360.652344 243.652344 " fill-opacity="1" fill-rule="nonzero"/><path fill="#7d6f69" d="M 622.109375 533.691406 L 558.871094 533.691406 L 558.871094 509.550781 L 622.109375 509.550781 C 630.214844 509.550781 636.808594 502.847656 636.808594 494.613281 L 636.808594 282.164062 C 636.808594 273.929688 630.214844 267.226562 622.109375 267.226562 L 435.882812 267.226562 L 435.882812 243.085938 L 622.109375 243.085938 C 643.53125 243.085938 660.949219 260.617188 660.949219 282.164062 L 660.949219 494.613281 C 660.949219 516.160156 643.53125 533.691406 622.109375 533.691406 Z M 622.109375 533.691406 " fill-opacity="1" fill-rule="nonzero"/><path fill="#e2f6c7" d="M 196.875 243.464844 L 71.015625 243.464844 C 64.027344 243.464844 58.359375 237.796875 58.359375 230.808594 C 58.359375 223.820312 64.027344 218.152344 71.015625 218.152344 L 196.875 218.152344 C 203.863281 218.152344 209.53125 223.820312 209.53125 230.808594 C 209.53125 237.796875 203.863281 243.464844 196.875 243.464844 Z M 133.941406 297.785156 L 71.015625 297.785156 C 64.027344 297.785156 58.359375 292.113281 58.359375 285.128906 C 58.359375 278.140625 64.027344 272.46875 71.015625 272.46875 L 133.941406 272.46875 C 140.929688 272.46875 146.597656 278.140625 146.597656 285.128906 C 146.597656 292.113281 140.929688 297.785156 133.941406 297.785156 Z M 738.984375 700.261719 L 613.125 700.261719 C 606.136719 700.261719 600.46875 694.589844 600.46875 687.601562 C 600.46875 680.613281 606.136719 674.945312 613.125 674.945312 L 738.984375 674.945312 C 745.972656 674.945312 751.640625 680.613281 751.640625 687.601562 C 751.640625 694.589844 745.972656 700.261719 738.984375 700.261719 Z M 676.050781 754.578125 L 613.125 754.578125 C 606.136719 754.578125 600.46875 748.910156 600.46875 741.921875 C 600.46875 734.933594 606.136719 729.265625 613.125 729.265625 L 676.050781 729.265625 C 683.039062 729.265625 688.707031 734.933594 688.707031 741.921875 C 688.707031 748.910156 683.039062 754.578125 676.050781 754.578125 Z M 676.050781 754.578125 " fill-opacity="1" fill-rule="nonzero"/><path fill="#c031f4" d="M 453.289062 434.578125 L 380.457031 507.410156 C 374.648438 513.222656 365.222656 513.222656 359.410156 507.410156 L 286.582031 434.578125 C 280.769531 428.765625 280.769531 419.34375 286.582031 413.53125 L 359.410156 340.695312 C 365.222656 334.882812 374.648438 334.882812 380.457031 340.695312 L 453.289062 413.53125 C 459.101562 419.34375 459.101562 428.765625 453.289062 434.578125 Z M 453.289062 434.578125 " fill-opacity="1" fill-rule="nonzero"/><path fill="#4c3bff" d="M 439.671875 302.558594 L 294.675781 302.558594 C 284.394531 302.558594 276.058594 294.222656 276.058594 283.941406 L 276.058594 226.375 C 276.058594 216.09375 284.394531 207.757812 294.675781 207.757812 L 439.671875 207.757812 C 449.953125 207.757812 458.289062 216.09375 458.289062 226.375 L 458.289062 283.941406 C 458.289062 294.222656 449.953125 302.558594 439.671875 302.558594 Z M 439.671875 302.558594 " fill-opacity="1" fill-rule="nonzero"/><path fill="#65beff" d="M 268.847656 568.558594 L 164.542969 568.558594 C 155.988281 568.558594 149.050781 561.621094 149.050781 553.0625 L 149.050781 490.171875 C 149.050781 481.613281 155.988281 474.675781 164.542969 474.675781 L 268.847656 474.675781 C 277.40625 474.675781 284.34375 481.613281 284.34375 490.171875 L 284.34375 553.0625 C 284.34375 561.621094 277.40625 568.558594 268.847656 568.558594 Z M 268.847656 568.558594 " fill-opacity="1" fill-rule="nonzero"/><path fill="#c64caf" d="M 568.882812 568.558594 L 464.582031 568.558594 C 456.023438 568.558594 449.085938 561.621094 449.085938 553.0625 L 449.085938 490.171875 C 449.085938 481.613281 456.023438 474.675781 464.582031 474.675781 L 568.882812 474.675781 C 577.441406 474.675781 584.378906 481.613281 584.378906 490.171875 L 584.378906 553.0625 C 584.378906 561.621094 577.441406 568.558594 568.882812 568.558594 Z M 568.882812 568.558594 " fill-opacity="1" fill-rule="nonzero"/><path fill="#e375fc" d="M 463.339844 727.199219 C 458.882812 749.816406 437.230469 764.972656 414.175781 764.972656 L 332.328125 764.972656 C 309.28125 764.972656 287.628906 749.816406 283.167969 727.203125 C 277.292969 697.398438 300.382812 670.132812 329.371094 670.132812 L 417.136719 670.132812 C 446.121094 670.132812 469.21875 697.398438 463.339844 727.199219 Z M 463.339844 727.199219 " fill-opacity="1" fill-rule="nonzero"/><path fill="#303dc7" d="M 315.40625 434.710938 L 384.421875 503.5625 L 380.542969 507.445312 C 374.636719 513.183594 365.1875 513.183594 359.449219 507.445312 L 286.550781 434.539062 C 280.8125 428.804688 280.8125 419.351562 286.550781 413.445312 L 359.449219 340.710938 C 365.1875 334.804688 374.636719 334.804688 380.542969 340.710938 L 384.421875 344.59375 L 315.40625 413.613281 C 309.667969 419.351562 309.667969 428.804688 315.40625 434.710938 Z M 315.40625 434.710938 " fill-opacity="1" fill-rule="nonzero"/><path fill="#fb5430" d="M 304.941406 226.460938 L 304.941406 284.007812 C 304.941406 294.300781 313.210938 302.570312 323.503906 302.570312 L 294.648438 302.570312 C 284.355469 302.570312 276.085938 294.300781 276.085938 284.007812 L 276.085938 226.292969 C 276.085938 216.164062 284.355469 207.726562 294.648438 207.726562 L 439.605469 207.726562 C 440.28125 207.726562 440.957031 207.726562 441.460938 207.898438 L 323.503906 207.898438 C 313.210938 207.898438 304.941406 216.164062 304.941406 226.460938 Z M 304.941406 226.460938 " fill-opacity="1" fill-rule="nonzero"/><path fill="#a34cf1" d="M 191.878906 568.535156 L 164.542969 568.535156 C 155.9375 568.535156 149.015625 561.617188 149.015625 553.011719 L 149.015625 490.230469 C 149.015625 481.625 155.9375 474.707031 164.542969 474.707031 L 193.398438 474.707031 C 184.792969 474.707031 177.875 481.625 177.875 490.230469 L 177.875 553.179688 C 177.875 561.109375 183.949219 567.863281 191.878906 568.535156 Z M 191.878906 568.535156 " fill-opacity="1" fill-rule="nonzero"/><path fill="#b52ac3" d="M 491.917969 568.535156 L 464.578125 568.535156 C 455.972656 568.535156 449.054688 561.617188 449.054688 553.011719 L 449.054688 490.230469 C 449.054688 481.625 455.972656 474.707031 464.578125 474.707031 L 493.4375 474.707031 C 484.832031 474.707031 477.910156 481.625 477.910156 490.230469 L 477.910156 553.179688 C 477.910156 561.109375 483.988281 567.863281 491.917969 568.535156 Z M 491.917969 568.535156 " fill-opacity="1" fill-rule="nonzero"/><path fill="#9855e9" d="M 361.136719 764.972656 L 332.28125 764.972656 C 309.328125 764.972656 287.5625 749.785156 283.171875 727.171875 C 277.269531 697.46875 300.386719 670.128906 329.410156 670.128906 L 358.269531 670.128906 C 329.242188 670.128906 306.125 697.46875 312.03125 727.339844 C 316.417969 749.953125 338.1875 764.972656 361.136719 764.972656 Z M 361.136719 764.972656 " fill-opacity="1" fill-rule="nonzero"/></svg>