<svg xmlns="http://www.w3.org/2000/svg" xmlns:xlink="http://www.w3.org/1999/xlink" width="1080" zoomAndPan="magnify" viewBox="0 0 810 809.999993" height="1080" preserveAspectRatio="xMidYMid meet" version="1.0"><path fill="#ffddf4" d="M 0.308594 109.585938 L 0.308594 689.460938 C 0.308594 719.273438 24.519531 743.347656 54.191406 743.347656 L 618.21875 743.347656 C 648.03125 743.347656 672.105469 719.273438 672.105469 689.460938 L 672.105469 109.585938 Z M 0.308594 109.585938 " fill-opacity="1" fill-rule="nonzero"/><path fill="#cbcdf2" d="M 85.683594 743.347656 L 54.191406 743.347656 C 24.519531 743.347656 0.308594 719.273438 0.308594 689.460938 L 0.308594 109.585938 L 31.796875 109.585938 L 31.796875 689.460938 C 31.796875 719.273438 56.011719 743.347656 85.683594 743.347656 Z M 85.683594 743.347656 " fill-opacity="1" fill-rule="nonzero"/><path fill="#818e58" d="M 672.105469 53.882812 L 672.105469 110.707031 L 0.308594 110.707031 L 0.308594 53.882812 C 0.308594 24.074219 24.519531 0 54.191406 0 L 618.21875 0 C 648.03125 0 672.105469 24.074219 672.105469 53.882812 Z M 672.105469 53.882812 " fill-opacity="1" fill-rule="nonzero"/><path fill="#473238" d="M 85.683594 0 C 56.011719 0 31.796875 24.074219 31.796875 53.882812 L 31.796875 110.707031 L 0.308594 110.707031 L 0.308594 53.882812 C 0.308594 24.074219 24.519531 0 54.191406 0 Z M 85.683594 0 " fill-opacity="1" fill-rule="nonzero"/><path fill="#ffddf4" d="M 95.664062 55.0625 C 95.664062 55.703125 95.632812 56.34375 95.570312 56.980469 C 95.507812 57.617188 95.414062 58.25 95.289062 58.878906 C 95.164062 59.507812 95.007812 60.128906 94.820312 60.742188 C 94.636719 61.355469 94.421875 61.957031 94.175781 62.546875 C 93.929688 63.140625 93.65625 63.71875 93.355469 64.28125 C 93.054688 64.847656 92.722656 65.394531 92.367188 65.929688 C 92.011719 66.460938 91.632812 66.976562 91.226562 67.46875 C 90.820312 67.964844 90.390625 68.441406 89.9375 68.894531 C 89.484375 69.347656 89.007812 69.777344 88.515625 70.183594 C 88.019531 70.589844 87.503906 70.96875 86.972656 71.324219 C 86.441406 71.679688 85.890625 72.011719 85.324219 72.3125 C 84.761719 72.613281 84.183594 72.886719 83.589844 73.132812 C 83 73.378906 82.398438 73.59375 81.785156 73.777344 C 81.171875 73.964844 80.550781 74.121094 79.921875 74.246094 C 79.292969 74.371094 78.660156 74.464844 78.023438 74.527344 C 77.386719 74.589844 76.746094 74.621094 76.105469 74.621094 C 75.464844 74.621094 74.828125 74.589844 74.1875 74.527344 C 73.550781 74.464844 72.917969 74.371094 72.289062 74.246094 C 71.664062 74.121094 71.042969 73.964844 70.429688 73.777344 C 69.816406 73.59375 69.214844 73.378906 68.621094 73.132812 C 68.03125 72.886719 67.453125 72.613281 66.886719 72.3125 C 66.320312 72.011719 65.773438 71.679688 65.242188 71.324219 C 64.707031 70.96875 64.195312 70.589844 63.699219 70.183594 C 63.203125 69.777344 62.730469 69.347656 62.277344 68.894531 C 61.824219 68.441406 61.394531 67.964844 60.988281 67.46875 C 60.582031 66.976562 60.199219 66.460938 59.84375 65.929688 C 59.488281 65.394531 59.160156 64.847656 58.859375 64.28125 C 58.554688 63.71875 58.28125 63.140625 58.035156 62.546875 C 57.792969 61.957031 57.578125 61.355469 57.390625 60.742188 C 57.203125 60.128906 57.050781 59.507812 56.925781 58.878906 C 56.800781 58.25 56.707031 57.617188 56.640625 56.980469 C 56.578125 56.34375 56.546875 55.703125 56.546875 55.0625 C 56.546875 54.421875 56.578125 53.785156 56.640625 53.144531 C 56.707031 52.507812 56.800781 51.875 56.925781 51.246094 C 57.050781 50.621094 57.203125 50 57.390625 49.386719 C 57.578125 48.773438 57.792969 48.171875 58.035156 47.578125 C 58.28125 46.988281 58.554688 46.410156 58.859375 45.84375 C 59.160156 45.277344 59.488281 44.730469 59.84375 44.195312 C 60.199219 43.664062 60.582031 43.152344 60.988281 42.65625 C 61.394531 42.160156 61.824219 41.6875 62.277344 41.234375 C 62.730469 40.78125 63.203125 40.351562 63.699219 39.945312 C 64.195312 39.539062 64.707031 39.15625 65.242188 38.800781 C 65.773438 38.445312 66.320312 38.117188 66.886719 37.8125 C 67.453125 37.511719 68.03125 37.238281 68.621094 36.992188 C 69.214844 36.75 69.816406 36.53125 70.429688 36.347656 C 71.042969 36.160156 71.664062 36.003906 72.289062 35.878906 C 72.917969 35.753906 73.550781 35.660156 74.1875 35.597656 C 74.828125 35.535156 75.464844 35.503906 76.105469 35.503906 C 76.746094 35.503906 77.386719 35.535156 78.023438 35.597656 C 78.660156 35.660156 79.292969 35.753906 79.921875 35.878906 C 80.550781 36.003906 81.171875 36.160156 81.785156 36.347656 C 82.398438 36.53125 83 36.75 83.589844 36.992188 C 84.183594 37.238281 84.761719 37.511719 85.324219 37.8125 C 85.890625 38.117188 86.441406 38.445312 86.972656 38.800781 C 87.503906 39.15625 88.019531 39.539062 88.515625 39.945312 C 89.007812 40.351562 89.484375 40.78125 89.9375 41.234375 C 90.390625 41.6875 90.820312 42.160156 91.226562 42.65625 C 91.632812 43.152344 92.011719 43.664062 92.367188 44.195312 C 92.722656 44.730469 93.054688 45.277344 93.355469 45.84375 C 93.65625 46.410156 93.929688 46.988281 94.175781 47.578125 C 94.421875 48.171875 94.636719 48.773438 94.820312 49.386719 C 95.007812 50 95.164062 50.621094 95.289062 51.246094 C 95.414062 51.875 95.507812 52.507812 95.570312 53.144531 C 95.632812 53.785156 95.664062 54.421875 95.664062 55.0625 Z M 95.664062 55.0625 " fill-opacity="1" fill-rule="nonzero"/><path fill="#ffddf4" d="M 156.328125 55.0625 C 156.328125 55.703125 156.296875 56.34375 156.234375 56.980469 C 156.171875 57.617188 156.078125 58.25 155.953125 58.878906 C 155.828125 59.507812 155.671875 60.128906 155.488281 60.742188 C 155.300781 61.355469 155.085938 61.957031 154.839844 62.546875 C 154.597656 63.140625 154.324219 63.71875 154.019531 64.28125 C 153.71875 64.847656 153.390625 65.394531 153.035156 65.929688 C 152.679688 66.460938 152.296875 66.976562 151.890625 67.46875 C 151.484375 67.964844 151.054688 68.441406 150.601562 68.894531 C 150.148438 69.347656 149.675781 69.777344 149.179688 70.183594 C 148.683594 70.589844 148.171875 70.96875 147.636719 71.324219 C 147.105469 71.679688 146.554688 72.011719 145.992188 72.3125 C 145.425781 72.613281 144.847656 72.886719 144.257812 73.132812 C 143.664062 73.378906 143.0625 73.59375 142.449219 73.777344 C 141.835938 73.964844 141.214844 74.121094 140.585938 74.246094 C 139.960938 74.371094 139.328125 74.464844 138.6875 74.527344 C 138.050781 74.589844 137.414062 74.621094 136.773438 74.621094 C 136.132812 74.621094 135.492188 74.589844 134.855469 74.527344 C 134.21875 74.464844 133.585938 74.371094 132.957031 74.246094 C 132.328125 74.121094 131.707031 73.964844 131.09375 73.777344 C 130.480469 73.59375 129.878906 73.378906 129.289062 73.132812 C 128.695312 72.886719 128.117188 72.613281 127.550781 72.3125 C 126.988281 72.011719 126.4375 71.679688 125.90625 71.324219 C 125.375 70.96875 124.859375 70.589844 124.363281 70.183594 C 123.871094 69.777344 123.394531 69.347656 122.941406 68.894531 C 122.488281 68.441406 122.058594 67.964844 121.652344 67.46875 C 121.246094 66.976562 120.867188 66.460938 120.511719 65.929688 C 120.152344 65.394531 119.824219 64.847656 119.523438 64.28125 C 119.222656 63.71875 118.949219 63.140625 118.703125 62.546875 C 118.457031 61.957031 118.242188 61.355469 118.054688 60.742188 C 117.871094 60.128906 117.714844 59.507812 117.589844 58.878906 C 117.464844 58.25 117.371094 57.617188 117.308594 56.980469 C 117.246094 56.34375 117.214844 55.703125 117.214844 55.0625 C 117.214844 54.421875 117.246094 53.785156 117.308594 53.144531 C 117.371094 52.507812 117.464844 51.875 117.589844 51.246094 C 117.714844 50.621094 117.871094 50 118.054688 49.386719 C 118.242188 48.773438 118.457031 48.171875 118.703125 47.578125 C 118.949219 46.988281 119.222656 46.410156 119.523438 45.84375 C 119.824219 45.277344 120.152344 44.730469 120.511719 44.195312 C 120.867188 43.664062 121.246094 43.152344 121.652344 42.65625 C 122.058594 42.160156 122.488281 41.6875 122.941406 41.234375 C 123.394531 40.78125 123.871094 40.351562 124.363281 39.945312 C 124.859375 39.539062 125.375 39.15625 125.90625 38.800781 C 126.4375 38.445312 126.988281 38.117188 127.550781 37.8125 C 128.117188 37.511719 128.695312 37.238281 129.289062 36.992188 C 129.878906 36.75 130.480469 36.53125 131.09375 36.347656 C 131.707031 36.160156 132.328125 36.003906 132.957031 35.878906 C 133.585938 35.753906 134.21875 35.660156 134.855469 35.597656 C 135.492188 35.535156 136.132812 35.503906 136.773438 35.503906 C 137.414062 35.503906 138.050781 35.535156 138.6875 35.597656 C 139.328125 35.660156 139.960938 35.753906 140.585938 35.878906 C 141.214844 36.003906 141.835938 36.160156 142.449219 36.347656 C 143.0625 36.53125 143.664062 36.75 144.257812 36.992188 C 144.847656 37.238281 145.425781 37.511719 145.992188 37.8125 C 146.554688 38.117188 147.105469 38.445312 147.636719 38.800781 C 148.171875 39.15625 148.683594 39.539062 149.179688 39.945312 C 149.675781 40.351562 150.148438 40.78125 150.601562 41.234375 C 151.054688 41.6875 151.484375 42.160156 151.890625 42.65625 C 152.296875 43.152344 152.679688 43.664062 153.035156 44.195312 C 153.390625 44.730469 153.71875 45.277344 154.019531 45.84375 C 154.324219 46.410156 154.597656 46.988281 154.839844 47.578125 C 155.085938 48.171875 155.300781 48.773438 155.488281 49.386719 C 155.671875 50 155.828125 50.621094 155.953125 51.246094 C 156.078125 51.875 156.171875 52.507812 156.234375 53.144531 C 156.296875 53.785156 156.328125 54.421875 156.328125 55.0625 Z M 156.328125 55.0625 " fill-opacity="1" fill-rule="nonzero"/><path fill="#ffddf4" d="M 216.980469 55.0625 C 216.980469 55.703125 216.949219 56.34375 216.882812 56.980469 C 216.820312 57.617188 216.726562 58.25 216.601562 58.878906 C 216.476562 59.507812 216.324219 60.128906 216.136719 60.742188 C 215.949219 61.355469 215.734375 61.957031 215.488281 62.546875 C 215.246094 63.140625 214.972656 63.71875 214.667969 64.28125 C 214.367188 64.847656 214.039062 65.394531 213.683594 65.929688 C 213.328125 66.460938 212.945312 66.976562 212.539062 67.46875 C 212.132812 67.964844 211.703125 68.441406 211.25 68.894531 C 210.796875 69.347656 210.324219 69.777344 209.828125 70.183594 C 209.332031 70.589844 208.820312 70.96875 208.285156 71.324219 C 207.753906 71.679688 207.207031 72.011719 206.640625 72.3125 C 206.074219 72.613281 205.496094 72.886719 204.90625 73.132812 C 204.3125 73.378906 203.710938 73.59375 203.097656 73.777344 C 202.484375 73.964844 201.863281 74.121094 201.234375 74.246094 C 200.609375 74.371094 199.976562 74.464844 199.335938 74.527344 C 198.699219 74.589844 198.0625 74.621094 197.421875 74.621094 C 196.78125 74.621094 196.140625 74.589844 195.503906 74.527344 C 194.867188 74.464844 194.234375 74.371094 193.605469 74.246094 C 192.976562 74.121094 192.355469 73.964844 191.742188 73.777344 C 191.128906 73.59375 190.527344 73.378906 189.9375 73.132812 C 189.34375 72.886719 188.765625 72.613281 188.199219 72.3125 C 187.636719 72.011719 187.085938 71.679688 186.554688 71.324219 C 186.023438 70.96875 185.507812 70.589844 185.011719 70.183594 C 184.519531 69.777344 184.042969 69.347656 183.589844 68.894531 C 183.136719 68.441406 182.707031 67.964844 182.300781 67.46875 C 181.894531 66.976562 181.515625 66.460938 181.160156 65.929688 C 180.804688 65.394531 180.472656 64.847656 180.171875 64.28125 C 179.871094 63.71875 179.597656 63.140625 179.351562 62.546875 C 179.105469 61.957031 178.890625 61.355469 178.703125 60.742188 C 178.519531 60.128906 178.363281 59.507812 178.238281 58.878906 C 178.113281 58.25 178.019531 57.617188 177.957031 56.980469 C 177.894531 56.34375 177.863281 55.703125 177.863281 55.0625 C 177.863281 54.421875 177.894531 53.785156 177.957031 53.144531 C 178.019531 52.507812 178.113281 51.875 178.238281 51.246094 C 178.363281 50.621094 178.519531 50 178.703125 49.386719 C 178.890625 48.773438 179.105469 48.171875 179.351562 47.578125 C 179.597656 46.988281 179.871094 46.410156 180.171875 45.84375 C 180.472656 45.277344 180.804688 44.730469 181.160156 44.195312 C 181.515625 43.664062 181.894531 43.152344 182.300781 42.65625 C 182.707031 42.160156 183.136719 41.6875 183.589844 41.234375 C 184.042969 40.78125 184.519531 40.351562 185.011719 39.945312 C 185.507812 39.539062 186.023438 39.15625 186.554688 38.800781 C 187.085938 38.445312 187.636719 38.117188 188.199219 37.8125 C 188.765625 37.511719 189.34375 37.238281 189.9375 36.992188 C 190.527344 36.75 191.128906 36.53125 191.742188 36.347656 C 192.355469 36.160156 192.976562 36.003906 193.605469 35.878906 C 194.234375 35.753906 194.867188 35.660156 195.503906 35.597656 C 196.140625 35.535156 196.78125 35.503906 197.421875 35.503906 C 198.0625 35.503906 198.699219 35.535156 199.335938 35.597656 C 199.976562 35.660156 200.609375 35.753906 201.234375 35.878906 C 201.863281 36.003906 202.484375 36.160156 203.097656 36.347656 C 203.710938 36.53125 204.3125 36.75 204.90625 36.992188 C 205.496094 37.238281 206.074219 37.511719 206.640625 37.8125 C 207.207031 38.117188 207.753906 38.445312 208.285156 38.800781 C 208.820312 39.15625 209.332031 39.539062 209.828125 39.945312 C 210.324219 40.351562 210.796875 40.78125 211.25 41.234375 C 211.703125 41.6875 212.132812 42.160156 212.539062 42.65625 C 212.945312 43.152344 213.328125 43.664062 213.683594 44.195312 C 214.039062 44.730469 214.367188 45.277344 214.667969 45.84375 C 214.972656 46.410156 215.246094 46.988281 215.488281 47.578125 C 215.734375 48.171875 215.949219 48.773438 216.136719 49.386719 C 216.324219 50 216.476562 50.621094 216.601562 51.246094 C 216.726562 51.875 216.820312 52.507812 216.882812 53.144531 C 216.949219 53.785156 216.980469 54.421875 216.980469 55.0625 Z M 216.980469 55.0625 " fill-opacity="1" fill-rule="nonzero"/><path fill="#ffddf4" d="M 615.867188 55.132812 C 615.867188 62.410156 609.847656 68.425781 602.570312 68.425781 L 344.90625 68.425781 C 337.488281 68.425781 331.613281 62.410156 331.613281 55.132812 C 331.613281 47.714844 337.488281 41.695312 344.90625 41.695312 L 602.570312 41.695312 C 609.847656 41.695312 615.867188 47.714844 615.867188 55.132812 Z M 615.867188 55.132812 " fill-opacity="1" fill-rule="nonzero"/><path fill="#57be54" d="M 53.09375 354.507812 L 53.09375 185.058594 C 53.09375 172.308594 63.425781 161.972656 76.175781 161.972656 L 596.234375 161.972656 C 608.984375 161.972656 619.320312 172.308594 619.320312 185.058594 L 619.320312 354.507812 C 619.320312 367.257812 608.984375 377.59375 596.234375 377.59375 L 76.175781 377.59375 C 63.425781 377.59375 53.09375 367.257812 53.09375 354.507812 Z M 53.09375 354.507812 " fill-opacity="1" fill-rule="nonzero"/><path fill="#7c2192" d="M 136.386719 377.523438 L 76.179688 377.523438 C 63.421875 377.523438 53.152344 367.253906 53.152344 354.5 L 53.152344 185.074219 C 53.152344 172.320312 63.421875 161.894531 76.179688 161.894531 L 136.386719 161.894531 C 123.785156 161.894531 113.359375 172.320312 113.359375 185.074219 L 113.359375 354.5 C 113.359375 367.253906 123.785156 377.523438 136.386719 377.523438 Z M 136.386719 377.523438 " fill-opacity="1" fill-rule="nonzero"/><path fill="#dc4958" d="M 195.816406 444.265625 L 195.816406 532.789062 C 195.816406 545.542969 185.546875 555.96875 172.792969 555.96875 L 76.179688 555.96875 C 63.421875 555.96875 53.152344 545.542969 53.152344 532.789062 L 53.152344 444.265625 C 53.152344 431.507812 63.421875 421.238281 76.179688 421.238281 L 172.792969 421.238281 C 185.546875 421.238281 195.816406 431.507812 195.816406 444.265625 Z M 195.816406 444.265625 " fill-opacity="1" fill-rule="nonzero"/><path fill="#f7e16d" d="M 264.8125 532.8125 L 264.8125 444.261719 C 264.8125 431.511719 275.148438 421.175781 287.898438 421.175781 L 384.511719 421.175781 C 397.261719 421.175781 407.597656 431.511719 407.597656 444.261719 L 407.597656 532.8125 C 407.597656 545.558594 397.261719 555.894531 384.511719 555.894531 L 287.898438 555.894531 C 275.148438 555.894531 264.8125 545.558594 264.8125 532.8125 Z M 264.8125 532.8125 " fill-opacity="1" fill-rule="nonzero"/><path fill="#41ff3b" d="M 476.535156 532.8125 L 476.535156 444.261719 C 476.535156 431.511719 486.871094 421.175781 499.621094 421.175781 L 596.234375 421.175781 C 608.984375 421.175781 619.320312 431.511719 619.320312 444.261719 L 619.320312 532.8125 C 619.320312 545.558594 608.984375 555.894531 596.234375 555.894531 L 499.621094 555.894531 C 486.871094 555.894531 476.535156 545.558594 476.535156 532.8125 Z M 53.09375 667.875 L 53.09375 621.648438 C 53.09375 608.898438 63.425781 598.566406 76.175781 598.566406 L 172.789062 598.566406 C 185.539062 598.566406 195.875 608.898438 195.875 621.648438 L 195.875 667.875 C 195.875 680.625 185.539062 690.960938 172.789062 690.960938 L 76.175781 690.960938 C 63.425781 690.960938 53.09375 680.625 53.09375 667.875 Z M 53.09375 667.875 " fill-opacity="1" fill-rule="nonzero"/><path fill="#b030fb" d="M 114.449219 691.007812 L 76.179688 691.007812 C 63.421875 691.007812 53.152344 680.585938 53.152344 667.828125 L 53.152344 621.621094 C 53.152344 608.863281 63.421875 598.597656 76.179688 598.597656 L 114.449219 598.597656 C 101.691406 598.597656 91.269531 608.863281 91.269531 621.621094 L 91.269531 667.828125 C 91.269531 680.585938 101.691406 691.007812 114.449219 691.007812 Z M 114.449219 691.007812 " fill-opacity="1" fill-rule="nonzero"/><path fill="#57be54" d="M 264.8125 667.875 L 264.8125 621.648438 C 264.8125 608.898438 275.148438 598.566406 287.898438 598.566406 L 384.511719 598.566406 C 397.261719 598.566406 407.597656 608.898438 407.597656 621.648438 L 407.597656 667.875 C 407.597656 680.625 397.261719 690.960938 384.511719 690.960938 L 287.898438 690.960938 C 275.148438 690.960938 264.8125 680.625 264.8125 667.875 Z M 264.8125 667.875 " fill-opacity="1" fill-rule="nonzero"/><path fill="#dc4958" d="M 476.535156 667.875 L 476.535156 621.648438 C 476.535156 608.898438 486.871094 598.566406 499.621094 598.566406 L 596.234375 598.566406 C 608.984375 598.566406 619.320312 608.898438 619.320312 621.648438 L 619.320312 667.875 C 619.320312 680.625 608.984375 690.960938 596.234375 690.960938 L 499.621094 690.960938 C 486.871094 690.960938 476.535156 680.625 476.535156 667.875 Z M 476.535156 667.875 " fill-opacity="1" fill-rule="nonzero"/><path fill="#7c2192" d="M 458.28125 347.808594 L 214.128906 347.808594 C 205.59375 347.808594 200.5625 338.234375 205.402344 331.203125 L 284.230469 216.777344 C 288.441406 210.664062 297.472656 210.664062 301.683594 216.78125 L 347.109375 282.738281 C 351.246094 288.746094 360.074219 288.875 364.382812 282.996094 L 389.527344 248.699219 C 393.761719 242.921875 402.390625 242.921875 406.621094 248.703125 L 466.832031 330.957031 C 471.953125 337.957031 466.957031 347.808594 458.28125 347.808594 Z M 458.28125 347.808594 " fill-opacity="1" fill-rule="nonzero"/><path fill="#7c2192" d="M 375.46875 212.1875 C 375.46875 212.855469 375.4375 213.523438 375.371094 214.1875 C 375.304688 214.855469 375.207031 215.515625 375.074219 216.171875 C 374.945312 216.828125 374.78125 217.476562 374.589844 218.117188 C 374.394531 218.757812 374.167969 219.386719 373.914062 220.007812 C 373.65625 220.625 373.371094 221.230469 373.054688 221.820312 C 372.738281 222.410156 372.398438 222.984375 372.023438 223.539062 C 371.652344 224.097656 371.253906 224.632812 370.832031 225.152344 C 370.40625 225.667969 369.957031 226.164062 369.484375 226.636719 C 369.011719 227.109375 368.515625 227.558594 367.996094 227.984375 C 367.480469 228.40625 366.941406 228.804688 366.386719 229.179688 C 365.828125 229.550781 365.257812 229.894531 364.667969 230.207031 C 364.074219 230.523438 363.472656 230.808594 362.851562 231.066406 C 362.234375 231.324219 361.605469 231.546875 360.964844 231.742188 C 360.324219 231.9375 359.675781 232.097656 359.019531 232.230469 C 358.363281 232.359375 357.703125 232.457031 357.035156 232.523438 C 356.371094 232.589844 355.703125 232.621094 355.03125 232.621094 C 354.363281 232.621094 353.695312 232.589844 353.03125 232.523438 C 352.363281 232.457031 351.703125 232.359375 351.046875 232.230469 C 350.390625 232.097656 349.742188 231.9375 349.101562 231.742188 C 348.460938 231.546875 347.832031 231.324219 347.210938 231.066406 C 346.59375 230.808594 345.988281 230.523438 345.398438 230.207031 C 344.808594 229.894531 344.234375 229.550781 343.679688 229.179688 C 343.125 228.804688 342.585938 228.40625 342.070312 227.984375 C 341.550781 227.558594 341.054688 227.109375 340.582031 226.636719 C 340.109375 226.164062 339.660156 225.667969 339.234375 225.152344 C 338.8125 224.632812 338.414062 224.097656 338.042969 223.539062 C 337.667969 222.984375 337.324219 222.410156 337.011719 221.820312 C 336.695312 221.230469 336.410156 220.625 336.152344 220.007812 C 335.898438 219.386719 335.671875 218.757812 335.476562 218.117188 C 335.28125 217.476562 335.121094 216.828125 334.988281 216.171875 C 334.859375 215.515625 334.761719 214.855469 334.695312 214.1875 C 334.628906 213.523438 334.597656 212.855469 334.597656 212.1875 C 334.597656 211.515625 334.628906 210.847656 334.695312 210.183594 C 334.761719 209.515625 334.859375 208.855469 334.988281 208.199219 C 335.121094 207.542969 335.28125 206.894531 335.476562 206.253906 C 335.671875 205.613281 335.898438 204.984375 336.152344 204.367188 C 336.410156 203.746094 336.695312 203.144531 337.011719 202.554688 C 337.324219 201.960938 337.667969 201.390625 338.042969 200.832031 C 338.414062 200.277344 338.8125 199.738281 339.234375 199.222656 C 339.660156 198.703125 340.109375 198.210938 340.582031 197.734375 C 341.054688 197.261719 341.550781 196.8125 342.070312 196.390625 C 342.585938 195.964844 343.125 195.566406 343.679688 195.195312 C 344.234375 194.824219 344.808594 194.480469 345.398438 194.164062 C 345.988281 193.847656 346.59375 193.5625 347.210938 193.304688 C 347.832031 193.050781 348.460938 192.824219 349.101562 192.628906 C 349.742188 192.4375 350.390625 192.273438 351.046875 192.144531 C 351.703125 192.011719 352.363281 191.914062 353.03125 191.847656 C 353.695312 191.785156 354.363281 191.75 355.03125 191.75 C 355.703125 191.75 356.371094 191.785156 357.035156 191.847656 C 357.703125 191.914062 358.363281 192.011719 359.019531 192.144531 C 359.675781 192.273438 360.324219 192.4375 360.964844 192.628906 C 361.605469 192.824219 362.234375 193.050781 362.851562 193.304688 C 363.472656 193.5625 364.074219 193.847656 364.667969 194.164062 C 365.257812 194.480469 365.828125 194.824219 366.386719 195.195312 C 366.941406 195.566406 367.480469 195.964844 367.996094 196.390625 C 368.515625 196.8125 369.011719 197.261719 369.484375 197.734375 C 369.957031 198.210938 370.40625 198.703125 370.828125 199.222656 C 371.253906 199.738281 371.652344 200.277344 372.023438 200.832031 C 372.398438 201.390625 372.738281 201.960938 373.054688 202.554688 C 373.371094 203.144531 373.65625 203.746094 373.914062 204.367188 C 374.167969 204.984375 374.394531 205.613281 374.589844 206.253906 C 374.78125 206.894531 374.945312 207.542969 375.074219 208.199219 C 375.207031 208.855469 375.304688 209.515625 375.371094 210.183594 C 375.4375 210.847656 375.46875 211.515625 375.46875 212.1875 Z M 375.46875 212.1875 " fill-opacity="1" fill-rule="nonzero"/><path fill="#d81f57" d="M 195.816406 517.851562 L 195.816406 532.789062 C 195.816406 545.542969 185.546875 555.96875 172.792969 555.96875 L 76.179688 555.96875 C 63.421875 555.96875 53.152344 545.542969 53.152344 532.789062 L 53.152344 511.628906 L 86.292969 463.558594 C 89.246094 459.199219 95.625 459.199219 98.582031 463.558594 L 130.628906 510.074219 C 133.585938 514.273438 139.808594 514.429688 142.765625 510.230469 L 160.5 485.960938 C 163.457031 481.914062 169.523438 481.914062 172.636719 486.113281 Z M 195.816406 517.851562 " fill-opacity="1" fill-rule="nonzero"/><path fill="#d81f57" d="M 150.625 460.300781 C 150.625 461.246094 150.535156 462.183594 150.347656 463.109375 C 150.164062 464.039062 149.890625 464.941406 149.527344 465.8125 C 149.167969 466.6875 148.722656 467.519531 148.199219 468.304688 C 147.671875 469.09375 147.074219 469.820312 146.40625 470.488281 C 145.734375 471.160156 145.007812 471.757812 144.222656 472.28125 C 143.433594 472.808594 142.605469 473.25 141.730469 473.613281 C 140.855469 473.976562 139.953125 474.25 139.027344 474.433594 C 138.097656 474.617188 137.160156 474.710938 136.214844 474.710938 C 135.269531 474.710938 134.332031 474.617188 133.402344 474.433594 C 132.476562 474.25 131.574219 473.976562 130.699219 473.613281 C 129.824219 473.25 128.996094 472.808594 128.207031 472.28125 C 127.421875 471.757812 126.695312 471.160156 126.023438 470.488281 C 125.355469 469.820312 124.757812 469.09375 124.234375 468.304688 C 123.707031 467.519531 123.261719 466.6875 122.902344 465.8125 C 122.539062 464.941406 122.265625 464.039062 122.082031 463.109375 C 121.894531 462.183594 121.804688 461.246094 121.804688 460.300781 C 121.804688 459.351562 121.894531 458.414062 122.082031 457.488281 C 122.265625 456.558594 122.539062 455.660156 122.902344 454.785156 C 123.261719 453.910156 123.707031 453.078125 124.234375 452.292969 C 124.757812 451.507812 125.355469 450.777344 126.023438 450.109375 C 126.695312 449.441406 127.421875 448.84375 128.207031 448.316406 C 128.996094 447.792969 129.824219 447.347656 130.699219 446.984375 C 131.574219 446.621094 132.476562 446.351562 133.402344 446.164062 C 134.332031 445.980469 135.269531 445.886719 136.214844 445.886719 C 137.160156 445.886719 138.097656 445.980469 139.027344 446.164062 C 139.953125 446.351562 140.855469 446.621094 141.730469 446.984375 C 142.605469 447.347656 143.433594 447.792969 144.222656 448.316406 C 145.007812 448.84375 145.734375 449.441406 146.40625 450.109375 C 147.074219 450.777344 147.671875 451.507812 148.199219 452.292969 C 148.722656 453.078125 149.167969 453.910156 149.527344 454.785156 C 149.890625 455.660156 150.164062 456.558594 150.347656 457.488281 C 150.535156 458.414062 150.625 459.351562 150.625 460.300781 Z M 150.625 460.300781 " fill-opacity="1" fill-rule="nonzero"/><path fill="#6fff3e" d="M 407.539062 517.851562 L 407.539062 532.789062 C 407.539062 545.542969 397.269531 555.96875 384.511719 555.96875 L 287.898438 555.96875 C 275.140625 555.96875 264.875 545.542969 264.875 532.789062 L 264.875 511.628906 L 298.011719 463.558594 C 300.96875 459.199219 307.347656 459.199219 310.300781 463.558594 L 342.351562 510.074219 C 345.308594 514.273438 351.53125 514.429688 354.484375 510.230469 L 372.222656 485.960938 C 375.175781 481.914062 381.246094 481.914062 384.355469 486.113281 Z M 407.539062 517.851562 " fill-opacity="1" fill-rule="nonzero"/><path fill="#6fff3e" d="M 362.339844 460.300781 C 362.339844 461.246094 362.246094 462.183594 362.0625 463.109375 C 361.878906 464.039062 361.605469 464.941406 361.242188 465.8125 C 360.878906 466.6875 360.4375 467.519531 359.910156 468.304688 C 359.386719 469.09375 358.789062 469.820312 358.117188 470.488281 C 357.449219 471.160156 356.722656 471.757812 355.933594 472.28125 C 355.148438 472.808594 354.316406 473.25 353.445312 473.613281 C 352.570312 473.976562 351.667969 474.25 350.738281 474.433594 C 349.8125 474.617188 348.875 474.710938 347.929688 474.710938 C 346.984375 474.710938 346.046875 474.617188 345.117188 474.433594 C 344.1875 474.25 343.289062 473.976562 342.414062 473.613281 C 341.539062 473.25 340.710938 472.808594 339.921875 472.28125 C 339.136719 471.757812 338.40625 471.160156 337.738281 470.488281 C 337.070312 469.820312 336.472656 469.09375 335.945312 468.304688 C 335.421875 467.519531 334.976562 466.6875 334.613281 465.8125 C 334.253906 464.941406 333.980469 464.039062 333.792969 463.109375 C 333.609375 462.183594 333.515625 461.246094 333.515625 460.300781 C 333.515625 459.351562 333.609375 458.414062 333.792969 457.488281 C 333.980469 456.558594 334.253906 455.660156 334.613281 454.785156 C 334.976562 453.910156 335.421875 453.078125 335.945312 452.292969 C 336.472656 451.507812 337.070312 450.777344 337.738281 450.109375 C 338.40625 449.441406 339.136719 448.84375 339.921875 448.316406 C 340.710938 447.792969 341.539062 447.347656 342.414062 446.984375 C 343.289062 446.621094 344.1875 446.351562 345.117188 446.164062 C 346.046875 445.980469 346.984375 445.886719 347.929688 445.886719 C 348.875 445.886719 349.8125 445.980469 350.738281 446.164062 C 351.667969 446.351562 352.570312 446.621094 353.445312 446.984375 C 354.316406 447.347656 355.148438 447.792969 355.933594 448.316406 C 356.722656 448.84375 357.449219 449.441406 358.117188 450.109375 C 358.789062 450.777344 359.386719 451.507812 359.910156 452.292969 C 360.4375 453.078125 360.878906 453.910156 361.242188 454.785156 C 361.605469 455.660156 361.878906 456.558594 362.0625 457.488281 C 362.246094 458.414062 362.339844 459.351562 362.339844 460.300781 Z M 362.339844 460.300781 " fill-opacity="1" fill-rule="nonzero"/><path fill="#e62397" d="M 619.257812 517.851562 L 619.257812 532.789062 C 619.257812 545.542969 608.992188 555.96875 596.234375 555.96875 L 499.621094 555.96875 C 486.863281 555.96875 476.59375 545.542969 476.59375 532.789062 L 476.59375 511.628906 L 509.734375 463.558594 C 512.6875 459.199219 519.066406 459.199219 522.023438 463.558594 L 554.074219 510.074219 C 557.027344 514.273438 563.25 514.429688 566.207031 510.230469 L 583.941406 485.960938 C 586.898438 481.914062 592.964844 481.914062 596.078125 486.113281 Z M 619.257812 517.851562 " fill-opacity="1" fill-rule="nonzero"/><path fill="#e62397" d="M 574.054688 460.300781 C 574.054688 461.246094 573.960938 462.183594 573.777344 463.109375 C 573.59375 464.039062 573.320312 464.941406 572.957031 465.8125 C 572.59375 466.6875 572.152344 467.519531 571.625 468.304688 C 571.097656 469.09375 570.5 469.820312 569.832031 470.488281 C 569.164062 471.160156 568.4375 471.757812 567.648438 472.28125 C 566.863281 472.808594 566.03125 473.25 565.15625 473.613281 C 564.28125 473.976562 563.382812 474.25 562.453125 474.433594 C 561.527344 474.617188 560.589844 474.710938 559.640625 474.710938 C 558.695312 474.710938 557.757812 474.617188 556.832031 474.433594 C 555.902344 474.25 555 473.976562 554.128906 473.613281 C 553.253906 473.25 552.421875 472.808594 551.636719 472.28125 C 550.847656 471.757812 550.121094 471.160156 549.453125 470.488281 C 548.78125 469.820312 548.1875 469.09375 547.660156 468.304688 C 547.132812 467.519531 546.691406 466.6875 546.328125 465.8125 C 545.964844 464.941406 545.691406 464.039062 545.507812 463.109375 C 545.324219 462.183594 545.230469 461.246094 545.230469 460.300781 C 545.230469 459.351562 545.324219 458.414062 545.507812 457.488281 C 545.691406 456.558594 545.964844 455.660156 546.328125 454.785156 C 546.691406 453.910156 547.132812 453.078125 547.660156 452.292969 C 548.1875 451.507812 548.78125 450.777344 549.453125 450.109375 C 550.121094 449.441406 550.847656 448.84375 551.636719 448.316406 C 552.421875 447.792969 553.253906 447.347656 554.128906 446.984375 C 555 446.621094 555.902344 446.351562 556.832031 446.164062 C 557.757812 445.980469 558.695312 445.886719 559.640625 445.886719 C 560.589844 445.886719 561.527344 445.980469 562.453125 446.164062 C 563.382812 446.351562 564.28125 446.621094 565.15625 446.984375 C 566.03125 447.347656 566.863281 447.792969 567.648438 448.316406 C 568.4375 448.84375 569.164062 449.441406 569.832031 450.109375 C 570.5 450.777344 571.097656 451.507812 571.625 452.292969 C 572.152344 453.078125 572.59375 453.910156 572.957031 454.785156 C 573.320312 455.660156 573.59375 456.558594 573.777344 457.488281 C 573.960938 458.414062 574.054688 459.351562 574.054688 460.300781 Z M 574.054688 460.300781 " fill-opacity="1" fill-rule="nonzero"/><path fill="#d81f57" d="M 537.769531 691.007812 L 499.5 691.007812 C 486.742188 691.007812 476.472656 680.585938 476.472656 667.828125 L 476.472656 621.621094 C 476.472656 608.863281 486.742188 598.597656 499.5 598.597656 L 537.769531 598.597656 C 525.015625 598.597656 514.589844 608.863281 514.589844 621.621094 L 514.589844 667.828125 C 514.589844 680.585938 525.015625 691.007812 537.769531 691.007812 Z M 537.769531 691.007812 " fill-opacity="1" fill-rule="nonzero"/><path fill="#b05d3e" d="M 326.109375 691.007812 L 287.839844 691.007812 C 275.082031 691.007812 264.8125 680.585938 264.8125 667.828125 L 264.8125 621.621094 C 264.8125 608.863281 275.082031 598.597656 287.839844 598.597656 L 326.109375 598.597656 C 313.351562 598.597656 302.929688 608.863281 302.929688 621.621094 L 302.929688 667.828125 C 302.929688 680.585938 313.351562 691.007812 326.109375 691.007812 Z M 326.109375 691.007812 " fill-opacity="1" fill-rule="nonzero"/><path fill="#f7e16d" d="M 809.695312 677.765625 C 809.695312 679.929688 809.644531 682.09375 809.535156 684.253906 C 809.429688 686.417969 809.273438 688.574219 809.058594 690.730469 C 808.847656 692.882812 808.582031 695.03125 808.265625 697.171875 C 807.949219 699.3125 807.578125 701.441406 807.15625 703.566406 C 806.734375 705.6875 806.257812 707.796875 805.734375 709.898438 C 805.207031 711.996094 804.628906 714.082031 804.003906 716.152344 C 803.375 718.222656 802.695312 720.277344 801.964844 722.316406 C 801.238281 724.351562 800.457031 726.371094 799.628906 728.371094 C 798.800781 730.371094 797.925781 732.347656 797 734.304688 C 796.074219 736.261719 795.101562 738.191406 794.082031 740.101562 C 793.0625 742.011719 791.996094 743.890625 790.882812 745.75 C 789.769531 747.605469 788.613281 749.433594 787.410156 751.230469 C 786.207031 753.03125 784.964844 754.800781 783.671875 756.539062 C 782.382812 758.277344 781.054688 759.980469 779.679688 761.65625 C 778.308594 763.328125 776.894531 764.964844 775.441406 766.570312 C 773.988281 768.171875 772.496094 769.738281 770.964844 771.269531 C 769.4375 772.800781 767.867188 774.292969 766.265625 775.746094 C 764.664062 777.199219 763.023438 778.613281 761.351562 779.984375 C 759.679688 781.359375 757.972656 782.6875 756.234375 783.976562 C 754.496094 785.265625 752.726562 786.511719 750.929688 787.714844 C 749.128906 788.917969 747.300781 790.074219 745.445312 791.1875 C 743.589844 792.300781 741.707031 793.367188 739.796875 794.386719 C 737.890625 795.40625 735.957031 796.378906 734 797.304688 C 732.042969 798.230469 730.066406 799.105469 728.066406 799.933594 C 726.066406 800.761719 724.050781 801.542969 722.011719 802.269531 C 719.972656 803 717.917969 803.679688 715.847656 804.304688 C 713.777344 804.933594 711.691406 805.511719 709.59375 806.035156 C 707.496094 806.5625 705.382812 807.035156 703.261719 807.460938 C 701.136719 807.882812 699.007812 808.25 696.867188 808.570312 C 694.726562 808.886719 692.578125 809.152344 690.425781 809.363281 C 688.269531 809.574219 686.113281 809.734375 683.953125 809.839844 C 681.789062 809.945312 679.628906 810 677.464844 810 C 675.300781 810 673.136719 809.945312 670.976562 809.839844 C 668.8125 809.734375 666.65625 809.574219 664.503906 809.363281 C 662.347656 809.152344 660.203125 808.886719 658.0625 808.570312 C 655.921875 808.25 653.789062 807.882812 651.667969 807.460938 C 649.542969 807.035156 647.433594 806.5625 645.332031 806.035156 C 643.234375 805.511719 641.148438 804.933594 639.078125 804.304688 C 637.007812 803.679688 634.953125 803 632.914062 802.269531 C 630.878906 801.542969 628.859375 800.761719 626.859375 799.933594 C 624.859375 799.105469 622.882812 798.230469 620.925781 797.304688 C 618.96875 796.378906 617.039062 795.40625 615.128906 794.386719 C 613.222656 793.367188 611.339844 792.300781 609.484375 791.1875 C 607.625 790.074219 605.796875 788.917969 604 787.714844 C 602.199219 786.511719 600.429688 785.265625 598.691406 783.976562 C 596.953125 782.6875 595.25 781.359375 593.578125 779.984375 C 591.902344 778.613281 590.265625 777.199219 588.660156 775.746094 C 587.058594 774.292969 585.492188 772.800781 583.960938 771.269531 C 582.429688 769.738281 580.9375 768.171875 579.484375 766.570312 C 578.03125 764.964844 576.621094 763.328125 575.246094 761.65625 C 573.875 759.980469 572.542969 758.277344 571.253906 756.539062 C 569.964844 754.800781 568.71875 753.03125 567.515625 751.230469 C 566.3125 749.433594 565.15625 747.605469 564.042969 745.75 C 562.929688 743.890625 561.863281 742.011719 560.84375 740.101562 C 559.824219 738.191406 558.851562 736.261719 557.925781 734.304688 C 557 732.347656 556.125 730.371094 555.296875 728.371094 C 554.46875 726.371094 553.691406 724.351562 552.960938 722.316406 C 552.230469 720.277344 551.554688 718.222656 550.925781 716.152344 C 550.296875 714.082031 549.71875 711.996094 549.195312 709.898438 C 548.667969 707.796875 548.195312 705.6875 547.773438 703.566406 C 547.351562 701.441406 546.980469 699.3125 546.664062 697.171875 C 546.34375 695.03125 546.078125 692.882812 545.867188 690.730469 C 545.65625 688.574219 545.496094 686.417969 545.390625 684.253906 C 545.285156 682.09375 545.230469 679.929688 545.230469 677.765625 C 545.230469 675.601562 545.285156 673.441406 545.390625 671.277344 C 545.496094 669.117188 545.65625 666.960938 545.867188 664.804688 C 546.082031 662.652344 546.34375 660.503906 546.664062 658.363281 C 546.980469 656.222656 547.351562 654.09375 547.773438 651.96875 C 548.195312 649.847656 548.667969 647.738281 549.195312 645.636719 C 549.71875 643.539062 550.296875 641.453125 550.925781 639.382812 C 551.554688 637.3125 552.230469 635.257812 552.960938 633.21875 C 553.691406 631.183594 554.46875 629.164062 555.296875 627.164062 C 556.125 625.164062 557 623.1875 557.925781 621.230469 C 558.851562 619.273438 559.824219 617.34375 560.84375 615.433594 C 561.863281 613.523438 562.929688 611.644531 564.042969 609.785156 C 565.15625 607.929688 566.3125 606.101562 567.515625 604.304688 C 568.71875 602.503906 569.964844 600.734375 571.253906 598.996094 C 572.542969 597.257812 573.875 595.554688 575.246094 593.878906 C 576.621094 592.207031 578.03125 590.570312 579.484375 588.964844 C 580.9375 587.363281 582.429688 585.796875 583.960938 584.265625 C 585.492188 582.734375 587.058594 581.242188 588.660156 579.789062 C 590.265625 578.335938 591.902344 576.921875 593.578125 575.550781 C 595.25 574.175781 596.953125 572.847656 598.691406 571.558594 C 600.429688 570.269531 602.199219 569.023438 604 567.820312 C 605.796875 566.617188 607.625 565.460938 609.484375 564.347656 C 611.339844 563.234375 613.222656 562.167969 615.128906 561.148438 C 617.039062 560.128906 618.96875 559.15625 620.925781 558.230469 C 622.882812 557.304688 624.859375 556.429688 626.859375 555.601562 C 628.859375 554.773438 630.878906 553.992188 632.914062 553.265625 C 634.953125 552.535156 637.007812 551.855469 639.078125 551.230469 C 641.148438 550.601562 643.234375 550.023438 645.332031 549.496094 C 647.433594 548.972656 649.542969 548.5 651.667969 548.074219 C 653.789062 547.652344 655.921875 547.285156 658.0625 546.964844 C 660.203125 546.648438 662.347656 546.382812 664.503906 546.171875 C 666.65625 545.960938 668.8125 545.800781 670.976562 545.695312 C 673.136719 545.589844 675.300781 545.535156 677.464844 545.535156 C 679.628906 545.535156 681.789062 545.589844 683.953125 545.695312 C 686.113281 545.800781 688.269531 545.960938 690.425781 546.171875 C 692.578125 546.382812 694.726562 546.648438 696.867188 546.964844 C 699.007812 547.285156 701.136719 547.652344 703.261719 548.074219 C 705.382812 548.5 707.496094 548.972656 709.59375 549.496094 C 711.691406 550.023438 713.777344 550.601562 715.847656 551.230469 C 717.917969 551.855469 719.972656 552.535156 722.011719 553.265625 C 724.050781 553.992188 726.066406 554.773438 728.066406 555.601562 C 730.066406 556.429688 732.042969 557.304688 734 558.230469 C 735.957031 559.15625 737.890625 560.128906 739.796875 561.148438 C 741.707031 562.167969 743.589844 563.234375 745.445312 564.347656 C 747.300781 565.460938 749.128906 566.617188 750.929688 567.820312 C 752.726562 569.023438 754.496094 570.269531 756.234375 571.558594 C 757.972656 572.847656 759.679688 574.175781 761.351562 575.550781 C 763.023438 576.921875 764.664062 578.335938 766.265625 579.789062 C 767.867188 581.242188 769.4375 582.734375 770.964844 584.265625 C 772.496094 585.796875 773.988281 587.363281 775.441406 588.964844 C 776.894531 590.570312 778.308594 592.207031 779.679688 593.878906 C 781.054688 595.554688 782.382812 597.257812 783.671875 598.996094 C 784.964844 600.734375 786.207031 602.503906 787.410156 604.304688 C 788.613281 606.101562 789.769531 607.929688 790.882812 609.785156 C 791.996094 611.644531 793.0625 613.523438 794.082031 615.433594 C 795.101562 617.34375 796.074219 619.273438 797 621.230469 C 797.925781 623.1875 798.800781 625.164062 799.628906 627.164062 C 800.457031 629.164062 801.238281 631.183594 801.964844 633.21875 C 802.695312 635.257812 803.375 637.3125 804.003906 639.382812 C 804.628906 641.453125 805.207031 643.539062 805.734375 645.636719 C 806.257812 647.738281 806.734375 649.847656 807.15625 651.96875 C 807.578125 654.09375 807.949219 656.222656 808.265625 658.363281 C 808.582031 660.503906 808.847656 662.652344 809.058594 664.804688 C 809.273438 666.960938 809.429688 669.117188 809.535156 671.277344 C 809.644531 673.441406 809.695312 675.601562 809.695312 677.765625 Z M 809.695312 677.765625 " fill-opacity="1" fill-rule="nonzero"/><path fill="#6fff3e" d="M 697.527344 808.417969 C 690.949219 809.429688 684.195312 809.933594 677.449219 809.933594 C 604.378906 809.933594 545.316406 750.871094 545.316406 677.804688 C 545.316406 604.734375 604.378906 545.503906 677.449219 545.503906 C 684.195312 545.503906 690.949219 546.011719 697.527344 547.023438 C 633.910156 556.808594 585.308594 611.652344 585.308594 677.804688 C 585.308594 743.953125 633.910156 798.796875 697.527344 808.417969 Z M 697.527344 808.417969 " fill-opacity="1" fill-rule="nonzero"/><path fill="#ffddf4" d="M 731.5625 703.003906 L 690.582031 757.378906 C 685.519531 764.023438 675.609375 764.023438 670.546875 757.378906 L 629.566406 703.003906 C 623.375 694.675781 629.230469 682.964844 639.585938 682.964844 L 653.769531 682.964844 L 653.769531 614.960938 C 653.769531 610.011719 657.78125 606 662.730469 606 L 698.289062 606 C 703.234375 606 707.246094 610.011719 707.246094 614.960938 L 707.246094 682.964844 L 721.542969 682.964844 C 731.789062 682.964844 737.753906 694.675781 731.5625 703.003906 Z M 731.5625 703.003906 " fill-opacity="1" fill-rule="nonzero"/><path fill="#cbcdf2" d="M 691.960938 755.765625 L 690.609375 757.453125 C 685.546875 764.035156 675.589844 764.035156 670.527344 757.453125 L 629.523438 702.949219 C 623.449219 694.679688 629.183594 683.035156 639.648438 683.035156 L 653.824219 683.035156 L 653.824219 615.03125 C 653.824219 609.96875 657.703125 605.917969 662.765625 605.917969 L 685.378906 605.917969 C 680.484375 605.917969 676.433594 609.96875 676.433594 615.03125 L 676.433594 683.035156 L 662.261719 683.035156 C 651.964844 683.035156 646.058594 694.679688 652.304688 702.949219 Z M 691.960938 755.765625 " fill-opacity="1" fill-rule="nonzero"/></svg>