<svg xmlns="http://www.w3.org/2000/svg" xmlns:xlink="http://www.w3.org/1999/xlink" width="40" zoomAndPan="magnify" viewBox="0 0 30 30.000001" height="40" preserveAspectRatio="xMidYMid meet" version="1.0"><defs><clipPath id="71358780b2"><path d="M 0.484375 1.453125 L 28.789062 1.453125 L 28.789062 27.582031 L 0.484375 27.582031 Z M 0.484375 1.453125 " clip-rule="nonzero"/></clipPath></defs><g clip-path="url(#71358780b2)"><path fill="#8e7dbe" d="M 23.675781 10.105469 C 23.382812 10.003906 23.082031 9.910156 22.769531 9.820312 C 22.820312 9.609375 22.867188 9.402344 22.910156 9.199219 C 23.59375 5.867188 23.148438 3.183594 21.613281 2.300781 C 20.144531 1.453125 17.738281 2.335938 15.3125 4.449219 C 15.078125 4.652344 14.84375 4.867188 14.609375 5.089844 C 14.453125 4.941406 14.300781 4.796875 14.144531 4.660156 C 11.597656 2.402344 9.046875 1.449219 7.515625 2.335938 C 6.046875 3.1875 5.613281 5.710938 6.230469 8.867188 C 6.292969 9.171875 6.363281 9.484375 6.441406 9.800781 C 6.078125 9.90625 5.730469 10.011719 5.398438 10.128906 C 2.414062 11.167969 0.507812 12.800781 0.507812 14.492188 C 0.507812 16.238281 2.554688 17.988281 5.660156 19.050781 C 5.90625 19.132812 6.160156 19.214844 6.421875 19.289062 C 6.339844 19.628906 6.265625 19.964844 6.203125 20.292969 C 5.613281 23.398438 6.074219 25.863281 7.539062 26.707031 C 9.050781 27.578125 11.589844 26.683594 14.0625 24.523438 C 14.257812 24.351562 14.453125 24.167969 14.648438 23.980469 C 14.90625 24.226562 15.160156 24.457031 15.410156 24.675781 C 17.804688 26.734375 20.171875 27.566406 21.632812 26.722656 C 23.144531 25.847656 23.636719 23.199219 23 19.976562 C 22.949219 19.730469 22.894531 19.480469 22.832031 19.226562 C 23.007812 19.171875 23.183594 19.117188 23.355469 19.0625 C 26.585938 17.988281 28.683594 16.261719 28.683594 14.492188 C 28.683594 12.792969 26.71875 11.152344 23.675781 10.105469 Z M 22.976562 17.917969 C 22.820312 17.96875 22.664062 18.019531 22.503906 18.066406 C 22.144531 16.9375 21.664062 15.738281 21.074219 14.496094 C 21.636719 13.285156 22.097656 12.101562 22.445312 10.980469 C 22.734375 11.0625 23.015625 11.152344 23.285156 11.242188 C 25.890625 12.140625 27.480469 13.46875 27.480469 14.492188 C 27.480469 15.578125 25.765625 16.992188 22.976562 17.917969 Z M 21.816406 20.210938 C 22.101562 21.636719 22.140625 22.921875 21.953125 23.929688 C 21.785156 24.835938 21.449219 25.4375 21.03125 25.679688 C 20.140625 26.191406 18.242188 25.523438 16.195312 23.761719 C 15.960938 23.558594 15.722656 23.34375 15.488281 23.117188 C 16.28125 22.25 17.074219 21.238281 17.851562 20.117188 C 19.210938 19.996094 20.496094 19.800781 21.664062 19.53125 C 21.722656 19.761719 21.773438 19.988281 21.816406 20.210938 Z M 10.117188 25.589844 C 9.25 25.898438 8.558594 25.90625 8.140625 25.664062 C 7.25 25.152344 6.882812 23.171875 7.386719 20.519531 C 7.441406 20.214844 7.511719 19.902344 7.589844 19.582031 C 8.746094 19.839844 10.023438 20.023438 11.386719 20.132812 C 12.167969 21.230469 12.984375 22.238281 13.804688 23.121094 C 13.628906 23.292969 13.449219 23.460938 13.269531 23.613281 C 12.175781 24.570312 11.082031 25.25 10.117188 25.589844 Z M 6.050781 17.910156 C 4.675781 17.441406 3.542969 16.832031 2.765625 16.164062 C 2.066406 15.566406 1.714844 14.972656 1.714844 14.492188 C 1.714844 13.464844 3.242188 12.15625 5.792969 11.265625 C 6.105469 11.160156 6.425781 11.058594 6.765625 10.960938 C 7.117188 12.109375 7.578125 13.308594 8.136719 14.519531 C 7.570312 15.75 7.101562 16.96875 6.746094 18.128906 C 6.507812 18.058594 6.273438 17.988281 6.050781 17.910156 Z M 7.414062 8.636719 C 6.882812 5.929688 7.234375 3.890625 8.121094 3.378906 C 9.0625 2.832031 11.148438 3.609375 13.34375 5.5625 C 13.484375 5.683594 13.625 5.816406 13.769531 5.949219 C 12.949219 6.828125 12.140625 7.832031 11.367188 8.921875 C 10.042969 9.042969 8.773438 9.242188 7.605469 9.503906 C 7.535156 9.210938 7.46875 8.921875 7.414062 8.636719 Z M 19.566406 11.636719 C 19.289062 11.15625 19.003906 10.6875 18.710938 10.230469 C 19.609375 10.34375 20.46875 10.492188 21.28125 10.679688 C 21.039062 11.457031 20.734375 12.269531 20.378906 13.105469 C 20.121094 12.621094 19.851562 12.128906 19.566406 11.636719 Z M 14.609375 6.8125 C 15.167969 7.414062 15.722656 8.085938 16.269531 8.8125 C 15.71875 8.785156 15.160156 8.773438 14.597656 8.773438 C 14.039062 8.773438 13.488281 8.785156 12.9375 8.8125 C 13.484375 8.089844 14.046875 7.417969 14.609375 6.8125 Z M 9.621094 11.648438 C 9.34375 12.128906 9.078125 12.617188 8.828125 13.105469 C 8.476562 12.273438 8.175781 11.457031 7.933594 10.664062 C 8.734375 10.484375 9.59375 10.339844 10.488281 10.226562 C 10.191406 10.6875 9.902344 11.164062 9.621094 11.648438 Z M 10.511719 18.839844 C 9.589844 18.738281 8.71875 18.597656 7.914062 18.421875 C 8.164062 17.617188 8.472656 16.785156 8.828125 15.933594 C 9.082031 16.421875 9.347656 16.910156 9.628906 17.394531 C 9.914062 17.886719 10.207031 18.367188 10.511719 18.839844 Z M 14.644531 22.253906 C 14.074219 21.640625 13.503906 20.957031 12.949219 20.226562 C 13.488281 20.246094 14.039062 20.257812 14.597656 20.257812 C 15.171875 20.257812 15.738281 20.246094 16.296875 20.222656 C 15.75 20.964844 15.195312 21.648438 14.644531 22.253906 Z M 20.390625 15.890625 C 20.765625 16.75 21.082031 17.582031 21.335938 18.371094 C 20.519531 18.554688 19.636719 18.707031 18.707031 18.820312 C 19 18.355469 19.289062 17.875 19.574219 17.382812 C 19.859375 16.886719 20.132812 16.386719 20.390625 15.890625 Z M 18.527344 16.785156 C 18.089844 17.546875 17.636719 18.277344 17.175781 18.964844 C 16.34375 19.023438 15.476562 19.054688 14.597656 19.054688 C 13.71875 19.054688 12.867188 19.027344 12.046875 18.972656 C 11.570312 18.277344 11.105469 17.546875 10.667969 16.789062 C 10.234375 16.035156 9.832031 15.277344 9.46875 14.519531 C 9.832031 13.761719 10.230469 13 10.664062 12.25 C 11.101562 11.492188 11.558594 10.765625 12.03125 10.074219 C 12.871094 10.011719 13.730469 9.976562 14.597656 9.976562 C 15.46875 9.976562 16.328125 10.011719 17.167969 10.074219 C 17.632812 10.761719 18.089844 11.488281 18.527344 12.242188 C 18.96875 13.003906 19.375 13.761719 19.738281 14.503906 C 19.375 15.257812 18.96875 16.019531 18.527344 16.785156 Z M 21.011719 3.339844 C 21.957031 3.886719 22.324219 6.078125 21.730469 8.957031 C 21.691406 9.140625 21.648438 9.328125 21.601562 9.519531 C 20.433594 9.246094 19.164062 9.046875 17.835938 8.921875 C 17.0625 7.820312 16.257812 6.816406 15.453125 5.949219 C 15.671875 5.742188 15.886719 5.542969 16.101562 5.355469 C 18.183594 3.546875 20.128906 2.832031 21.011719 3.339844 Z M 14.597656 11.972656 C 15.988281 11.972656 17.113281 13.101562 17.113281 14.492188 C 17.113281 15.878906 15.988281 17.007812 14.597656 17.007812 C 13.207031 17.007812 12.082031 15.878906 12.082031 14.492188 C 12.082031 13.101562 13.207031 11.972656 14.597656 11.972656 Z M 14.597656 11.972656 " fill-opacity="1" fill-rule="nonzero"/></g></svg>