<svg xmlns="http://www.w3.org/2000/svg" xmlns:xlink="http://www.w3.org/1999/xlink" width="40" zoomAndPan="magnify" viewBox="0 0 30 30.000001" height="40" preserveAspectRatio="xMidYMid meet" version="1.0"><defs><clipPath id="73fda91947"><path d="M 0.484375 0 L 29.515625 0 L 29.515625 29.03125 L 0.484375 29.03125 Z M 0.484375 0 " clip-rule="nonzero"/></clipPath></defs><g clip-path="url(#73fda91947)"><path fill="#8e7dbe" d="M 24.042969 0 L 5.957031 0 C 2.941406 0 0.484375 2.457031 0.484375 5.472656 L 0.484375 23.5625 C 0.484375 26.574219 2.941406 29.03125 5.957031 29.03125 L 24.042969 29.03125 C 27.058594 29.03125 29.515625 26.574219 29.515625 23.5625 L 29.515625 5.472656 C 29.515625 2.457031 27.058594 0 24.042969 0 Z M 8.636719 18.3125 C 7.855469 18.3125 7.070312 18.089844 6.738281 17.867188 L 6.625 17.753906 L 6.960938 16.75 C 6.960938 16.75 6.960938 16.636719 7.070312 16.636719 C 7.183594 16.636719 7.183594 16.636719 7.183594 16.636719 C 7.519531 16.859375 8.078125 17.085938 8.746094 17.085938 C 9.417969 17.085938 9.863281 16.75 9.863281 16.300781 C 9.863281 15.96875 9.640625 15.632812 8.746094 15.296875 C 7.40625 14.851562 6.847656 14.179688 6.847656 13.175781 C 6.847656 11.949219 7.855469 11.054688 9.417969 11.054688 C 10.199219 11.054688 10.757812 11.277344 11.09375 11.390625 C 11.203125 11.390625 11.203125 11.5 11.203125 11.5 L 10.867188 12.507812 C 10.867188 12.507812 10.867188 12.617188 10.757812 12.617188 L 10.644531 12.617188 C 10.308594 12.507812 9.863281 12.28125 9.304688 12.28125 C 8.523438 12.28125 8.300781 12.730469 8.300781 12.953125 C 8.300781 13.398438 8.523438 13.621094 9.527344 13.957031 C 10.757812 14.40625 11.316406 15.074219 11.316406 16.078125 C 11.316406 17.085938 10.644531 18.3125 8.636719 18.3125 Z M 18.238281 18.089844 C 18.238281 18.089844 18.351562 18.089844 18.351562 18.199219 C 18.351562 18.3125 18.351562 18.3125 18.351562 18.3125 L 18.125 19.207031 C 18.125 19.316406 18.015625 19.316406 18.015625 19.316406 C 17.121094 19.09375 16.339844 18.871094 15.335938 18.425781 C 15.222656 18.425781 15.113281 18.3125 14.886719 18.3125 C 13.324219 18.199219 11.761719 17.085938 11.761719 14.738281 C 11.761719 12.507812 13.101562 11.054688 15.113281 11.054688 C 17.011719 11.054688 18.351562 12.507812 18.351562 14.628906 C 18.351562 16.078125 17.792969 17.195312 16.785156 17.753906 C 17.234375 17.867188 17.792969 17.976562 18.238281 18.089844 Z M 23.488281 18.199219 L 19.464844 18.199219 C 19.355469 18.199219 19.355469 18.089844 19.355469 18.089844 L 19.355469 11.277344 C 19.355469 11.167969 19.464844 11.167969 19.464844 11.167969 L 20.582031 11.167969 C 20.695312 11.167969 20.695312 11.277344 20.695312 11.277344 L 20.695312 16.859375 L 23.375 16.859375 C 23.488281 16.859375 23.488281 16.972656 23.488281 16.972656 L 23.488281 18.089844 L 23.597656 18.089844 C 23.597656 18.199219 23.488281 18.199219 23.488281 18.199219 Z M 23.488281 18.199219 " fill-opacity="1" fill-rule="nonzero"/></g><path fill="#8e7dbe" d="M 15.113281 12.28125 C 13.882812 12.28125 13.324219 13.511719 13.324219 14.628906 C 13.324219 15.96875 13.996094 16.972656 15 16.972656 C 16.226562 16.972656 16.785156 15.746094 16.785156 14.628906 C 16.898438 13.511719 16.339844 12.28125 15.113281 12.28125 Z M 15.113281 12.28125 " fill-opacity="1" fill-rule="nonzero"/></svg>