<svg xmlns="http://www.w3.org/2000/svg" xmlns:xlink="http://www.w3.org/1999/xlink" width="1080" zoomAndPan="magnify" viewBox="0 0 810 809.999993" height="1080" preserveAspectRatio="xMidYMid meet" version="1.0"><defs><clipPath id="6c0b16d0e5"><path d="M 415 623 L 478 623 L 478 807.75 L 415 807.75 Z M 415 623 " clip-rule="nonzero"/></clipPath></defs><path fill="#99c1b9" d="M 502.117188 316.566406 C 501.238281 317.089844 500.371094 317.625 499.503906 318.152344 C 502.246094 322.539062 504.984375 326.925781 507.726562 331.320312 C 508.578125 330.800781 509.429688 330.28125 510.277344 329.761719 C 507.554688 325.359375 504.839844 320.964844 502.117188 316.566406 Z M 244.484375 472.742188 C 245.480469 472.171875 246.484375 471.597656 247.484375 471.03125 C 246.0625 463.644531 244.652344 456.253906 243.234375 448.867188 C 242.246094 449.085938 241.257812 449.304688 240.269531 449.515625 C 241.671875 457.257812 243.082031 465 244.484375 472.742188 Z M 512.328125 337.546875 C 511.082031 337.902344 510.304688 339.0625 510.425781 340.300781 C 511.308594 349 512.175781 357.699219 522.421875 363.730469 L 515.523438 339.320312 C 515.136719 337.949219 513.707031 337.15625 512.328125 337.546875 Z M 458.832031 390.554688 C 440.269531 387.464844 428.675781 394.746094 418.820312 406.210938 C 413.808594 412.039062 413.605469 417.535156 417.140625 424.207031 C 427.144531 443.09375 452.617188 457.597656 473.691406 456.148438 C 484.28125 455.410156 492.023438 450.503906 495.945312 440.710938 C 506.308594 414.875 512.628906 389.445312 503.753906 360.699219 C 497.746094 341.265625 491.511719 324.621094 475.777344 310.402344 C 460.324219 296.445312 443.472656 291.855469 424.007812 290.777344 C 399.980469 289.449219 378.820312 297.734375 356.957031 306.503906 C 326.320312 318.800781 307.667969 338.800781 303.605469 371.707031 C 300.769531 394.65625 297.753906 417.589844 295.605469 440.605469 C 293.441406 463.765625 302.972656 484.992188 308.363281 506.832031 C 310.632812 516.023438 314.851562 524.761719 318.425781 533.605469 C 324.976562 549.796875 333 565.011719 346.386719 576.886719 C 350.082031 580.179688 352.742188 584.636719 355.871094 588.554688 C 355.003906 589.722656 354.125 590.890625 353.257812 592.054688 C 347.980469 588.992188 342.324219 586.4375 337.5 582.78125 C 313.714844 564.726562 290.164062 546.367188 266.507812 528.132812 C 248.570312 514.304688 239.101562 494.792969 233.035156 474.046875 C 224.109375 443.515625 223.777344 411.648438 222.789062 380.128906 C 221.777344 347.621094 232.996094 317.417969 247.175781 289.222656 C 254.050781 275.535156 268.007812 264.65625 280.542969 254.75 C 299.339844 239.890625 322.210938 231.90625 344.324219 223.410156 C 377.78125 210.554688 412.453125 212.691406 446.753906 219.769531 C 461.882812 222.890625 477.308594 226.914062 491.082031 233.625 C 513.410156 244.519531 534.105469 258 549.679688 278.632812 C 569.96875 305.515625 586.359375 334.261719 596.625 366.234375 C 607.421875 399.894531 610.761719 434.914062 600.457031 468.613281 C 593.980469 489.820312 585.730469 512.34375 564.933594 526.082031 C 556.042969 531.953125 548.625 540.199219 539.457031 545.5 C 512.800781 560.910156 484.152344 563.933594 454.421875 556.117188 C 443.414062 553.226562 432.519531 549.894531 421.582031 546.746094 C 413.574219 544.4375 405.960938 542.289062 400.691406 534.375 C 398.082031 530.453125 391.824219 528.878906 387.097656 526.457031 C 377.484375 521.511719 369.609375 515.683594 366.425781 504.148438 C 359.835938 480.296875 345.726562 458.699219 345.015625 433.035156 C 344.253906 405.738281 353.714844 381.386719 367.082031 358.371094 C 371.9375 349.996094 378.957031 343.535156 389.8125 342.878906 C 400.441406 342.238281 411.003906 340.519531 421.632812 340.027344 C 424.890625 339.871094 428.855469 341.4375 431.496094 343.496094 C 445.886719 354.730469 454.886719 369.316406 458.832031 390.554688 " fill-opacity="1" fill-rule="nonzero"/><path fill="#99c1b9" d="M 641.988281 310.9375 C 634.871094 298.542969 628.71875 287.828125 622.882812 277.675781 C 624.15625 274.871094 624.519531 272.894531 625.6875 271.667969 C 637.320312 259.5 650.84375 249.261719 660.617188 235.109375 C 665.289062 228.347656 673.347656 225.769531 681.964844 223.652344 C 691.34375 221.351562 699.734375 214.839844 708.390625 209.894531 C 711.328125 208.21875 713.628906 204.082031 716.464844 203.824219 C 733.570312 202.277344 750.742188 201.066406 767.894531 201.003906 C 770.570312 200.996094 775.09375 207.164062 775.636719 210.925781 C 778.246094 229.019531 774.03125 246.945312 759.984375 258 C 728.441406 282.824219 694.269531 303.730469 653.898438 311.699219 C 651.597656 312.15625 649.164062 312.203125 646.8125 312.066406 C 645.0625 311.96875 643.34375 311.269531 641.988281 310.9375 " fill-opacity="1" fill-rule="nonzero"/><path fill="#99c1b9" d="M 490.570312 0.546875 C 496.601562 9.667969 501.335938 15.003906 503.949219 21.234375 C 507.296875 29.203125 510.296875 37.765625 511.058594 46.277344 C 513.984375 78.980469 506.339844 110.484375 498.558594 141.890625 C 497.257812 147.109375 495.875 152.320312 494.226562 157.4375 C 489.015625 173.609375 484.53125 176.429688 466.972656 175.003906 C 464.589844 174.800781 462.050781 174.210938 459.824219 174.761719 C 441.445312 179.246094 437.828125 172.070312 435.511719 155.160156 C 433.328125 139.269531 433.433594 122.933594 433.945312 106.84375 C 434.742188 81.90625 447.847656 61.257812 460.316406 40.933594 C 468.917969 26.925781 480.023438 14.441406 490.570312 0.546875 " fill-opacity="1" fill-rule="nonzero"/><path fill="#99c1b9" d="M 538.09375 608.195312 C 551.46875 598.761719 560.175781 600.253906 572.027344 608.789062 C 596.355469 626.316406 613.558594 647.839844 622.9375 676.058594 C 629.335938 695.304688 636.734375 714.257812 642.289062 733.738281 C 645.726562 745.785156 643.511719 747.867188 631.839844 752.261719 C 624.242188 755.125 615.683594 761.789062 609.398438 760.050781 C 602.890625 758.253906 598.910156 748.09375 593.292969 742.105469 C 584.789062 733.039062 573.601562 725.738281 567.457031 715.367188 C 548 682.519531 536.253906 647.078125 538.09375 608.195312 " fill-opacity="1" fill-rule="nonzero"/><path fill="#99c1b9" d="M 644.023438 426.425781 C 646.328125 419.511719 648.71875 415.109375 649.164062 410.515625 C 650.84375 393.042969 662.523438 385.851562 677.578125 382.78125 C 711.78125 375.800781 745.675781 377.875 778.328125 390.140625 C 787.417969 393.554688 795.5625 400.558594 802.867188 407.289062 C 810.019531 413.863281 808.210938 423.9375 799.949219 430.449219 C 784.132812 442.917969 766.597656 450.859375 746.089844 452.457031 C 718.167969 454.628906 690.96875 452.816406 665.449219 440.394531 C 657.722656 436.625 650.914062 430.992188 644.023438 426.425781 " fill-opacity="1" fill-rule="nonzero"/><path fill="#99c1b9" d="M 286.394531 18.714844 C 304.277344 26.171875 318.773438 36.355469 329.789062 50.597656 C 338.503906 61.859375 345.597656 74.375 353.414062 86.332031 C 367.835938 108.417969 370.980469 133.070312 368.453125 158.476562 C 367.585938 167.230469 363.085938 175.621094 359.527344 186.347656 C 353.714844 183.996094 346.472656 182.617188 341.171875 178.660156 C 296.503906 145.359375 275.199219 99.945312 273.488281 44.859375 C 273.390625 41.699219 274.882812 38.1875 276.527344 35.359375 C 278.214844 32.429688 281.335938 30.363281 283.183594 27.511719 C 284.644531 25.25 285.121094 22.355469 286.394531 18.714844 " fill-opacity="1" fill-rule="nonzero"/><path fill="#99c1b9" d="M 623.457031 532.886719 C 631.832031 525.765625 639.09375 518.148438 647.777344 512.820312 C 651.855469 510.316406 659.328125 510.503906 664.089844 512.40625 C 693.703125 524.226562 718.832031 542.222656 741.410156 565.183594 C 754.421875 578.414062 760.722656 592.859375 764.628906 609.761719 C 766.453125 617.648438 764.199219 622.351562 756.074219 624.183594 C 734.578125 629.03125 713.734375 625.277344 695.957031 613.832031 C 666.503906 594.871094 642.800781 569.585938 625.574219 538.722656 C 624.453125 536.710938 623.976562 534.351562 623.457031 532.886719 " fill-opacity="1" fill-rule="nonzero"/><path fill="#99c1b9" d="M 542.445312 190.132812 C 545.089844 182.375 546.101562 176.222656 549.078125 171.242188 C 557.628906 156.960938 566.222656 142.578125 576.210938 129.289062 C 587.300781 114.519531 599.671875 100.664062 612.035156 86.902344 C 618.554688 79.636719 626.292969 73.71875 636.921875 80.429688 C 637.839844 81.007812 639.28125 80.675781 640.433594 80.964844 C 664.800781 87.085938 668.394531 94.480469 655.277344 117.007812 C 642.976562 138.128906 629.539062 158.628906 615.617188 178.726562 C 604.179688 195.230469 591.523438 210.917969 578.96875 226.613281 C 573 234.070312 565.503906 235.140625 561.074219 227.972656 C 553.503906 215.742188 548.195312 202.113281 542.445312 190.132812 " fill-opacity="1" fill-rule="nonzero"/><path fill="#99c1b9" d="M 127.511719 673.527344 C 110.382812 674.257812 107.640625 670.164062 109.027344 657.210938 C 110.242188 645.820312 115.15625 637.503906 122.859375 629.5 C 139.816406 611.910156 155.472656 593.027344 172.910156 575.949219 C 181.273438 567.761719 192.445312 562.402344 202.449219 555.910156 C 209.527344 551.304688 216.117188 552.980469 222.117188 558.171875 C 227.03125 562.417969 232.242188 566.445312 236.53125 571.277344 C 243.722656 579.386719 241.011719 589.308594 236.367188 596.320312 C 225.570312 612.625 214.59375 629.527344 200.464844 642.730469 C 179.433594 662.367188 152.480469 671.089844 127.511719 673.527344 " fill-opacity="1" fill-rule="nonzero"/><path fill="#99c1b9" d="M -0.015625 262.9375 C 18.214844 241.738281 37.160156 235.277344 61.035156 245.339844 C 81.433594 253.941406 102.632812 260.691406 122.808594 269.75 C 133.007812 274.320312 141.769531 282.121094 151.101562 288.570312 C 153.046875 289.917969 154.917969 291.5625 156.371094 293.4375 C 166.164062 306.089844 159.847656 323.667969 144.195312 324.542969 C 101.1875 326.933594 60.460938 320.082031 27.003906 289.910156 C 17.800781 281.617188 9.429688 272.414062 -0.015625 262.9375 " fill-opacity="1" fill-rule="nonzero"/><g clip-path="url(#6c0b16d0e5)"><path fill="#99c1b9" d="M 445.871094 807.21875 C 437.433594 794.789062 429.882812 782.273438 427.210938 767.113281 C 425.660156 758.351562 422.75 749.8125 420.171875 741.253906 C 408.992188 704.035156 417.207031 670.714844 440.113281 640.226562 C 443.867188 635.226562 447.214844 629.929688 451.398438 623.828125 C 468.101562 636.878906 475.613281 653.3125 476.96875 672.011719 C 478.078125 687.375 477.128906 702.988281 475.867188 718.390625 C 473.878906 742.613281 473.78125 767.066406 465.027344 790.476562 C 461.429688 800.109375 456.191406 805.246094 445.871094 807.21875 " fill-opacity="1" fill-rule="nonzero"/></g><path fill="#99c1b9" d="M 268.601562 794.523438 C 266.65625 788.515625 263.738281 782.6875 262.964844 776.582031 C 258.660156 742.550781 264.238281 710.050781 279.390625 679.234375 C 280.445312 677.097656 281.449219 674.921875 282.617188 672.839844 C 297.507812 646.136719 300.710938 638.011719 338.15625 648.820312 C 345.371094 686.160156 334.226562 720.613281 318.351562 753.582031 C 309.230469 772.519531 289.257812 787.082031 268.601562 794.523438 " fill-opacity="1" fill-rule="nonzero"/><path fill="#99c1b9" d="M 151.757812 80.351562 C 157.050781 81.558594 162.304688 81.25 165.34375 83.691406 C 192.527344 105.472656 218.054688 128.707031 228.441406 163.785156 C 234.8125 185.285156 234.1875 207.003906 230.320312 228.753906 C 228.878906 236.890625 224.386719 239.316406 217.65625 234.875 C 208.742188 228.988281 198.785156 223.238281 192.601562 214.953125 C 179.46875 197.363281 166.414062 179.132812 157.15625 159.375 C 145.816406 135.199219 145.417969 108.804688 151.757812 80.351562 " fill-opacity="1" fill-rule="nonzero"/><path fill="#99c1b9" d="M 10.765625 486.085938 C 16.300781 479.503906 19.1875 474.214844 23.613281 471.121094 C 55.148438 449.046875 90.902344 438.230469 128.644531 433.15625 C 137.9375 431.914062 147.292969 431.144531 156.371094 430.179688 C 161.414062 443.824219 161.234375 455.585938 158.40625 467.835938 C 156.53125 475.984375 153.621094 481.246094 145.304688 485.097656 C 123.457031 495.203125 101.527344 504.617188 77.183594 505.816406 C 69.160156 506.214844 60.613281 505.28125 53 502.824219 C 39.535156 498.472656 26.613281 492.480469 10.765625 486.085938 " fill-opacity="1" fill-rule="nonzero"/></svg>