<svg xmlns="http://www.w3.org/2000/svg" xmlns:xlink="http://www.w3.org/1999/xlink" width="40" zoomAndPan="magnify" viewBox="0 0 30 30.000001" height="40" preserveAspectRatio="xMidYMid meet" version="1.0"><defs><clipPath id="291a2eee26"><path d="M 0.484375 0 L 29.515625 0 L 29.515625 29.03125 L 0.484375 29.03125 Z M 0.484375 0 " clip-rule="nonzero"/></clipPath></defs><g clip-path="url(#291a2eee26)"><path fill="#8e7dbe" d="M 14.996094 0.00390625 C 13.089844 0.00390625 11.203125 0.378906 9.441406 1.109375 C 7.679688 1.835938 6.078125 2.90625 4.730469 4.253906 C 2.007812 6.976562 0.480469 10.667969 0.480469 14.519531 C 0.480469 18.371094 2.007812 22.0625 4.730469 24.785156 C 6.078125 26.132812 7.679688 27.203125 9.441406 27.933594 C 11.203125 28.660156 13.089844 29.039062 14.996094 29.039062 C 18.847656 29.039062 22.539062 27.507812 25.261719 24.785156 C 27.984375 22.0625 29.511719 18.371094 29.511719 14.519531 C 29.511719 12.613281 29.136719 10.726562 28.410156 8.964844 C 27.679688 7.203125 26.609375 5.601562 25.261719 4.253906 C 23.914062 2.90625 22.3125 1.835938 20.550781 1.109375 C 18.789062 0.378906 16.902344 0.00390625 14.996094 0.00390625 Z M 21.339844 5.375 C 22.820312 5.332031 23.925781 6 24.011719 7.027344 C 24.027344 7.480469 23.765625 8.351562 22.863281 8.378906 C 22.183594 8.410156 21.71875 7.988281 21.703125 7.390625 C 21.6875 7.160156 22.082031 6.417969 22.082031 6.289062 C 22.066406 5.898438 21.484375 5.882812 21.324219 5.898438 C 19.148438 5.96875 18.566406 8.902344 18.101562 11.296875 L 17.898438 12.558594 C 19.117188 12.75 20.019531 12.515625 20.511719 12.199219 C 21.210938 11.746094 20.308594 11.28125 20.425781 10.761719 C 20.542969 10.222656 21.019531 9.976562 21.398438 9.960938 C 21.933594 9.945312 22.3125 10.5 22.296875 11.066406 C 22.253906 11.992188 21.050781 13.273438 18.625 13.214844 C 18.304688 13.214844 18.03125 13.183594 17.769531 13.15625 C 16.882812 17.65625 16.332031 20.328125 14.359375 22.621094 C 12.660156 24.640625 10.929688 24.945312 10.160156 24.972656 C 8.710938 25.03125 7.738281 24.261719 7.738281 23.230469 C 7.695312 22.242188 8.566406 21.691406 9.144531 21.675781 C 9.914062 21.648438 10.453125 22.214844 10.464844 22.851562 C 10.496094 23.390625 10.207031 23.5625 10.015625 23.667969 C 9.914062 23.769531 9.699219 23.882812 9.710938 24.101562 C 9.710938 24.203125 9.8125 24.421875 10.132812 24.40625 C 10.742188 24.390625 11.132812 24.085938 11.425781 23.882812 C 12.820312 22.722656 13.371094 20.675781 14.082031 16.957031 C 14.460938 14.855469 14.734375 13.503906 15.140625 12.167969 C 14.152344 11.429688 13.542969 10.5 12.222656 10.164062 C 11.308594 9.890625 10.757812 10.105469 10.363281 10.601562 C 9.914062 11.195312 10.058594 11.949219 10.496094 12.402344 C 12.164062 14.257812 12.660156 15.070312 12.46875 16.175781 C 12.179688 17.929688 10.089844 19.265625 7.621094 18.511719 C 5.515625 17.859375 5.125 16.378906 5.371094 15.550781 C 5.601562 14.839844 6.167969 14.695312 6.734375 14.867188 C 7.34375 15.058594 7.578125 15.78125 7.402344 16.347656 C 7.375 16.40625 7.085938 16.945312 7.011719 17.117188 C 6.882812 17.570312 7.492188 17.875 7.910156 18.003906 C 8.855469 18.292969 9.769531 17.800781 9.988281 17.03125 C 10.207031 16.335938 9.769531 15.839844 9.582031 15.652344 C 8.289062 14.230469 7.390625 12.964844 7.824219 11.542969 C 8 11.007812 8.347656 10.425781 8.871094 10.035156 C 9.957031 9.234375 11.148438 9.089844 12.265625 9.4375 C 13.734375 9.832031 14.429688 10.804688 15.34375 11.542969 C 15.851562 10.0625 16.5625 8.597656 17.625 7.363281 C 18.582031 6.246094 19.859375 5.433594 21.339844 5.375 Z M 21.339844 5.375 " fill-opacity="1" fill-rule="nonzero"/></g></svg>