<svg xmlns="http://www.w3.org/2000/svg" xmlns:xlink="http://www.w3.org/1999/xlink" width="40" zoomAndPan="magnify" viewBox="0 0 30 30.000001" height="40" preserveAspectRatio="xMidYMid meet" version="1.0"><defs><clipPath id="035606257b"><path d="M 0.484375 5.789062 L 29.515625 5.789062 L 29.515625 23.207031 L 0.484375 23.207031 Z M 0.484375 5.789062 " clip-rule="nonzero"/></clipPath></defs><g clip-path="url(#035606257b)"><path fill="#8e7dbe" d="M 15 5.800781 C 11.125 5.800781 8.714844 7.730469 7.742188 11.605469 C 9.195312 9.675781 10.890625 8.949219 12.824219 9.429688 C 13.925781 9.707031 14.722656 10.503906 15.59375 11.390625 C 17.019531 12.839844 18.628906 14.511719 22.257812 14.511719 C 26.136719 14.511719 28.546875 12.578125 29.519531 8.703125 C 28.066406 10.632812 26.367188 11.359375 24.4375 10.882812 C 23.332031 10.605469 22.550781 9.808594 21.664062 8.921875 C 20.242188 7.46875 18.628906 5.800781 15 5.800781 Z M 7.742188 14.511719 C 3.867188 14.511719 1.457031 16.441406 0.484375 20.316406 C 1.933594 18.386719 3.632812 17.660156 5.5625 18.140625 C 6.667969 18.414062 7.453125 19.214844 8.335938 20.101562 C 9.757812 21.550781 11.371094 23.222656 15 23.222656 C 18.875 23.222656 21.285156 21.289062 22.257812 17.414062 C 20.808594 19.34375 19.109375 20.070312 17.179688 19.59375 C 16.074219 19.316406 15.289062 18.519531 14.40625 17.632812 C 12.984375 16.179688 11.371094 14.511719 7.742188 14.511719 Z M 7.742188 14.511719 " fill-opacity="1" fill-rule="nonzero"/></g></svg>