<svg xmlns="http://www.w3.org/2000/svg" xmlns:xlink="http://www.w3.org/1999/xlink" width="40" zoomAndPan="magnify" viewBox="0 0 30 30.000001" height="40" preserveAspectRatio="xMidYMid meet" version="1.0"><defs><clipPath id="9144530870"><path d="M 0.484375 0 L 29.515625 0 L 29.515625 29.03125 L 0.484375 29.03125 Z M 0.484375 0 " clip-rule="nonzero"/></clipPath></defs><g clip-path="url(#9144530870)"><path fill="#8e7dbe" d="M 0.484375 29.03125 L 29.515625 29.03125 L 29.515625 0 L 0.484375 0 Z M 0.484375 29.03125 " fill-opacity="1" fill-rule="nonzero"/></g><path fill="#ffffff" d="M 6.902344 14.613281 L 6.894531 15.800781 L 10.671875 15.800781 L 10.671875 26.539062 L 13.34375 26.539062 L 13.34375 15.800781 L 17.125 15.800781 L 17.125 14.636719 C 17.125 13.988281 17.109375 13.449219 17.09375 13.4375 C 17.078125 13.417969 14.777344 13.410156 11.988281 13.414062 L 6.917969 13.425781 Z M 6.902344 14.613281 " fill-opacity="1" fill-rule="nonzero"/><path fill="#ffffff" d="M 23.910156 13.394531 C 24.648438 13.578125 25.210938 13.90625 25.726562 14.441406 C 25.992188 14.726562 26.390625 15.246094 26.421875 15.371094 C 26.429688 15.410156 25.167969 16.253906 24.402344 16.730469 C 24.375 16.75 24.265625 16.628906 24.140625 16.445312 C 23.765625 15.902344 23.375 15.667969 22.777344 15.625 C 21.894531 15.566406 21.328125 16.027344 21.332031 16.796875 C 21.332031 17.019531 21.367188 17.15625 21.457031 17.339844 C 21.652344 17.742188 22.011719 17.980469 23.140625 18.46875 C 25.21875 19.363281 26.109375 19.953125 26.660156 20.789062 C 27.277344 21.726562 27.417969 23.21875 26.996094 24.328125 C 26.535156 25.535156 25.394531 26.355469 23.785156 26.628906 C 23.289062 26.714844 22.109375 26.703125 21.574219 26.605469 C 20.40625 26.398438 19.300781 25.824219 18.621094 25.066406 C 18.351562 24.773438 17.832031 24.003906 17.863281 23.945312 C 17.878906 23.929688 17.996094 23.855469 18.132812 23.777344 C 18.261719 23.703125 18.75 23.421875 19.210938 23.15625 L 20.042969 22.671875 L 20.21875 22.929688 C 20.460938 23.300781 21 23.8125 21.320312 23.984375 C 22.246094 24.472656 23.519531 24.402344 24.144531 23.839844 C 24.414062 23.597656 24.523438 23.34375 24.523438 22.96875 C 24.523438 22.632812 24.480469 22.488281 24.304688 22.234375 C 24.082031 21.910156 23.621094 21.636719 22.3125 21.070312 C 20.8125 20.425781 20.167969 20.027344 19.578125 19.390625 C 19.238281 19.019531 18.914062 18.429688 18.78125 17.9375 C 18.667969 17.527344 18.644531 16.5 18.730469 16.085938 C 19.039062 14.636719 20.132812 13.628906 21.707031 13.328125 C 22.21875 13.234375 23.40625 13.269531 23.910156 13.394531 Z M 23.910156 13.394531 " fill-opacity="1" fill-rule="nonzero"/></svg>