<svg xmlns="http://www.w3.org/2000/svg" xmlns:xlink="http://www.w3.org/1999/xlink" width="839" zoomAndPan="magnify" viewBox="0 0 629.25 56.999997" height="76" preserveAspectRatio="xMidYMid meet" version="1.0"><defs><clipPath id="58bcee2b64"><path d="M 0 0.0351562 L 628 0.0351562 L 628 56.964844 L 0 56.964844 Z M 0 0.0351562 " clip-rule="nonzero"/></clipPath></defs><g clip-path="url(#58bcee2b64)"><path fill="#e0aaff" d="M 605.742188 7.433594 C 559.425781 22.898438 526.472656 32.359375 490.066406 40.566406 C 448.007812 50.070312 418.105469 53.972656 382.90625 54.554688 C 344.886719 55.136719 315.070312 52.042969 268.800781 42.582031 C 250.148438 38.773438 228.492188 33.886719 182.445312 23.078125 C 136.757812 12.363281 108.511719 6.667969 91.027344 4.742188 C 59.953125 1.246094 28.390625 4.023438 -1.203125 12.855469 L -6.714844 14.472656 L -6.804688 81.1875 L -6.941406 147.949219 L 627.710938 147.949219 L 627.710938 73.96875 C 627.710938 33.257812 627.667969 0.0351562 627.621094 0.078125 C 627.53125 0.125 617.710938 3.441406 605.742188 7.433594 Z M 605.742188 7.433594 " fill-opacity="1" fill-rule="nonzero"/></g></svg>