<svg xmlns="http://www.w3.org/2000/svg" xmlns:xlink="http://www.w3.org/1999/xlink" width="40" zoomAndPan="magnify" viewBox="0 0 30 30.000001" height="40" preserveAspectRatio="xMidYMid meet" version="1.0"><defs><clipPath id="c1a192b97c"><path d="M 1.863281 1.378906 L 27.992188 1.378906 L 27.992188 27.507812 L 1.863281 27.507812 Z M 1.863281 1.378906 " clip-rule="nonzero"/></clipPath></defs><g clip-path="url(#c1a192b97c)"><path fill="#99c1b9" d="M 16.109375 20.375 C 14.878906 20.140625 13.648438 19.261719 12.296875 17.96875 L 10.714844 16.390625 C 9.367188 15.039062 8.488281 13.867188 8.3125 12.578125 C 8.078125 10.992188 8.898438 9.761719 9.835938 8.882812 C 10.070312 8.648438 10.304688 8.472656 10.597656 8.355469 C 10.949219 8.238281 11.359375 8.355469 11.652344 8.648438 C 12.179688 9.292969 12.707031 9.996094 13.179688 10.644531 C 13.355469 10.933594 13.414062 11.285156 13.355469 11.582031 C 13.238281 11.8125 13.117188 11.992188 12.886719 12.164062 C 12.476562 12.460938 12.238281 12.929688 12.238281 13.457031 C 12.296875 13.925781 12.53125 14.335938 12.886719 14.628906 L 14 15.742188 C 14.292969 16.09375 14.703125 16.328125 15.171875 16.390625 C 15.699219 16.445312 16.167969 16.152344 16.519531 15.742188 C 16.695312 15.566406 16.871094 15.390625 17.105469 15.273438 C 17.457031 15.214844 17.75 15.273438 18.042969 15.449219 C 18.6875 15.976562 19.390625 16.445312 20.035156 16.972656 C 20.332031 17.269531 20.445312 17.621094 20.332031 18.03125 C 20.210938 18.320312 20.035156 18.558594 19.800781 18.789062 C 18.6875 19.964844 17.339844 20.550781 16.109375 20.375 Z M 14.996094 1.378906 C 7.726562 1.378906 1.863281 7.242188 1.863281 14.511719 C 1.863281 21.78125 7.726562 27.644531 14.996094 27.644531 C 22.265625 27.644531 28.128906 21.78125 28.128906 14.511719 C 28.128906 7.242188 22.265625 1.378906 14.996094 1.378906 " fill-opacity="1" fill-rule="nonzero"/></g></svg>